<svg width="898" height="305" viewBox="0 0 898 305" fill="none" xmlns="http://www.w3.org/2000/svg">
<g clip-path="url(#clip0)">
<rect x="1" y="1" width="896" height="303" rx="8" fill="#EEEBFA"/>
<g clip-path="url(#clip1)">
<rect x="81" y="61" width="1440" height="740" rx="4" fill="#FAFAFA"/>
<rect x="80.5" y="60.5" width="361" height="801" fill="white" stroke="#F2F2F2"/>
<rect x="81" y="61" width="1440" height="52" fill="#1A103C"/>
<path d="M146.045 93C149.591 93 151.642 90.8011 151.642 87.1648C151.642 83.5455 149.591 81.3636 146.165 81.3636H142.278V93H146.045ZM144.034 91.4659V82.8977H146.057C148.602 82.8977 149.915 84.4205 149.915 87.1648C149.915 89.9205 148.602 91.4659 145.949 91.4659H144.034ZM156.229 93.1932C157.672 93.1932 158.484 92.4602 158.808 91.8068H158.876V93H160.536V87.2045C160.536 84.6648 158.536 84.1591 157.149 84.1591C155.57 84.1591 154.115 84.7955 153.547 86.3864L155.143 86.75C155.393 86.1307 156.03 85.5341 157.172 85.5341C158.268 85.5341 158.831 86.108 158.831 87.0966V87.1364C158.831 87.7557 158.195 87.7443 156.626 87.9261C154.973 88.1193 153.28 88.5511 153.28 90.5341C153.28 92.25 154.57 93.1932 156.229 93.1932ZM156.598 91.8295C155.638 91.8295 154.945 91.3977 154.945 90.5568C154.945 89.6477 155.751 89.3239 156.734 89.1932C157.286 89.1193 158.592 88.9716 158.837 88.7273V89.8523C158.837 90.8864 158.013 91.8295 156.598 91.8295ZM169.338 86.4034C168.986 85.0455 167.923 84.1591 166.037 84.1591C164.065 84.1591 162.668 85.1989 162.668 86.7443C162.668 87.983 163.418 88.8068 165.054 89.1705L166.531 89.4943C167.372 89.6818 167.764 90.0568 167.764 90.6023C167.764 91.2784 167.043 91.8068 165.929 91.8068C164.912 91.8068 164.259 91.3693 164.054 90.5114L162.412 90.7614C162.696 92.3068 163.98 93.1761 165.94 93.1761C168.048 93.1761 169.509 92.0568 169.509 90.4773C169.509 89.2443 168.724 88.483 167.122 88.1136L165.736 87.7955C164.776 87.5682 164.361 87.2443 164.366 86.6534C164.361 85.983 165.088 85.5057 166.054 85.5057C167.111 85.5057 167.599 86.0909 167.798 86.6761L169.338 86.4034ZM173.075 87.8182C173.075 86.4261 173.956 85.6307 175.166 85.6307C176.337 85.6307 177.036 86.375 177.036 87.6534V93H178.734V87.4489C178.734 85.2727 177.541 84.1591 175.746 84.1591C174.388 84.1591 173.57 84.75 173.161 85.6932H173.053V81.3636H171.376V93H173.075V87.8182ZM181.138 93H182.797V91.642H182.939C183.246 92.1989 183.871 93.1705 185.462 93.1705C187.575 93.1705 189.109 91.4773 189.109 88.6534C189.109 85.8239 187.553 84.1591 185.445 84.1591C183.825 84.1591 183.24 85.1477 182.939 85.6875H182.837V81.3636H181.138V93ZM182.803 88.6364C182.803 86.8125 183.598 85.6023 185.081 85.6023C186.621 85.6023 187.393 86.9034 187.393 88.6364C187.393 90.3864 186.598 91.7216 185.081 91.7216C183.621 91.7216 182.803 90.4716 182.803 88.6364ZM194.693 93.1761C197.153 93.1761 198.761 91.375 198.761 88.6761C198.761 85.9602 197.153 84.1591 194.693 84.1591C192.233 84.1591 190.625 85.9602 190.625 88.6761C190.625 91.375 192.233 93.1761 194.693 93.1761ZM194.699 91.75C193.091 91.75 192.341 90.3466 192.341 88.6705C192.341 87 193.091 85.5795 194.699 85.5795C196.295 85.5795 197.045 87 197.045 88.6705C197.045 90.3466 196.295 91.75 194.699 91.75ZM203.197 93.1932C204.641 93.1932 205.453 92.4602 205.777 91.8068H205.845V93H207.504V87.2045C207.504 84.6648 205.504 84.1591 204.118 84.1591C202.538 84.1591 201.084 84.7955 200.516 86.3864L202.112 86.75C202.362 86.1307 202.999 85.5341 204.141 85.5341C205.237 85.5341 205.8 86.108 205.8 87.0966V87.1364C205.8 87.7557 205.163 87.7443 203.595 87.9261C201.942 88.1193 200.249 88.5511 200.249 90.5341C200.249 92.25 201.538 93.1932 203.197 93.1932ZM203.567 91.8295C202.607 91.8295 201.913 91.3977 201.913 90.5568C201.913 89.6477 202.72 89.3239 203.703 89.1932C204.254 89.1193 205.561 88.9716 205.805 88.7273V89.8523C205.805 90.8864 204.982 91.8295 203.567 91.8295ZM209.767 93H211.466V87.6705C211.466 86.5341 212.347 85.7102 213.523 85.7102C213.852 85.7102 214.108 85.7784 214.312 85.8807L214.858 84.4602C214.568 84.267 214.193 84.142 213.716 84.142C212.682 84.142 211.818 84.7216 211.5 85.6591H211.409V84.2727H209.767V93ZM219.097 93.1705C220.688 93.1705 221.312 92.1989 221.619 91.642H221.761V93H223.42V81.3636H221.722V85.6875H221.619C221.312 85.1477 220.733 84.1591 219.108 84.1591C217 84.1591 215.449 85.8239 215.449 88.6534C215.449 91.4773 216.977 93.1705 219.097 93.1705ZM219.472 91.7216C217.955 91.7216 217.165 90.3864 217.165 88.6364C217.165 86.9034 217.938 85.6023 219.472 85.6023C220.955 85.6023 221.75 86.8125 221.75 88.6364C221.75 90.4716 220.938 91.7216 219.472 91.7216ZM232.438 77.6136H230.915V96.75H232.438V77.6136ZM246.281 84.4205H247.974C247.923 82.5568 246.276 81.2045 243.912 81.2045C241.577 81.2045 239.787 82.5398 239.787 84.5455C239.787 86.1648 240.946 87.1136 242.815 87.6193L244.19 87.9943C245.435 88.3239 246.395 88.733 246.395 89.767C246.395 90.9034 245.31 91.6534 243.815 91.6534C242.463 91.6534 241.338 91.0511 241.236 89.7841H239.474C239.588 91.892 241.219 93.1932 243.827 93.1932C246.56 93.1932 248.134 91.7557 248.134 89.7841C248.134 87.6875 246.264 86.875 244.787 86.5114L243.651 86.2159C242.741 85.983 241.531 85.5568 241.537 84.4432C241.537 83.4545 242.44 82.7216 243.872 82.7216C245.207 82.7216 246.156 83.3466 246.281 84.4205ZM253.857 93.1761C255.76 93.1761 257.107 92.2386 257.493 90.8182L255.885 90.5284C255.578 91.3523 254.839 91.7727 253.874 91.7727C252.419 91.7727 251.442 90.8295 251.396 89.1477H257.601V88.5455C257.601 85.392 255.714 84.1591 253.737 84.1591C251.305 84.1591 249.703 86.0114 249.703 88.6932C249.703 91.4034 251.283 93.1761 253.857 93.1761ZM251.402 87.875C251.47 86.6364 252.368 85.5625 253.749 85.5625C255.067 85.5625 255.93 86.5398 255.936 87.875H251.402ZM259.486 93H261.185V87.6705C261.185 86.5284 262.065 85.7045 263.27 85.7045C263.622 85.7045 264.02 85.767 264.156 85.8068V84.1818C263.986 84.1591 263.651 84.142 263.435 84.142C262.412 84.142 261.537 84.7216 261.219 85.6591H261.128V84.2727H259.486V93ZM273.358 84.2727H271.534L269.33 90.9886H269.239L267.028 84.2727H265.205L268.375 93H270.193L273.358 84.2727ZM275.408 93H277.107V84.2727H275.408V93ZM276.266 82.9261C276.851 82.9261 277.339 82.4716 277.339 81.9148C277.339 81.358 276.851 80.8977 276.266 80.8977C275.675 80.8977 275.192 81.358 275.192 81.9148C275.192 82.4716 275.675 82.9261 276.266 82.9261ZM283.068 93.1761C285.131 93.1761 286.466 91.9375 286.653 90.2386H285C284.784 91.1818 284.051 91.7386 283.08 91.7386C281.642 91.7386 280.716 90.5398 280.716 88.6364C280.716 86.767 281.659 85.5909 283.08 85.5909C284.159 85.5909 284.818 86.2727 285 87.0909H286.653C286.472 85.3295 285.034 84.1591 283.051 84.1591C280.591 84.1591 279 86.0114 279 88.6761C279 91.3068 280.534 93.1761 283.068 93.1761ZM292.232 93.1761C294.135 93.1761 295.482 92.2386 295.868 90.8182L294.26 90.5284C293.953 91.3523 293.214 91.7727 292.249 91.7727C290.794 91.7727 289.817 90.8295 289.771 89.1477H295.976V88.5455C295.976 85.392 294.089 84.1591 292.112 84.1591C289.68 84.1591 288.078 86.0114 288.078 88.6932C288.078 91.4034 289.658 93.1761 292.232 93.1761ZM289.777 87.875C289.845 86.6364 290.743 85.5625 292.124 85.5625C293.442 85.5625 294.305 86.5398 294.311 87.875H289.777ZM304.401 86.4034C304.048 85.0455 302.986 84.1591 301.099 84.1591C299.128 84.1591 297.73 85.1989 297.73 86.7443C297.73 87.983 298.48 88.8068 300.116 89.1705L301.594 89.4943C302.435 89.6818 302.827 90.0568 302.827 90.6023C302.827 91.2784 302.105 91.8068 300.991 91.8068C299.974 91.8068 299.321 91.3693 299.116 90.5114L297.474 90.7614C297.759 92.3068 299.043 93.1761 301.003 93.1761C303.111 93.1761 304.571 92.0568 304.571 90.4773C304.571 89.2443 303.787 88.483 302.185 88.1136L300.798 87.7955C299.838 87.5682 299.423 87.2443 299.429 86.6534C299.423 85.983 300.151 85.5057 301.116 85.5057C302.173 85.5057 302.662 86.0909 302.861 86.6761L304.401 86.4034ZM313.031 77.6136H311.509V96.75H313.031V77.6136ZM322.807 93H324.58L327.028 84.2841H327.119L329.568 93H331.335L334.568 81.3636H332.716L330.455 90.3807H330.347L327.989 81.3636H326.159L323.801 90.375H323.693L321.426 81.3636H319.58L322.807 93ZM338.935 93.1761C340.838 93.1761 342.185 92.2386 342.571 90.8182L340.963 90.5284C340.656 91.3523 339.918 91.7727 338.952 91.7727C337.497 91.7727 336.52 90.8295 336.474 89.1477H342.679V88.5455C342.679 85.392 340.793 84.1591 338.815 84.1591C336.384 84.1591 334.781 86.0114 334.781 88.6932C334.781 91.4034 336.361 93.1761 338.935 93.1761ZM336.48 87.875C336.548 86.6364 337.446 85.5625 338.827 85.5625C340.145 85.5625 341.009 86.5398 341.014 87.875H336.48ZM347.104 93.1932C348.547 93.1932 349.359 92.4602 349.683 91.8068H349.751V93H351.411V87.2045C351.411 84.6648 349.411 84.1591 348.024 84.1591C346.445 84.1591 344.99 84.7955 344.422 86.3864L346.018 86.75C346.268 86.1307 346.905 85.5341 348.047 85.5341C349.143 85.5341 349.706 86.108 349.706 87.0966V87.1364C349.706 87.7557 349.07 87.7443 347.501 87.9261C345.848 88.1193 344.155 88.5511 344.155 90.5341C344.155 92.25 345.445 93.1932 347.104 93.1932ZM347.473 91.8295C346.513 91.8295 345.82 91.3977 345.82 90.5568C345.82 89.6477 346.626 89.3239 347.609 89.1932C348.161 89.1193 349.467 88.9716 349.712 88.7273V89.8523C349.712 90.8864 348.888 91.8295 347.473 91.8295ZM357.747 84.2727H355.957V82.1818H354.259V84.2727H352.98V85.6364H354.259V90.7898C354.253 92.375 355.463 93.142 356.804 93.1136C357.344 93.108 357.707 93.0057 357.906 92.9318L357.599 91.5284C357.486 91.5511 357.276 91.6023 357.003 91.6023C356.452 91.6023 355.957 91.4205 355.957 90.4375V85.6364H357.747V84.2727ZM361.513 87.8182C361.513 86.4261 362.393 85.6307 363.604 85.6307C364.774 85.6307 365.473 86.375 365.473 87.6534V93H367.172V87.4489C367.172 85.2727 365.979 84.1591 364.183 84.1591C362.825 84.1591 362.007 84.75 361.598 85.6932H361.49V81.3636H359.814V93H361.513V87.8182ZM373.2 93.1761C375.104 93.1761 376.45 92.2386 376.837 90.8182L375.229 90.5284C374.922 91.3523 374.183 91.7727 373.217 91.7727C371.763 91.7727 370.786 90.8295 370.74 89.1477H376.945V88.5455C376.945 85.392 375.058 84.1591 373.081 84.1591C370.649 84.1591 369.047 86.0114 369.047 88.6932C369.047 91.4034 370.626 93.1761 373.2 93.1761ZM370.746 87.875C370.814 86.6364 371.712 85.5625 373.092 85.5625C374.411 85.5625 375.274 86.5398 375.28 87.875H370.746ZM378.83 93H380.528V87.6705C380.528 86.5341 381.409 85.7102 382.585 85.7102C382.915 85.7102 383.17 85.7784 383.375 85.8807L383.92 84.4602C383.631 84.267 383.256 84.142 382.778 84.142C381.744 84.142 380.881 84.7216 380.562 85.6591H380.472V84.2727H378.83V93ZM395.922 84.4205H397.615C397.564 82.5568 395.916 81.2045 393.553 81.2045C391.217 81.2045 389.428 82.5398 389.428 84.5455C389.428 86.1648 390.587 87.1136 392.456 87.6193L393.831 87.9943C395.075 88.3239 396.036 88.733 396.036 89.767C396.036 90.9034 394.95 91.6534 393.456 91.6534C392.104 91.6534 390.979 91.0511 390.876 89.7841H389.115C389.229 91.892 390.859 93.1932 393.467 93.1932C396.2 93.1932 397.774 91.7557 397.774 89.7841C397.774 87.6875 395.905 86.875 394.428 86.5114L393.291 86.2159C392.382 85.983 391.172 85.5568 391.178 84.4432C391.178 83.4545 392.081 82.7216 393.513 82.7216C394.848 82.7216 395.797 83.3466 395.922 84.4205ZM403.497 93.1761C405.401 93.1761 406.747 92.2386 407.134 90.8182L405.526 90.5284C405.219 91.3523 404.48 91.7727 403.514 91.7727C402.06 91.7727 401.082 90.8295 401.037 89.1477H407.241V88.5455C407.241 85.392 405.355 84.1591 403.378 84.1591C400.946 84.1591 399.344 86.0114 399.344 88.6932C399.344 91.4034 400.923 93.1761 403.497 93.1761ZM401.043 87.875C401.111 86.6364 402.009 85.5625 403.389 85.5625C404.707 85.5625 405.571 86.5398 405.577 87.875H401.043ZM409.126 93H410.825V87.6705C410.825 86.5284 411.706 85.7045 412.911 85.7045C413.263 85.7045 413.661 85.767 413.797 85.8068V84.1818C413.626 84.1591 413.291 84.142 413.075 84.142C412.053 84.142 411.178 84.7216 410.859 85.6591H410.768V84.2727H409.126V93ZM422.999 84.2727H421.175L418.97 90.9886H418.879L416.669 84.2727H414.845L418.016 93H419.834L422.999 84.2727ZM425.048 93H426.747V84.2727H425.048V93ZM425.906 82.9261C426.491 82.9261 426.98 82.4716 426.98 81.9148C426.98 81.358 426.491 80.8977 425.906 80.8977C425.315 80.8977 424.832 81.358 424.832 81.9148C424.832 82.4716 425.315 82.9261 425.906 82.9261ZM432.709 93.1761C434.771 93.1761 436.107 91.9375 436.294 90.2386H434.641C434.425 91.1818 433.692 91.7386 432.72 91.7386C431.283 91.7386 430.357 90.5398 430.357 88.6364C430.357 86.767 431.3 85.5909 432.72 85.5909C433.8 85.5909 434.459 86.2727 434.641 87.0909H436.294C436.112 85.3295 434.675 84.1591 432.692 84.1591C430.232 84.1591 428.641 86.0114 428.641 88.6761C428.641 91.3068 430.175 93.1761 432.709 93.1761ZM441.872 93.1761C443.776 93.1761 445.122 92.2386 445.509 90.8182L443.901 90.5284C443.594 91.3523 442.855 91.7727 441.889 91.7727C440.435 91.7727 439.457 90.8295 439.412 89.1477H445.616V88.5455C445.616 85.392 443.73 84.1591 441.753 84.1591C439.321 84.1591 437.719 86.0114 437.719 88.6932C437.719 91.4034 439.298 93.1761 441.872 93.1761ZM439.418 87.875C439.486 86.6364 440.384 85.5625 441.764 85.5625C443.082 85.5625 443.946 86.5398 443.952 87.875H439.418ZM454.094 77.6136H452.571V96.75H454.094V77.6136Z" fill="white" fill-opacity="0.6"/>
<path d="M463.909 93H465.989L468.324 84.8352H468.415L470.744 93H472.824L476.108 81.3636H473.841L471.744 89.9205H471.642L469.398 81.3636H467.335L465.097 89.9148H464.989L462.892 81.3636H460.625L463.909 93ZM480.452 93.1705C482.486 93.1705 483.884 92.1761 484.247 90.6591L482.327 90.4432C482.048 91.1818 481.366 91.5682 480.48 91.5682C479.151 91.5682 478.27 90.6932 478.253 89.1989H484.332V88.5682C484.332 85.5057 482.491 84.1591 480.344 84.1591C477.844 84.1591 476.213 85.9943 476.213 88.6875C476.213 91.4261 477.821 93.1705 480.452 93.1705ZM478.259 87.8125C478.321 86.6989 479.145 85.7614 480.372 85.7614C481.554 85.7614 482.349 86.625 482.361 87.8125H478.259ZM488.584 93.1761C489.953 93.1761 490.771 92.5341 491.146 91.8011H491.214V93H493.192V87.1591C493.192 84.8523 491.311 84.1591 489.646 84.1591C487.811 84.1591 486.402 84.9773 485.947 86.5682L487.868 86.8409C488.072 86.2443 488.652 85.733 489.658 85.733C490.612 85.733 491.135 86.2216 491.135 87.0795V87.1136C491.135 87.7045 490.516 87.733 488.976 87.8977C487.283 88.0795 485.663 88.5852 485.663 90.5511C485.663 92.267 486.919 93.1761 488.584 93.1761ZM489.118 91.6648C488.26 91.6648 487.646 91.2727 487.646 90.517C487.646 89.7273 488.334 89.3977 489.254 89.267C489.794 89.1932 490.874 89.0568 491.141 88.8409V89.8693C491.141 90.8409 490.357 91.6648 489.118 91.6648ZM499.618 84.2727H497.896V82.1818H495.839V84.2727H494.601V85.8636H495.839V90.7159C495.828 92.358 497.021 93.1648 498.567 93.1193C499.152 93.1023 499.555 92.9886 499.777 92.9148L499.43 91.3068C499.317 91.3352 499.084 91.3864 498.828 91.3864C498.311 91.3864 497.896 91.2045 497.896 90.375V85.8636H499.618V84.2727ZM503.582 87.8864C503.582 86.625 504.366 85.8977 505.469 85.8977C506.548 85.8977 507.185 86.5852 507.185 87.7614V93H509.241V87.4432C509.241 85.3352 508.048 84.1591 506.236 84.1591C504.895 84.1591 504.043 84.767 503.639 85.7557H503.537V81.3636H501.526V93H503.582V87.8864ZM515.202 93.1705C517.236 93.1705 518.634 92.1761 518.997 90.6591L517.077 90.4432C516.798 91.1818 516.116 91.5682 515.23 91.5682C513.901 91.5682 513.02 90.6932 513.003 89.1989H519.082V88.5682C519.082 85.5057 517.241 84.1591 515.094 84.1591C512.594 84.1591 510.963 85.9943 510.963 88.6875C510.963 91.4261 512.571 93.1705 515.202 93.1705ZM513.009 87.8125C513.071 86.6989 513.895 85.7614 515.122 85.7614C516.304 85.7614 517.099 86.625 517.111 87.8125H513.009ZM520.822 93H522.879V87.8693C522.879 86.767 523.709 85.9886 524.783 85.9886C525.118 85.9886 525.374 86.0682 525.595 86.1705L526.232 84.4659C525.925 84.2727 525.533 84.1477 525.061 84.1477C524.055 84.1477 523.226 84.7159 522.908 85.7273H522.817V84.2727H520.822V93ZM535.893 84.2727H534.081V83.5852C534.081 82.9034 534.365 82.5227 535.132 82.5227C535.456 82.5227 535.729 82.5966 535.899 82.6477L536.314 81.0568C536.047 80.9659 535.462 80.8182 534.751 80.8182C533.234 80.8182 532.024 81.6875 532.024 83.4489V84.2727H530.734V85.8636H532.024V93H534.081V85.8636H535.893V84.2727ZM539.567 81.3636H537.51V93H539.567V81.3636ZM545.489 93.1705C548.045 93.1705 549.67 91.3693 549.67 88.6705C549.67 85.9659 548.045 84.1591 545.489 84.1591C542.932 84.1591 541.307 85.9659 541.307 88.6705C541.307 91.3693 542.932 93.1705 545.489 93.1705ZM545.5 91.5227C544.085 91.5227 543.392 90.2614 543.392 88.6648C543.392 87.0682 544.085 85.7898 545.5 85.7898C546.892 85.7898 547.585 87.0682 547.585 88.6648C547.585 90.2614 546.892 91.5227 545.5 91.5227ZM552.983 93H555.131L556.767 87.1023H556.886L558.523 93H560.665L563.136 84.2727H561.034L559.523 90.375H559.438L557.869 84.2727H555.795L554.227 90.4091H554.148L552.614 84.2727H550.517L552.983 93Z" fill="white"/>
<path d="M107 91V93H127V91H107ZM107 86V88H127V86H107ZM107 81V83H127V81H107Z" fill="white"/>
<g filter="url(#filter0_d)">
<rect x="489" y="145" width="564" height="84" rx="10" fill="white"/>
</g>
<g filter="url(#filter1_d)">
<rect x="489" y="145" width="564" height="84" rx="10" fill="#FFF5E6"/>
<rect x="488.5" y="144.5" width="565" height="85" rx="10.5" stroke="#FECC7A"/>
</g>
<mask id="mask0" mask-type="alpha" maskUnits="userSpaceOnUse" x="489" y="145" width="564" height="84">
<rect x="489" y="145" width="564" height="84" rx="10" fill="#FECC7A"/>
</mask>
<g mask="url(#mask0)">
<path d="M489 150C489 147.239 491.239 145 494 145V145V229V229C491.239 229 489 226.761 489 224V150Z" fill="#FECC7A"/>
</g>
<path d="M520.849 169.818H519.004V180H520.849V169.818ZM532.213 169.818H530.379V176.759H530.289L525.497 169.818H523.846V180H525.691V173.065H525.775L530.573 180H532.213V169.818ZM535.223 180H537.067V176.56H539.016C541.368 176.56 542.631 175.148 542.631 173.189C542.631 171.245 541.383 169.818 539.041 169.818H535.223V180ZM537.067 175.043V171.359H538.758C540.14 171.359 540.751 172.105 540.751 173.189C540.751 174.273 540.14 175.043 538.768 175.043H537.067ZM551.656 169.818V176.505C551.656 177.763 550.647 178.494 549.364 178.494C548.086 178.494 547.077 177.763 547.077 176.505V169.818H545.233V176.55C545.233 178.857 547.003 180.154 549.364 180.154C551.716 180.154 553.496 178.857 553.496 176.55V169.818H551.656ZM556.053 171.364H559.2V180H561.029V171.364H564.176V169.818H556.053V171.364Z" fill="black" fill-opacity="0.4"/>
<path d="M519.278 205H521.034V199.926H526.835V205H528.597V193.364H526.835V198.42H521.034V193.364H519.278V205ZM534.778 205.176C536.682 205.176 538.028 204.239 538.415 202.818L536.807 202.528C536.5 203.352 535.761 203.773 534.795 203.773C533.341 203.773 532.364 202.83 532.318 201.148H538.523V200.545C538.523 197.392 536.636 196.159 534.659 196.159C532.227 196.159 530.625 198.011 530.625 200.693C530.625 203.403 532.205 205.176 534.778 205.176ZM532.324 199.875C532.392 198.636 533.29 197.562 534.67 197.562C535.989 197.562 536.852 198.54 536.858 199.875H532.324ZM542.107 193.364H540.408V205H542.107V193.364ZM546.091 193.364H544.392V205H546.091V193.364ZM552.053 205.176C554.513 205.176 556.121 203.375 556.121 200.676C556.121 197.96 554.513 196.159 552.053 196.159C549.592 196.159 547.984 197.96 547.984 200.676C547.984 203.375 549.592 205.176 552.053 205.176ZM552.058 203.75C550.45 203.75 549.7 202.347 549.7 200.67C549.7 199 550.45 197.58 552.058 197.58C553.655 197.58 554.405 199 554.405 200.67C554.405 202.347 553.655 203.75 552.058 203.75Z" fill="#1A1A1A"/>
<g filter="url(#filter2_d)">
<rect x="489" y="261" width="564" height="84" rx="10" fill="white"/>
</g>
<mask id="mask1" mask-type="alpha" maskUnits="userSpaceOnUse" x="489" y="261" width="564" height="84">
<rect x="489" y="261" width="564" height="84" rx="10" fill="#FA888C"/>
</mask>
<g mask="url(#mask1)">
<path d="M489 266C489 263.239 491.239 261 494 261V261V345V345C491.239 345 489 342.761 489 340V266Z" fill="#FA888C"/>
</g>
<path d="M528.102 290.909C528.102 287.618 526.094 285.679 523.424 285.679C520.749 285.679 518.746 287.618 518.746 290.909C518.746 294.195 520.749 296.139 523.424 296.139C526.094 296.139 528.102 294.2 528.102 290.909ZM526.248 290.909C526.248 293.226 525.085 294.484 523.424 294.484C521.768 294.484 520.6 293.226 520.6 290.909C520.6 288.592 521.768 287.335 523.424 287.335C525.085 287.335 526.248 288.592 526.248 290.909ZM537.269 285.818V292.505C537.269 293.763 536.26 294.494 534.977 294.494C533.7 294.494 532.691 293.763 532.691 292.505V285.818H530.846V292.55C530.846 294.857 532.616 296.154 534.977 296.154C537.329 296.154 539.109 294.857 539.109 292.55V285.818H537.269ZM541.666 287.364H544.813V296H546.643V287.364H549.79V285.818H541.666V287.364ZM552.356 296H554.2V292.56H556.149C558.501 292.56 559.763 291.148 559.763 289.189C559.763 287.245 558.516 285.818 556.174 285.818H552.356V296ZM554.2 291.043V287.359H555.891C557.273 287.359 557.884 288.105 557.884 289.189C557.884 290.273 557.273 291.043 555.901 291.043H554.2ZM568.789 285.818V292.505C568.789 293.763 567.78 294.494 566.497 294.494C565.219 294.494 564.21 293.763 564.21 292.505V285.818H562.366V292.55C562.366 294.857 564.135 296.154 566.497 296.154C568.849 296.154 570.628 294.857 570.628 292.55V285.818H568.789ZM573.186 287.364H576.333V296H578.162V287.364H581.309V285.818H573.186V287.364Z" fill="black" fill-opacity="0.4"/>
<path d="M770 229V261H772V229H770Z" fill="#E6E6E6"/>
<path d="M767 257H775L771 265L767 257Z" fill="#B3B3B3"/>
<rect x="81" y="113" width="90" height="42" fill="white"/>
<rect x="81" y="153" width="90" height="2" fill="#1DA3FC"/>
<path d="M111.05 129.273H109.478V135.222H109.401L105.293 129.273H103.878V138H105.459V132.055H105.532L109.644 138H111.05V129.273ZM121.571 133.636C121.571 130.815 119.85 129.153 117.561 129.153C115.269 129.153 113.551 130.815 113.551 133.636C113.551 136.453 115.269 138.119 117.561 138.119C119.85 138.119 121.571 136.457 121.571 133.636ZM119.982 133.636C119.982 135.622 118.985 136.7 117.561 136.7C116.142 136.7 115.141 135.622 115.141 133.636C115.141 131.651 116.142 130.572 117.561 130.572C118.985 130.572 119.982 131.651 119.982 133.636ZM127.023 138C129.682 138 131.259 136.355 131.259 133.628C131.259 130.909 129.682 129.273 127.083 129.273H124.066V138H127.023ZM125.647 136.632V130.641H126.993C128.766 130.641 129.691 131.629 129.691 133.628C129.691 135.635 128.766 136.632 126.947 136.632H125.647ZM133.761 138H139.471V136.675H135.342V134.293H139.143V132.967H135.342V130.598H139.437V129.273H133.761V138ZM146.793 131.672H148.314C148.285 130.197 147.028 129.153 145.17 129.153C143.337 129.153 141.961 130.185 141.965 131.727C141.965 132.98 142.856 133.7 144.292 134.071L145.285 134.327C146.226 134.565 146.849 134.859 146.853 135.537C146.849 136.283 146.141 136.781 145.11 136.781C144.121 136.781 143.354 136.338 143.29 135.422H141.735C141.799 137.156 143.09 138.132 145.123 138.132C147.215 138.132 148.43 137.088 148.434 135.55C148.43 134.037 147.181 133.347 145.868 133.036L145.05 132.831C144.334 132.661 143.559 132.358 143.567 131.629C143.572 130.973 144.16 130.491 145.148 130.491C146.09 130.491 146.712 130.93 146.793 131.672Z" fill="#1DA3FC"/>
<rect x="171" y="113" width="90" height="42" fill="white"/>
<rect x="171" y="153" width="90" height="2" fill="#F2F2F2"/>
<path d="M191.401 129.273H190.084V138H191.401V129.273ZM200.862 129.273H199.558V135.682H199.477L195.037 129.273H193.818V138H195.135V131.599H195.216L199.652 138H200.862V129.273ZM202.853 130.406H205.571V138H206.884V130.406H209.607V129.273H202.853V130.406ZM211.599 138H217.122V136.866H212.916V134.195H216.786V133.065H212.916V130.406H217.071V129.273H211.599V138ZM226.374 129.273H225.07V135.682H224.989L220.549 129.273H219.33V138H220.647V131.599H220.728L225.164 138H226.374V129.273ZM228.364 130.406H231.083V138H232.396V130.406H235.119V129.273H228.364V130.406ZM241.871 131.565H243.141C243.103 130.168 241.867 129.153 240.094 129.153C238.343 129.153 237 130.155 237 131.659C237 132.874 237.87 133.585 239.272 133.964L240.303 134.246C241.236 134.493 241.956 134.8 241.956 135.575C241.956 136.428 241.142 136.99 240.022 136.99C239.007 136.99 238.164 136.538 238.087 135.588H236.766C236.851 137.169 238.074 138.145 240.03 138.145C242.08 138.145 243.26 137.067 243.26 135.588C243.26 134.016 241.858 133.406 240.75 133.134L239.898 132.912C239.216 132.737 238.309 132.418 238.313 131.582C238.313 130.841 238.99 130.291 240.064 130.291C241.066 130.291 241.777 130.76 241.871 131.565Z" fill="#999999"/>
<rect x="261" y="113" width="90" height="42" fill="white"/>
<rect x="261" y="153" width="90" height="2" fill="#F2F2F2"/>
<path d="M279.084 138H284.607V136.866H280.401V134.195H284.27V133.065H280.401V130.406H284.555V129.273H279.084V138ZM293.858 129.273H292.554V135.682H292.473L288.033 129.273H286.814V138H288.131V131.599H288.212L292.648 138H293.858V129.273ZM295.849 130.406H298.567V138H299.88V130.406H302.603V129.273H295.849V130.406ZM305.912 129.273H304.596V138H305.912V129.273ZM307.9 130.406H310.618V138H311.931V130.406H314.654V129.273H307.9V130.406ZM317.963 129.273H316.646V138H317.963V129.273ZM320.381 138H325.903V136.866H321.697V134.195H325.567V133.065H321.697V130.406H325.852V129.273H320.381V138ZM332.871 131.565H334.141C334.103 130.168 332.867 129.153 331.094 129.153C329.343 129.153 328 130.155 328 131.659C328 132.874 328.87 133.585 330.272 133.964L331.303 134.246C332.236 134.493 332.956 134.8 332.956 135.575C332.956 136.428 332.142 136.99 331.022 136.99C330.007 136.99 329.164 136.538 329.087 135.588H327.766C327.851 137.169 329.074 138.145 331.03 138.145C333.08 138.145 334.26 137.067 334.26 135.588C334.26 134.016 332.858 133.406 331.75 133.134L330.898 132.912C330.216 132.737 329.309 132.418 329.313 131.582C329.313 130.841 329.99 130.291 331.064 130.291C332.066 130.291 332.777 130.76 332.871 131.565Z" fill="#999999"/>
<rect x="351" y="113" width="90" height="42" fill="white"/>
<rect x="351" y="153" width="90" height="2" fill="#F2F2F2"/>
<path d="M386.489 132.111C386.19 130.244 384.729 129.153 382.884 129.153C380.625 129.153 378.959 130.845 378.959 133.636C378.959 136.428 380.616 138.119 382.884 138.119C384.801 138.119 386.203 136.918 386.489 135.192L385.159 135.188C384.933 136.304 383.996 136.918 382.892 136.918C381.396 136.918 380.267 135.771 380.267 133.636C380.267 131.518 381.392 130.355 382.896 130.355C384.009 130.355 384.942 130.982 385.159 132.111H386.489ZM396.145 133.636C396.145 130.845 394.475 129.153 392.216 129.153C389.949 129.153 388.283 130.845 388.283 133.636C388.283 136.423 389.949 138.119 392.216 138.119C394.475 138.119 396.145 136.428 396.145 133.636ZM394.841 133.636C394.841 135.763 393.716 136.918 392.216 136.918C390.712 136.918 389.591 135.763 389.591 133.636C389.591 131.51 390.712 130.355 392.216 130.355C393.716 130.355 394.841 131.51 394.841 133.636ZM401.112 138C403.771 138 405.31 136.351 405.31 133.624C405.31 130.909 403.771 129.273 401.202 129.273H398.287V138H401.112ZM399.604 136.849V130.423H401.121C403.03 130.423 404.014 131.565 404.014 133.624C404.014 135.69 403.03 136.849 401.04 136.849H399.604ZM407.447 138H412.97V136.866H408.764V134.195H412.633V133.065H408.764V130.406H412.919V129.273H407.447V138Z" fill="#999999"/>
<path d="M116.034 191.364H114.278V203H116.034V191.364ZM120.653 197.818C120.653 196.426 121.506 195.631 122.688 195.631C123.841 195.631 124.54 196.386 124.54 197.653V203H126.239V197.449C126.239 195.29 125.051 194.159 123.267 194.159C121.955 194.159 121.097 194.767 120.693 195.693H120.585V194.273H118.955V203H120.653V197.818ZM129.017 206.273H130.716V201.642H130.818C131.125 202.199 131.75 203.17 133.341 203.17C135.455 203.17 136.989 201.477 136.989 198.653C136.989 195.824 135.432 194.159 133.324 194.159C131.705 194.159 131.119 195.148 130.818 195.688H130.676V194.273H129.017V206.273ZM130.682 198.636C130.682 196.812 131.477 195.602 132.96 195.602C134.5 195.602 135.273 196.903 135.273 198.636C135.273 200.386 134.477 201.722 132.96 201.722C131.5 201.722 130.682 200.472 130.682 198.636ZM144.92 199.381C144.926 200.864 143.824 201.568 142.869 201.568C141.818 201.568 141.091 200.807 141.091 199.619V194.273H139.392V199.824C139.392 201.989 140.58 203.114 142.256 203.114C143.568 203.114 144.46 202.42 144.864 201.489H144.955V203H146.625V194.273H144.92V199.381ZM153.482 194.273H151.692V192.182H149.993V194.273H148.714V195.636H149.993V200.79C149.987 202.375 151.197 203.142 152.538 203.114C153.078 203.108 153.442 203.006 153.641 202.932L153.334 201.528C153.22 201.551 153.01 201.602 152.737 201.602C152.186 201.602 151.692 201.42 151.692 200.438V195.636H153.482V194.273Z" fill="#1A1A1A"/>
<rect x="113" y="223" width="140" height="40" rx="20" fill="#F2F2F2"/>
<path d="M133.705 238.875H137.33V249H139.08V238.875H142.71V237.364H133.705V238.875ZM147.56 249.176C149.463 249.176 150.81 248.239 151.196 246.818L149.588 246.528C149.281 247.352 148.543 247.773 147.577 247.773C146.122 247.773 145.145 246.83 145.099 245.148H151.304V244.545C151.304 241.392 149.418 240.159 147.44 240.159C145.009 240.159 143.406 242.011 143.406 244.693C143.406 247.403 144.986 249.176 147.56 249.176ZM145.105 243.875C145.173 242.636 146.071 241.562 147.452 241.562C148.77 241.562 149.634 242.54 149.639 243.875H145.105ZM154.827 240.273H152.963L155.645 244.636L152.929 249H154.793L156.753 245.739L158.719 249H160.577L157.832 244.636L160.554 240.273H158.696L156.753 243.67L154.827 240.273ZM166.872 240.273H165.082V238.182H163.384V240.273H162.105V241.636H163.384V246.79C163.378 248.375 164.588 249.142 165.929 249.114C166.469 249.108 166.832 249.006 167.031 248.932L166.724 247.528C166.611 247.551 166.401 247.602 166.128 247.602C165.577 247.602 165.082 247.42 165.082 246.438V241.636H166.872V240.273Z" fill="#999999"/>
<path d="M219.083 236.333V238.833H223.25V248.833H225.75V238.833H229.917V236.333H219.083ZM234.917 240.5H227.417V243H229.917V248.833H232.417V243H234.917V240.5Z" fill="#999999"/>
<rect x="113" y="279" width="140" height="40" rx="20" fill="#F2F2F2"/>
<path d="M135.261 305L136.33 301.92H140.875L141.938 305H143.801L139.614 293.364H137.585L133.398 305H135.261ZM136.841 300.443L138.557 295.477H138.648L140.364 300.443H136.841ZM151.374 301.381C151.379 302.864 150.277 303.568 149.322 303.568C148.271 303.568 147.544 302.807 147.544 301.619V296.273H145.845V301.824C145.845 303.989 147.033 305.114 148.709 305.114C150.021 305.114 150.913 304.42 151.317 303.489H151.408V305H153.078V296.273H151.374V301.381ZM159.128 305.17C160.719 305.17 161.344 304.199 161.651 303.642H161.793V305H163.452V293.364H161.753V297.688H161.651C161.344 297.148 160.764 296.159 159.139 296.159C157.031 296.159 155.48 297.824 155.48 300.653C155.48 303.477 157.009 305.17 159.128 305.17ZM159.503 303.722C157.986 303.722 157.196 302.386 157.196 300.636C157.196 298.903 157.969 297.602 159.503 297.602C160.986 297.602 161.781 298.812 161.781 300.636C161.781 302.472 160.969 303.722 159.503 303.722ZM166.376 305H168.075V296.273H166.376V305ZM167.234 294.926C167.82 294.926 168.308 294.472 168.308 293.915C168.308 293.358 167.82 292.898 167.234 292.898C166.643 292.898 166.161 293.358 166.161 293.915C166.161 294.472 166.643 294.926 167.234 294.926ZM174.537 305.176C176.997 305.176 178.605 303.375 178.605 300.676C178.605 297.96 176.997 296.159 174.537 296.159C172.077 296.159 170.469 297.96 170.469 300.676C170.469 303.375 172.077 305.176 174.537 305.176ZM174.543 303.75C172.935 303.75 172.185 302.347 172.185 300.67C172.185 299 172.935 297.58 174.543 297.58C176.139 297.58 176.889 299 176.889 300.67C176.889 302.347 176.139 303.75 174.543 303.75Z" fill="#999999"/>
<path d="M219.5 296.5V301.5H222.833L227 305.667V292.333L222.833 296.5H219.5ZM225.333 296.358V301.642L223.525 299.833H221.167V298.167H223.525L225.333 296.358ZM230.75 299C230.75 297.525 229.9 296.258 228.667 295.642V302.35C229.9 301.742 230.75 300.475 230.75 299ZM228.667 291.692V293.408C231.075 294.125 232.833 296.358 232.833 299C232.833 301.642 231.075 303.875 228.667 304.592V306.308C232.008 305.55 234.5 302.567 234.5 299C234.5 295.433 232.008 292.45 228.667 291.692V291.692Z" fill="#999999"/>
<rect x="269" y="223" width="140" height="40" rx="20" fill="#F2F2F2"/>
<path d="M292.034 237.364H290.278V249H292.034V237.364ZM294.955 249H296.653V243.619C296.653 242.443 297.477 241.625 298.443 241.625C299.386 241.625 300.04 242.25 300.04 243.199V249H301.733V243.438C301.733 242.386 302.375 241.625 303.483 241.625C304.381 241.625 305.119 242.125 305.119 243.307V249H306.818V243.148C306.818 241.153 305.705 240.159 304.125 240.159C302.869 240.159 301.926 240.761 301.506 241.693H301.415C301.034 240.739 300.233 240.159 299.068 240.159C297.915 240.159 297.057 240.733 296.693 241.693H296.585V240.273H294.955V249ZM312.135 249.193C313.578 249.193 314.391 248.46 314.714 247.807H314.783V249H316.442V243.205C316.442 240.665 314.442 240.159 313.055 240.159C311.476 240.159 310.021 240.795 309.453 242.386L311.05 242.75C311.3 242.131 311.936 241.534 313.078 241.534C314.175 241.534 314.737 242.108 314.737 243.097V243.136C314.737 243.756 314.101 243.744 312.533 243.926C310.879 244.119 309.186 244.551 309.186 246.534C309.186 248.25 310.476 249.193 312.135 249.193ZM312.504 247.83C311.544 247.83 310.851 247.398 310.851 246.557C310.851 245.648 311.658 245.324 312.641 245.193C313.192 245.119 314.499 244.972 314.743 244.727V245.852C314.743 246.886 313.919 247.83 312.504 247.83ZM322.864 252.438C325.085 252.438 326.801 251.42 326.801 249.193V240.273H325.136V241.688H325.011C324.71 241.148 324.108 240.159 322.483 240.159C320.375 240.159 318.824 241.824 318.824 244.602C318.824 247.386 320.409 248.869 322.472 248.869C324.074 248.869 324.693 247.966 325 247.409H325.108V249.125C325.108 250.472 324.17 251.068 322.881 251.068C321.466 251.068 320.915 250.358 320.614 249.875L319.153 250.477C319.614 251.528 320.778 252.438 322.864 252.438ZM322.847 247.46C321.33 247.46 320.54 246.295 320.54 244.58C320.54 242.903 321.312 241.602 322.847 241.602C324.33 241.602 325.125 242.812 325.125 244.58C325.125 246.381 324.312 247.46 322.847 247.46ZM333.341 249.176C335.244 249.176 336.591 248.239 336.977 246.818L335.369 246.528C335.062 247.352 334.324 247.773 333.358 247.773C331.903 247.773 330.926 246.83 330.881 245.148H337.085V244.545C337.085 241.392 335.199 240.159 333.222 240.159C330.79 240.159 329.188 242.011 329.188 244.693C329.188 247.403 330.767 249.176 333.341 249.176ZM330.886 243.875C330.955 242.636 331.852 241.562 333.233 241.562C334.551 241.562 335.415 242.54 335.42 243.875H330.886Z" fill="#999999"/>
<path d="M388.833 237.167V248.833H377.167V237.167H388.833ZM388.833 235.5H377.167C376.25 235.5 375.5 236.25 375.5 237.167V248.833C375.5 249.75 376.25 250.5 377.167 250.5H388.833C389.75 250.5 390.5 249.75 390.5 248.833V237.167C390.5 236.25 389.75 235.5 388.833 235.5ZM384.783 242.883L382.283 246.108L380.5 243.95L378 247.167H388L384.783 242.883Z" fill="#999999"/>
<rect x="269" y="279" width="140" height="40" rx="20" fill="#F2F2F2"/>
<path d="M291.295 293.364H289.398L293.585 305H295.614L299.801 293.364H297.903L294.665 302.841H294.534L291.295 293.364ZM301.845 305H303.544V296.273H301.845V305ZM302.703 294.926C303.288 294.926 303.777 294.472 303.777 293.915C303.777 293.358 303.288 292.898 302.703 292.898C302.112 292.898 301.629 293.358 301.629 293.915C301.629 294.472 302.112 294.926 302.703 294.926ZM309.597 305.17C311.188 305.17 311.812 304.199 312.119 303.642H312.261V305H313.92V293.364H312.222V297.688H312.119C311.812 297.148 311.233 296.159 309.608 296.159C307.5 296.159 305.949 297.824 305.949 300.653C305.949 303.477 307.477 305.17 309.597 305.17ZM309.972 303.722C308.455 303.722 307.665 302.386 307.665 300.636C307.665 298.903 308.438 297.602 309.972 297.602C311.455 297.602 312.25 298.812 312.25 300.636C312.25 302.472 311.438 303.722 309.972 303.722ZM320.607 305.176C322.51 305.176 323.857 304.239 324.243 302.818L322.635 302.528C322.328 303.352 321.589 303.773 320.624 303.773C319.169 303.773 318.192 302.83 318.146 301.148H324.351V300.545C324.351 297.392 322.464 296.159 320.487 296.159C318.055 296.159 316.453 298.011 316.453 300.693C316.453 303.403 318.033 305.176 320.607 305.176ZM318.152 299.875C318.22 298.636 319.118 297.562 320.499 297.562C321.817 297.562 322.68 298.54 322.686 299.875H318.152ZM330.412 305.176C332.872 305.176 334.48 303.375 334.48 300.676C334.48 297.96 332.872 296.159 330.412 296.159C327.952 296.159 326.344 297.96 326.344 300.676C326.344 303.375 327.952 305.176 330.412 305.176ZM330.418 303.75C328.81 303.75 328.06 302.347 328.06 300.67C328.06 299 328.81 297.58 330.418 297.58C332.014 297.58 332.764 299 332.764 300.67C332.764 302.347 332.014 303.75 330.418 303.75Z" fill="#999999"/>
<path d="M380.5 294.833V301.5L386.333 298.167L380.5 294.833ZM390.5 291.5H375.5C374.583 291.5 373.833 292.25 373.833 293.167V303.167C373.833 304.083 374.583 304.833 375.5 304.833H379.667V306.5H386.333V304.833H390.5C391.417 304.833 392.167 304.083 392.167 303.167V293.167C392.167 292.25 391.417 291.5 390.5 291.5ZM390.5 303.167H375.5V293.167H390.5V303.167Z" fill="#999999"/>
</g>
<rect x="81" y="61" width="1440" height="740" rx="4" stroke="#1A1A1A" stroke-width="2"/>
</g>
<rect x="1" y="1" width="896" height="303" rx="8" stroke="#F7F4ED"/>
<defs>
<filter id="filter0_d" x="487" y="144" width="568" height="88" filterUnits="userSpaceOnUse" color-interpolation-filters="sRGB">
<feFlood flood-opacity="0" result="BackgroundImageFix"/>
<feColorMatrix in="SourceAlpha" type="matrix" values="0 0 0 0 0 0 0 0 0 0 0 0 0 0 0 0 0 0 127 0"/>
<feOffset dy="1"/>
<feGaussianBlur stdDeviation="1"/>
<feColorMatrix type="matrix" values="0 0 0 0 0 0 0 0 0 0 0 0 0 0 0 0 0 0 0.05 0"/>
<feBlend mode="normal" in2="BackgroundImageFix" result="effect1_dropShadow"/>
<feBlend mode="normal" in="SourceGraphic" in2="effect1_dropShadow" result="shape"/>
</filter>
<filter id="filter1_d" x="486" y="143" width="570" height="90" filterUnits="userSpaceOnUse" color-interpolation-filters="sRGB">
<feFlood flood-opacity="0" result="BackgroundImageFix"/>
<feColorMatrix in="SourceAlpha" type="matrix" values="0 0 0 0 0 0 0 0 0 0 0 0 0 0 0 0 0 0 127 0"/>
<feOffset dy="1"/>
<feGaussianBlur stdDeviation="1"/>
<feColorMatrix type="matrix" values="0 0 0 0 0 0 0 0 0 0 0 0 0 0 0 0 0 0 0.05 0"/>
<feBlend mode="normal" in2="BackgroundImageFix" result="effect1_dropShadow"/>
<feBlend mode="normal" in="SourceGraphic" in2="effect1_dropShadow" result="shape"/>
</filter>
<filter id="filter2_d" x="487" y="260" width="568" height="88" filterUnits="userSpaceOnUse" color-interpolation-filters="sRGB">
<feFlood flood-opacity="0" result="BackgroundImageFix"/>
<feColorMatrix in="SourceAlpha" type="matrix" values="0 0 0 0 0 0 0 0 0 0 0 0 0 0 0 0 0 0 127 0"/>
<feOffset dy="1"/>
<feGaussianBlur stdDeviation="1"/>
<feColorMatrix type="matrix" values="0 0 0 0 0 0 0 0 0 0 0 0 0 0 0 0 0 0 0.05 0"/>
<feBlend mode="normal" in2="BackgroundImageFix" result="effect1_dropShadow"/>
<feBlend mode="normal" in="SourceGraphic" in2="effect1_dropShadow" result="shape"/>
</filter>
<clipPath id="clip0">
<rect x="1" y="1" width="896" height="303" rx="8" fill="white"/>
</clipPath>
<clipPath id="clip1">
<rect x="81" y="61" width="1440" height="740" rx="4" fill="white"/>
</clipPath>
</defs>
</svg>
