<svg width="358" height="230" viewBox="0 0 358 230" fill="none" xmlns="http://www.w3.org/2000/svg">
<rect opacity="0.3" width="358" height="230" rx="8" fill="#E6E6E6"/>
<path opacity="0.3" d="M175.383 125L176.366 125.983L179 128.617L181.65 125.967L182.616 125H190.666V101.667H167.333V125H175.383ZM175.866 110.2L179 103.333L182.133 110.2L189 113.333L182.133 116.467L179 123.333L175.866 116.467L169 113.333L175.866 110.2V110.2Z" fill="#CF3C3C"/>
<path d="M167.333 128.333H174L179 133.333L184 128.333H190.667C192.5 128.333 194 126.833 194 125V101.667C194 99.8333 192.5 98.3333 190.667 98.3333H167.333C165.5 98.3333 164 99.8333 164 101.667V125C164 126.833 165.5 128.333 167.333 128.333ZM167.333 101.667H190.667V125H182.617L181.633 125.983L179 128.617L176.35 125.967L175.383 125H167.333V101.667ZM179 123.333L182.133 116.467L189 113.333L182.133 110.2L179 103.333L175.867 110.2L169 113.333L175.867 116.467L179 123.333Z" fill="#CF3C3C"/>
</svg>
