<svg width="358" height="230" viewBox="0 0 358 230" fill="none" xmlns="http://www.w3.org/2000/svg">
<rect opacity="0.3" width="358" height="230" rx="8" fill="#E6E6E6"/>
<path opacity="0.3" d="M179 117.167C180.1 117.167 180.983 116.267 180.983 115.167L181 104.833C181 103.733 180.1 102.833 179 102.833C177.9 102.833 177 103.733 177 104.833V115.167C177 116.267 177.9 117.167 179 117.167Z" fill="#CF3C3C"/>
<path d="M179 120C181.766 120 183.983 117.767 183.983 115L184 105C184 102.233 181.766 100 179 100C176.233 100 174 102.233 174 105V115C174 117.767 176.233 120 179 120ZM177 104.833C177 103.733 177.9 102.833 179 102.833C180.1 102.833 181 103.733 181 104.833L180.983 115.167C180.983 116.267 180.1 117.167 179 117.167C177.9 117.167 177 116.267 177 115.167V104.833ZM187.833 115C187.833 120 183.6 123.5 179 123.5C174.4 123.5 170.166 120 170.166 115H167.333C167.333 120.683 171.866 125.383 177.333 126.2V131.667H180.666V126.2C186.133 125.4 190.666 120.7 190.666 115H187.833Z" fill="#CF3C3C"/>
</svg>
