<svg width="358" height="230" viewBox="0 0 358 230" fill="none" xmlns="http://www.w3.org/2000/svg">
<rect opacity="0.3" width="358" height="230" rx="8" fill="#E6E6E6"/>
<path opacity="0.3" d="M167.333 108.333V128.333H190.666V108.333H167.333ZM179 118.333C174.4 118.333 170.666 114.6 170.666 110H174C174 112.767 176.233 115 179 115C181.766 115 184 112.767 184 110H187.333C187.333 114.6 183.6 118.333 179 118.333Z" fill="#CF3C3C"/>
<path d="M187.333 105C187.333 100.4 183.6 96.6667 179 96.6667C174.4 96.6667 170.667 100.4 170.667 105H167.333C165.5 105 164 106.5 164 108.333V128.333C164 130.167 165.5 131.667 167.333 131.667H190.667C192.5 131.667 194 130.167 194 128.333V108.333C194 106.5 192.5 105 190.667 105H187.333ZM179 100C181.767 100 184 102.233 184 105H174C174 102.233 176.233 100 179 100ZM190.667 128.333H167.333V108.333H190.667V128.333ZM179 115C176.233 115 174 112.767 174 110H170.667C170.667 114.6 174.4 118.333 179 118.333C183.6 118.333 187.333 114.6 187.333 110H184C184 112.767 181.767 115 179 115Z" fill="#CF3C3C"/>
</svg>
