<svg width="358" height="230" viewBox="0 0 358 230" fill="none" xmlns="http://www.w3.org/2000/svg">
<rect opacity="0.3" width="358" height="230" rx="8" fill="#E6E6E6"/>
<path opacity="0.3" d="M184 105C178.483 105 174 109.483 174 115C174 120.517 178.483 125 184 125C189.517 125 194 120.517 194 115C194 109.483 189.517 105 184 105Z" fill="#CF3C3C"/>
<path d="M184 101.667C176.634 101.667 170.667 107.633 170.667 115C170.667 122.367 176.634 128.333 184 128.333C191.367 128.333 197.334 122.367 197.334 115C197.334 107.633 191.367 101.667 184 101.667ZM184 125C178.484 125 174 120.517 174 115C174 109.483 178.484 105 184 105C189.517 105 194 109.483 194 115C194 120.517 189.517 125 184 125ZM164 115C164 110.65 166.784 106.95 170.667 105.583V102.1C164.917 103.583 160.667 108.783 160.667 115C160.667 121.217 164.917 126.417 170.667 127.9V124.417C166.784 123.05 164 119.35 164 115V115Z" fill="#CF3C3C"/>
</svg>
