<svg width="358" height="230" viewBox="0 0 358 230" fill="none" xmlns="http://www.w3.org/2000/svg">
<rect opacity="0.3" width="358" height="230" rx="8" fill="#E6E6E6"/>
<path d="M166.5 115C168.801 115 170.666 113.135 170.666 110.833C170.666 108.532 168.801 106.667 166.5 106.667C164.198 106.667 162.333 108.532 162.333 110.833C162.333 113.135 164.198 115 166.5 115Z" fill="#CF3C3C"/>
<path d="M174 108.333C176.301 108.333 178.166 106.468 178.166 104.167C178.166 101.865 176.301 100 174 100C171.698 100 169.833 101.865 169.833 104.167C169.833 106.468 171.698 108.333 174 108.333Z" fill="#CF3C3C"/>
<path d="M184 108.333C186.301 108.333 188.166 106.468 188.166 104.167C188.166 101.865 186.301 100 184 100C181.698 100 179.833 101.865 179.833 104.167C179.833 106.468 181.698 108.333 184 108.333Z" fill="#CF3C3C"/>
<path d="M191.5 115C193.801 115 195.666 113.135 195.666 110.833C195.666 108.532 193.801 106.667 191.5 106.667C189.198 106.667 187.333 108.532 187.333 110.833C187.333 113.135 189.198 115 191.5 115Z" fill="#CF3C3C"/>
<path d="M187.899 119.767C186.449 118.067 185.233 116.617 183.766 114.917C182.999 114.017 182.016 113.117 180.849 112.717C180.666 112.65 180.483 112.6 180.299 112.567C179.883 112.5 179.433 112.5 178.999 112.5C178.566 112.5 178.116 112.5 177.683 112.583C177.499 112.617 177.316 112.667 177.133 112.733C175.966 113.133 174.999 114.033 174.216 114.933C172.766 116.633 171.549 118.083 170.083 119.783C167.899 121.967 165.216 124.383 165.716 127.767C166.199 129.467 167.416 131.15 169.599 131.633C170.816 131.883 174.699 130.9 178.833 130.9H179.133C183.266 130.9 187.149 131.867 188.366 131.633C190.549 131.15 191.766 129.45 192.249 127.767C192.766 124.367 190.083 121.95 187.899 119.767V119.767Z" fill="#CF3C3C"/>
</svg>
