<svg width="787" height="273" viewBox="0 0 787 273" fill="none" xmlns="http://www.w3.org/2000/svg">
<rect x="1" y="1" width="785" height="271" rx="4" fill="white"/>
<path d="M64 1H66V272V272C64.8954 272 64 271.105 64 270V1Z" fill="#F2F2F2"/>
<path d="M98.375 108C101.477 108 103.227 106.071 103.227 102.889C103.227 99.7273 101.477 97.8182 98.5142 97.8182H95.233V108H98.375ZM96.4659 106.906V98.9119H98.4347C100.821 98.9119 102.034 100.423 102.034 102.889C102.034 105.375 100.821 106.906 98.2955 106.906H96.4659ZM108.338 108.159C109.889 108.159 111.023 107.384 111.381 106.23L110.247 105.912C109.949 106.707 109.258 107.105 108.338 107.105C106.961 107.105 106.011 106.215 105.957 104.58H111.5V104.082C111.5 101.239 109.81 100.264 108.219 100.264C106.151 100.264 104.778 101.895 104.778 104.241C104.778 106.588 106.131 108.159 108.338 108.159ZM105.957 103.565C106.036 102.377 106.876 101.318 108.219 101.318C109.491 101.318 110.307 102.273 110.307 103.565H105.957ZM116.685 100.364H114.975V99.5881C114.975 98.8324 115.293 98.4347 116.069 98.4347C116.407 98.4347 116.606 98.5142 116.725 98.554L117.063 97.5398C116.884 97.4602 116.526 97.3409 115.95 97.3409C114.856 97.3409 113.802 97.9972 113.802 99.3097V100.364H112.569V101.358H113.802V108H114.975V101.358H116.685V100.364ZM118.33 108H119.503V100.364H118.33V108ZM118.926 99.0909C119.384 99.0909 119.762 98.733 119.762 98.2955C119.762 97.858 119.384 97.5 118.926 97.5C118.469 97.5 118.091 97.858 118.091 98.2955C118.091 98.733 118.469 99.0909 118.926 99.0909ZM122.825 103.406C122.825 102.074 123.651 101.318 124.774 101.318C125.863 101.318 126.524 102.029 126.524 103.227V108H127.697V103.148C127.697 101.199 126.658 100.264 125.112 100.264C123.959 100.264 123.243 100.781 122.885 101.557H122.786V100.364H121.652V108H122.825V103.406ZM133.043 108.159C134.594 108.159 135.728 107.384 136.086 106.23L134.952 105.912C134.654 106.707 133.963 107.105 133.043 107.105C131.666 107.105 130.716 106.215 130.662 104.58H136.205V104.082C136.205 101.239 134.515 100.264 132.924 100.264C130.856 100.264 129.483 101.895 129.483 104.241C129.483 106.588 130.836 108.159 133.043 108.159ZM130.662 103.565C130.741 102.377 131.581 101.318 132.924 101.318C134.197 101.318 135.012 102.273 135.012 103.565H130.662ZM140.873 108.159C142.345 108.159 142.842 107.244 143.101 106.827H143.24V108H144.373V97.8182H143.2V101.577H143.101C142.842 101.179 142.385 100.264 140.893 100.264C138.964 100.264 137.632 101.795 137.632 104.202C137.632 106.628 138.964 108.159 140.873 108.159ZM141.032 107.105C139.561 107.105 138.805 105.812 138.805 104.182C138.805 102.571 139.541 101.318 141.032 101.318C142.464 101.318 143.22 102.472 143.22 104.182C143.22 105.912 142.444 107.105 141.032 107.105ZM156.867 100.364H155.594L153.486 106.449H153.407L151.299 100.364H150.026L152.85 108H154.043L156.867 100.364ZM160.663 108.179C161.995 108.179 162.691 107.463 162.93 106.966H162.99V108H164.163V102.969C164.163 100.543 162.313 100.264 161.339 100.264C160.186 100.264 158.873 100.662 158.276 102.054L159.39 102.452C159.649 101.895 160.26 101.298 161.379 101.298C162.458 101.298 162.99 101.87 162.99 102.849V102.889C162.99 103.456 162.413 103.406 161.021 103.585C159.604 103.769 158.058 104.082 158.058 105.832C158.058 107.324 159.211 108.179 160.663 108.179ZM160.842 107.125C159.907 107.125 159.231 106.707 159.231 105.892C159.231 104.997 160.046 104.719 160.961 104.599C161.458 104.54 162.791 104.401 162.99 104.162V105.236C162.99 106.19 162.234 107.125 160.842 107.125ZM167.478 97.8182H166.304V108H167.478V97.8182ZM174.439 104.878C174.439 106.31 173.345 106.966 172.47 106.966C171.496 106.966 170.8 106.25 170.8 105.136V100.364H169.627V105.216C169.627 107.165 170.661 108.099 172.093 108.099C173.246 108.099 174.002 107.483 174.36 106.707H174.439V108H175.612V100.364H174.439V104.878ZM180.963 108.159C182.514 108.159 183.648 107.384 184.006 106.23L182.872 105.912C182.574 106.707 181.883 107.105 180.963 107.105C179.586 107.105 178.636 106.215 178.582 104.58H184.125V104.082C184.125 101.239 182.435 100.264 180.844 100.264C178.776 100.264 177.403 101.895 177.403 104.241C177.403 106.588 178.756 108.159 180.963 108.159ZM178.582 103.565C178.661 102.377 179.501 101.318 180.844 101.318C182.116 101.318 182.932 102.273 182.932 103.565H178.582ZM191.021 103.406C191.021 102.074 191.846 101.318 192.969 101.318C194.058 101.318 194.719 102.029 194.719 103.227V108H195.893V103.148C195.893 101.199 194.854 100.264 193.308 100.264C192.154 100.264 191.438 100.781 191.08 101.557H190.981V100.364H189.847V108H191.021V103.406ZM200.284 108.179C201.616 108.179 202.312 107.463 202.551 106.966H202.611V108H203.784V102.969C203.784 100.543 201.934 100.264 200.96 100.264C199.807 100.264 198.494 100.662 197.898 102.054L199.011 102.452C199.27 101.895 199.881 101.298 201 101.298C202.079 101.298 202.611 101.87 202.611 102.849V102.889C202.611 103.456 202.034 103.406 200.642 103.585C199.225 103.769 197.679 104.082 197.679 105.832C197.679 107.324 198.832 108.179 200.284 108.179ZM200.463 107.125C199.528 107.125 198.852 106.707 198.852 105.892C198.852 104.997 199.667 104.719 200.582 104.599C201.079 104.54 202.412 104.401 202.611 104.162V105.236C202.611 106.19 201.855 107.125 200.463 107.125ZM205.925 108H207.099V103.227C207.099 102.109 207.914 101.318 208.829 101.318C209.719 101.318 210.34 101.9 210.34 102.77V108H211.533V103.028C211.533 102.044 212.15 101.318 213.224 101.318C214.059 101.318 214.775 101.761 214.775 102.889V108H215.948V102.889C215.948 101.094 214.984 100.264 213.621 100.264C212.528 100.264 211.727 100.766 211.335 101.557H211.255C210.877 100.741 210.211 100.264 209.207 100.264C208.212 100.264 207.477 100.741 207.158 101.557H207.059V100.364H205.925V108ZM221.295 108.159C222.846 108.159 223.98 107.384 224.338 106.23L223.204 105.912C222.906 106.707 222.215 107.105 221.295 107.105C219.918 107.105 218.968 106.215 218.914 104.58H224.457V104.082C224.457 101.239 222.767 100.264 221.176 100.264C219.108 100.264 217.735 101.895 217.735 104.241C217.735 106.588 219.088 108.159 221.295 108.159ZM218.914 103.565C218.993 102.377 219.833 101.318 221.176 101.318C222.449 101.318 223.264 102.273 223.264 103.565H218.914ZM234.992 104.878C234.992 106.31 233.898 106.966 233.023 106.966C232.049 106.966 231.353 106.25 231.353 105.136V100.364H230.179V105.216C230.179 107.165 231.213 108.099 232.645 108.099C233.799 108.099 234.554 107.483 234.912 106.707H234.992V108H236.165V100.364H234.992V104.878ZM238.314 110.864H239.487V106.827H239.587C239.845 107.244 240.343 108.159 241.814 108.159C243.723 108.159 245.056 106.628 245.056 104.202C245.056 101.795 243.723 100.264 241.794 100.264C240.303 100.264 239.845 101.179 239.587 101.577H239.448V100.364H238.314V110.864ZM239.468 104.182C239.468 102.472 240.223 101.318 241.655 101.318C243.146 101.318 243.882 102.571 243.882 104.182C243.882 105.812 243.127 107.105 241.655 107.105C240.243 107.105 239.468 105.912 239.468 104.182ZM249.729 108.159C251.2 108.159 251.698 107.244 251.956 106.827H252.095V108H253.229V97.8182H252.056V101.577H251.956C251.698 101.179 251.24 100.264 249.749 100.264C247.82 100.264 246.487 101.795 246.487 104.202C246.487 106.628 247.82 108.159 249.729 108.159ZM249.888 107.105C248.416 107.105 247.661 105.812 247.661 104.182C247.661 102.571 248.396 101.318 249.888 101.318C251.32 101.318 252.075 102.472 252.075 104.182C252.075 105.912 251.3 107.105 249.888 107.105ZM257.788 108.179C259.12 108.179 259.816 107.463 260.055 106.966H260.115V108H261.288V102.969C261.288 100.543 259.438 100.264 258.464 100.264C257.311 100.264 255.998 100.662 255.401 102.054L256.515 102.452C256.774 101.895 257.385 101.298 258.504 101.298C259.583 101.298 260.115 101.87 260.115 102.849V102.889C260.115 103.456 259.538 103.406 258.146 103.585C256.729 103.769 255.183 104.082 255.183 105.832C255.183 107.324 256.336 108.179 257.788 108.179ZM257.967 107.125C257.032 107.125 256.356 106.707 256.356 105.892C256.356 104.997 257.171 104.719 258.086 104.599C258.583 104.54 259.916 104.401 260.115 104.162V105.236C260.115 106.19 259.359 107.125 257.967 107.125ZM266.75 100.364H265.12V98.5341H263.946V100.364H262.793V101.358H263.946V106.131C263.946 107.463 265.02 108.099 266.015 108.099C266.452 108.099 266.73 108.02 266.89 107.96L266.651 106.906C266.551 106.926 266.392 106.966 266.134 106.966C265.617 106.966 265.12 106.807 265.12 105.812V101.358H266.75V100.364ZM271.635 108.159C273.186 108.159 274.32 107.384 274.678 106.23L273.544 105.912C273.246 106.707 272.555 107.105 271.635 107.105C270.258 107.105 269.308 106.215 269.254 104.58H274.797V104.082C274.797 101.239 273.107 100.264 271.516 100.264C269.447 100.264 268.075 101.895 268.075 104.241C268.075 106.588 269.428 108.159 271.635 108.159ZM269.254 103.565C269.333 102.377 270.173 101.318 271.516 101.318C272.788 101.318 273.604 102.273 273.604 103.565H269.254ZM279.465 108.159C280.937 108.159 281.434 107.244 281.692 106.827H281.832V108H282.965V97.8182H281.792V101.577H281.692C281.434 101.179 280.977 100.264 279.485 100.264C277.556 100.264 276.224 101.795 276.224 104.202C276.224 106.628 277.556 108.159 279.465 108.159ZM279.624 107.105C278.153 107.105 277.397 105.812 277.397 104.182C277.397 102.571 278.133 101.318 279.624 101.318C281.056 101.318 281.812 102.472 281.812 104.182C281.812 105.912 281.036 107.105 279.624 107.105ZM292.615 100.364H290.905V99.5881C290.905 98.8324 291.223 98.4347 291.999 98.4347C292.337 98.4347 292.536 98.5142 292.655 98.554L292.993 97.5398C292.814 97.4602 292.456 97.3409 291.879 97.3409C290.786 97.3409 289.732 97.9972 289.732 99.3097V100.364H288.499V101.358H289.732V108H290.905V101.358H292.615V100.364ZM294.259 108H295.433V103.168C295.433 102.138 296.248 101.378 297.362 101.378C297.655 101.378 297.874 101.433 298.038 101.517L298.436 100.523C298.197 100.354 297.884 100.244 297.461 100.244C296.536 100.244 295.746 100.761 295.472 101.517H295.393V100.364H294.259V108ZM302.502 108.159C304.57 108.159 305.963 106.588 305.963 104.222C305.963 101.835 304.57 100.264 302.502 100.264C300.434 100.264 299.042 101.835 299.042 104.222C299.042 106.588 300.434 108.159 302.502 108.159ZM302.502 107.105C300.931 107.105 300.215 105.753 300.215 104.222C300.215 102.69 300.931 101.318 302.502 101.318C304.073 101.318 304.789 102.69 304.789 104.222C304.789 105.753 304.073 107.105 302.502 107.105ZM307.754 108H308.927V103.227C308.927 102.109 309.742 101.318 310.657 101.318C311.547 101.318 312.168 101.9 312.168 102.77V108H313.362V103.028C313.362 102.044 313.978 101.318 315.052 101.318C315.887 101.318 316.603 101.761 316.603 102.889V108H317.776V102.889C317.776 101.094 316.812 100.264 315.45 100.264C314.356 100.264 313.555 100.766 313.163 101.557H313.083C312.705 100.741 312.039 100.264 311.035 100.264C310.04 100.264 309.305 100.741 308.987 101.557H308.887V100.364H307.754V108ZM330.794 101.035H332.37C332.027 99.0511 330.332 97.679 328.135 97.679C325.5 97.679 323.576 99.6626 323.576 102.914C323.576 106.136 325.445 108.139 328.204 108.139C330.675 108.139 332.44 106.518 332.44 103.948V102.79H328.438V104.058H330.953C330.919 105.698 329.835 106.737 328.204 106.737C326.409 106.737 325.102 105.38 325.102 102.904C325.102 100.438 326.419 99.081 328.145 99.081C329.497 99.081 330.412 99.8267 330.794 101.035ZM337.562 108.154C339.227 108.154 340.406 107.334 340.744 106.091L339.337 105.837C339.068 106.558 338.422 106.926 337.577 106.926C336.304 106.926 335.449 106.101 335.409 104.629H340.838V104.102C340.838 101.343 339.188 100.264 337.458 100.264C335.33 100.264 333.928 101.885 333.928 104.232C333.928 106.603 335.31 108.154 337.562 108.154ZM335.414 103.516C335.474 102.432 336.259 101.492 337.468 101.492C338.621 101.492 339.377 102.347 339.382 103.516H335.414ZM342.488 108H343.974V103.337C343.974 102.337 344.745 101.616 345.799 101.616C346.107 101.616 346.455 101.671 346.574 101.706V100.284C346.425 100.264 346.132 100.249 345.943 100.249C345.048 100.249 344.282 100.756 344.004 101.577H343.924V100.364H342.488V108ZM347.861 108H349.347V103.292C349.347 102.263 350.068 101.547 350.913 101.547C351.738 101.547 352.31 102.094 352.31 102.924V108H353.792V103.133C353.792 102.213 354.354 101.547 355.323 101.547C356.108 101.547 356.755 101.984 356.755 103.018V108H358.241V102.879C358.241 101.134 357.267 100.264 355.885 100.264C354.786 100.264 353.961 100.791 353.593 101.607H353.513C353.18 100.771 352.479 100.264 351.46 100.264C350.451 100.264 349.7 100.766 349.382 101.607H349.287V100.364H347.861V108ZM362.456 108.169C363.719 108.169 364.43 107.528 364.713 106.956H364.773V108H366.224V102.929C366.224 100.707 364.474 100.264 363.261 100.264C361.879 100.264 360.607 100.821 360.109 102.213L361.506 102.531C361.725 101.989 362.282 101.467 363.281 101.467C364.241 101.467 364.733 101.969 364.733 102.835V102.869C364.733 103.411 364.176 103.401 362.804 103.56C361.357 103.729 359.876 104.107 359.876 105.842C359.876 107.344 361.004 108.169 362.456 108.169ZM362.779 106.976C361.939 106.976 361.332 106.598 361.332 105.862C361.332 105.067 362.038 104.783 362.898 104.669C363.381 104.604 364.524 104.475 364.738 104.261V105.246C364.738 106.151 364.017 106.976 362.779 106.976ZM369.691 103.466C369.691 102.248 370.437 101.552 371.471 101.552C372.48 101.552 373.091 102.213 373.091 103.322V108H374.578V103.143C374.578 101.254 373.539 100.264 371.978 100.264C370.829 100.264 370.079 100.796 369.726 101.607H369.631V100.364H368.204V108H369.691V103.466ZM377.183 110.968C378.416 110.968 379.216 110.302 379.649 109.114L382.831 100.364H381.235L379.301 106.29H379.221L377.287 100.364H375.697L378.491 108.099L378.272 108.701C377.899 109.695 377.367 109.78 376.547 109.561L376.189 110.794C376.348 110.869 376.721 110.968 377.183 110.968ZM391.328 100.364H389.698V98.5341H388.525V100.364H387.371V101.358H388.525V106.131C388.525 107.463 389.598 108.099 390.593 108.099C391.03 108.099 391.309 108.02 391.468 107.96L391.229 106.906C391.13 106.926 390.971 106.966 390.712 106.966C390.195 106.966 389.698 106.807 389.698 105.812V101.358H391.328V100.364ZM396.114 108.159C398.182 108.159 399.574 106.588 399.574 104.222C399.574 101.835 398.182 100.264 396.114 100.264C394.045 100.264 392.653 101.835 392.653 104.222C392.653 106.588 394.045 108.159 396.114 108.159ZM396.114 107.105C394.543 107.105 393.827 105.753 393.827 104.222C393.827 102.69 394.543 101.318 396.114 101.318C397.685 101.318 398.401 102.69 398.401 104.222C398.401 105.753 397.685 107.105 396.114 107.105ZM413.804 101.129C413.456 98.9517 411.751 97.679 409.598 97.679C406.963 97.679 405.019 99.6527 405.019 102.909C405.019 106.165 406.953 108.139 409.598 108.139C411.835 108.139 413.471 106.737 413.804 104.724L412.253 104.719C411.989 106.021 410.895 106.737 409.608 106.737C407.863 106.737 406.545 105.4 406.545 102.909C406.545 100.438 407.858 99.081 409.613 99.081C410.91 99.081 411.999 99.8118 412.253 101.129H413.804ZM418.739 108.154C420.892 108.154 422.299 106.578 422.299 104.217C422.299 101.84 420.892 100.264 418.739 100.264C416.587 100.264 415.18 101.84 415.18 104.217C415.18 106.578 416.587 108.154 418.739 108.154ZM418.744 106.906C417.337 106.906 416.681 105.678 416.681 104.212C416.681 102.75 417.337 101.507 418.744 101.507C420.141 101.507 420.798 102.75 420.798 104.212C420.798 105.678 420.141 106.906 418.744 106.906ZM428.796 104.833C428.801 106.131 427.836 106.747 427.001 106.747C426.081 106.747 425.445 106.081 425.445 105.042V100.364H423.958V105.221C423.958 107.115 424.997 108.099 426.464 108.099C427.612 108.099 428.393 107.493 428.746 106.678H428.825V108H430.287V100.364H428.796V104.833ZM433.771 103.466C433.771 102.248 434.517 101.552 435.551 101.552C436.56 101.552 437.172 102.213 437.172 103.322V108H438.658V103.143C438.658 101.254 437.619 100.264 436.058 100.264C434.909 100.264 434.159 100.796 433.806 101.607H433.711V100.364H432.284V108H433.771V103.466ZM444.216 100.364H442.65V98.5341H441.164V100.364H440.045V101.557H441.164V106.066C441.159 107.453 442.218 108.124 443.391 108.099C443.863 108.094 444.181 108.005 444.355 107.94L444.087 106.712C443.988 106.732 443.804 106.777 443.565 106.777C443.083 106.777 442.65 106.618 442.65 105.758V101.557H444.216V100.364ZM445.861 108H447.347V103.337C447.347 102.337 448.118 101.616 449.172 101.616C449.48 101.616 449.828 101.671 449.947 101.706V100.284C449.798 100.264 449.505 100.249 449.316 100.249C448.421 100.249 447.655 100.756 447.377 101.577H447.297V100.364H445.861V108ZM452.351 110.968C453.584 110.968 454.384 110.302 454.817 109.114L457.999 100.364H456.403L454.469 106.29H454.389L452.455 100.364H450.865L453.659 108.099L453.44 108.701C453.067 109.695 452.535 109.78 451.715 109.561L451.357 110.794C451.516 110.869 451.889 110.968 452.351 110.968ZM463.895 103.053H459.381V104.341H463.895V103.053ZM472.886 101.035H474.462C474.119 99.0511 472.424 97.679 470.226 97.679C467.591 97.679 465.667 99.6626 465.667 102.914C465.667 106.136 467.537 108.139 470.296 108.139C472.767 108.139 474.532 106.518 474.532 103.948V102.79H470.53V104.058H473.045C473.01 105.698 471.927 106.737 470.296 106.737C468.501 106.737 467.194 105.38 467.194 102.904C467.194 100.438 468.511 99.081 470.236 99.081C471.589 99.081 472.503 99.8267 472.886 101.035ZM479.654 108.154C481.319 108.154 482.498 107.334 482.836 106.091L481.429 105.837C481.16 106.558 480.514 106.926 479.669 106.926C478.396 106.926 477.541 106.101 477.501 104.629H482.93V104.102C482.93 101.343 481.279 100.264 479.549 100.264C477.422 100.264 476.02 101.885 476.02 104.232C476.02 106.603 477.402 108.154 479.654 108.154ZM477.506 103.516C477.566 102.432 478.351 101.492 479.559 101.492C480.713 101.492 481.468 102.347 481.473 103.516H477.506ZM484.579 108H486.066V103.337C486.066 102.337 486.836 101.616 487.89 101.616C488.199 101.616 488.547 101.671 488.666 101.706V100.284C488.517 100.264 488.224 100.249 488.035 100.249C487.14 100.249 486.374 100.756 486.096 101.577H486.016V100.364H484.579V108ZM489.952 108H491.439V103.292C491.439 102.263 492.16 101.547 493.005 101.547C493.83 101.547 494.402 102.094 494.402 102.924V108H495.884V103.133C495.884 102.213 496.445 101.547 497.415 101.547C498.2 101.547 498.847 101.984 498.847 103.018V108H500.333V102.879C500.333 101.134 499.359 100.264 497.977 100.264C496.878 100.264 496.053 100.791 495.685 101.607H495.605C495.272 100.771 494.571 100.264 493.552 100.264C492.543 100.264 491.792 100.766 491.474 101.607H491.379V100.364H489.952V108ZM504.548 108.169C505.811 108.169 506.521 107.528 506.805 106.956H506.865V108H508.316V102.929C508.316 100.707 506.566 100.264 505.353 100.264C503.971 100.264 502.698 100.821 502.201 102.213L503.598 102.531C503.817 101.989 504.374 101.467 505.373 101.467C506.333 101.467 506.825 101.969 506.825 102.835V102.869C506.825 103.411 506.268 103.401 504.896 103.56C503.449 103.729 501.968 104.107 501.968 105.842C501.968 107.344 503.096 108.169 504.548 108.169ZM504.871 106.976C504.031 106.976 503.424 106.598 503.424 105.862C503.424 105.067 504.13 104.783 504.99 104.669C505.472 104.604 506.616 104.475 506.83 104.261V105.246C506.83 106.151 506.109 106.976 504.871 106.976ZM511.783 103.466C511.783 102.248 512.528 101.552 513.562 101.552C514.572 101.552 515.183 102.213 515.183 103.322V108H516.67V103.143C516.67 101.254 515.631 100.264 514.07 100.264C512.921 100.264 512.17 100.796 511.817 101.607H511.723V100.364H510.296V108H511.783V103.466ZM519.275 110.968C520.508 110.968 521.308 110.302 521.741 109.114L524.923 100.364H523.327L521.393 106.29H521.313L519.379 100.364H517.788L520.582 108.099L520.364 108.701C519.991 109.695 519.459 109.78 518.638 109.561L518.281 110.794C518.44 110.869 518.812 110.968 519.275 110.968Z" fill="#1A1A1A"/>
<path d="M94.8395 131H100.584V129.871H96.6548V129.807L98.3892 127.991C99.9872 126.376 100.443 125.605 100.443 124.629C100.443 123.227 99.3011 122.153 97.6562 122.153C96.0241 122.153 94.831 123.21 94.831 124.804H96.0881C96.0838 123.866 96.6889 123.253 97.6307 123.253C98.517 123.253 99.1903 123.798 99.1903 124.668C99.1903 125.439 98.7301 125.993 97.7926 126.986L94.8395 130.045V131ZM102.493 131H103.869L107.666 123.44V122.273H101.896V123.402H106.303V123.466L102.493 131ZM115.835 122.273V128.46C115.831 129.466 115.362 130.003 114.527 130.003C113.756 130.003 113.219 129.543 113.214 128.818H111.906C111.906 130.293 113.014 131.119 114.493 131.119C116.095 131.119 117.143 130.139 117.148 128.46V122.273H115.835ZM123.108 128.286C123.113 129.398 122.286 129.926 121.57 129.926C120.782 129.926 120.236 129.355 120.236 128.464V124.455H118.962V128.618C118.962 130.241 119.853 131.085 121.11 131.085C122.094 131.085 122.763 130.565 123.066 129.866H123.134V131H124.387V124.455H123.108V128.286ZM127.373 122.273H126.099V131H127.373V122.273ZM129.846 133.544C130.902 133.544 131.588 132.973 131.959 131.955L134.686 124.455H133.319L131.661 129.534H131.593L129.935 124.455H128.571L130.966 131.085L130.779 131.601C130.459 132.453 130.003 132.526 129.3 132.338L128.993 133.395C129.13 133.459 129.449 133.544 129.846 133.544ZM139.043 131H144.787V129.871H140.858V129.807L142.592 127.991C144.19 126.376 144.646 125.605 144.646 124.629C144.646 123.227 143.504 122.153 141.859 122.153C140.227 122.153 139.034 123.21 139.034 124.804H140.291C140.287 123.866 140.892 123.253 141.834 123.253C142.72 123.253 143.393 123.798 143.393 124.668C143.393 125.439 142.933 125.993 141.996 126.986L139.043 130.045V131ZM149.44 131.145C151.456 131.145 152.636 129.5 152.636 126.641C152.636 123.803 151.439 122.153 149.44 122.153C147.438 122.153 146.244 123.798 146.24 126.641C146.24 129.496 147.42 131.141 149.44 131.145ZM149.44 130.007C148.26 130.007 147.548 128.822 147.548 126.641C147.553 124.467 148.264 123.27 149.44 123.27C150.612 123.27 151.328 124.467 151.328 126.641C151.328 128.822 150.616 130.007 149.44 130.007ZM157.216 122.273H155.989C155.942 122.511 155.277 123.615 154.003 123.615V124.697C154.992 124.697 155.678 124.305 155.823 124.05H155.895V131H157.216V122.273ZM162.476 122.132C160.643 122.119 159.446 123.432 159.446 125.102C159.446 126.773 160.656 127.974 162.169 127.974C163.094 127.974 163.886 127.523 164.334 126.79H164.402C164.398 128.797 163.643 129.969 162.365 129.969C161.53 129.969 160.993 129.457 160.822 128.712H159.523C159.714 130.122 160.805 131.119 162.365 131.119C164.393 131.119 165.659 129.376 165.663 126.321C165.659 123.112 164.031 122.145 162.476 122.132ZM162.48 123.24C163.49 123.24 164.236 124.097 164.236 125.072C164.236 126.048 163.452 126.901 162.455 126.901C161.453 126.901 160.724 126.099 160.724 125.085C160.724 124.054 161.479 123.24 162.48 123.24ZM173.674 131H174.918V129.982H175.025C175.255 130.399 175.723 131.128 176.917 131.128C178.502 131.128 179.652 129.858 179.652 127.74C179.652 125.618 178.485 124.369 176.904 124.369C175.689 124.369 175.25 125.111 175.025 125.516H174.948V122.273H173.674V131ZM174.922 127.727C174.922 126.359 175.519 125.452 176.631 125.452C177.786 125.452 178.365 126.428 178.365 127.727C178.365 129.04 177.769 130.041 176.631 130.041C175.536 130.041 174.922 129.104 174.922 127.727ZM181.607 133.544C182.664 133.544 183.35 132.973 183.721 131.955L186.448 124.455H185.08L183.423 129.534H183.354L181.697 124.455H180.333L182.728 131.085L182.54 131.601C182.221 132.453 181.765 132.526 181.062 132.338L180.755 133.395C180.891 133.459 181.211 133.544 181.607 133.544ZM194.316 122.273V128.46C194.311 129.466 193.843 130.003 193.007 130.003C192.236 130.003 191.699 129.543 191.695 128.818H190.387C190.387 130.293 191.495 131.119 192.973 131.119C194.576 131.119 195.624 130.139 195.628 128.46V122.273H194.316ZM199.347 131.145C200.43 131.145 201.039 130.595 201.282 130.105H201.333V131H202.577V126.653C202.577 124.749 201.077 124.369 200.038 124.369C198.853 124.369 197.762 124.847 197.336 126.04L198.533 126.312C198.721 125.848 199.198 125.401 200.055 125.401C200.877 125.401 201.299 125.831 201.299 126.572V126.602C201.299 127.067 200.822 127.058 199.646 127.195C198.406 127.339 197.136 127.663 197.136 129.151C197.136 130.438 198.103 131.145 199.347 131.145ZM199.624 130.122C198.904 130.122 198.384 129.798 198.384 129.168C198.384 128.486 198.989 128.243 199.727 128.145C200.14 128.089 201.12 127.979 201.303 127.795V128.639C201.303 129.415 200.685 130.122 199.624 130.122ZM209.179 126.053C208.915 125.034 208.118 124.369 206.703 124.369C205.225 124.369 204.176 125.149 204.176 126.308C204.176 127.237 204.739 127.855 205.966 128.128L207.074 128.371C207.705 128.511 207.999 128.793 207.999 129.202C207.999 129.709 207.458 130.105 206.623 130.105C205.86 130.105 205.37 129.777 205.216 129.134L203.985 129.321C204.198 130.48 205.161 131.132 206.631 131.132C208.212 131.132 209.307 130.293 209.307 129.108C209.307 128.183 208.719 127.612 207.517 127.335L206.478 127.097C205.757 126.926 205.446 126.683 205.451 126.24C205.446 125.737 205.992 125.379 206.716 125.379C207.509 125.379 207.875 125.818 208.025 126.257L209.179 126.053ZM213.465 131.132C215.31 131.132 216.516 129.781 216.516 127.757C216.516 125.72 215.31 124.369 213.465 124.369C211.62 124.369 210.414 125.72 210.414 127.757C210.414 129.781 211.62 131.132 213.465 131.132ZM213.469 130.062C212.263 130.062 211.701 129.01 211.701 127.753C211.701 126.5 212.263 125.435 213.469 125.435C214.667 125.435 215.229 126.5 215.229 127.753C215.229 129.01 214.667 130.062 213.469 130.062ZM219.213 127.114C219.213 126.07 219.852 125.473 220.738 125.473C221.603 125.473 222.127 126.04 222.127 126.99V131H223.402V126.837C223.402 125.217 222.511 124.369 221.173 124.369C220.189 124.369 219.545 124.825 219.243 125.52H219.162V124.455H217.939V131H219.213V127.114ZM231.214 131C233.873 131 235.411 129.351 235.411 126.624C235.411 123.909 233.873 122.273 231.303 122.273H228.388V131H231.214ZM229.705 129.849V123.423H231.222C233.131 123.423 234.116 124.565 234.116 126.624C234.116 128.69 233.131 129.849 231.141 129.849H229.705ZM239.703 131.132C241.549 131.132 242.755 129.781 242.755 127.757C242.755 125.72 241.549 124.369 239.703 124.369C237.858 124.369 236.652 125.72 236.652 127.757C236.652 129.781 237.858 131.132 239.703 131.132ZM239.708 130.062C238.502 130.062 237.939 129.01 237.939 127.753C237.939 126.5 238.502 125.435 239.708 125.435C240.905 125.435 241.468 126.5 241.468 127.753C241.468 129.01 240.905 130.062 239.708 130.062ZM246.998 131.132C248.425 131.132 249.435 130.429 249.725 129.364L248.519 129.146C248.289 129.764 247.735 130.08 247.011 130.08C245.92 130.08 245.187 129.372 245.153 128.111H249.806V127.659C249.806 125.294 248.391 124.369 246.908 124.369C245.085 124.369 243.883 125.759 243.883 127.77C243.883 129.803 245.067 131.132 246.998 131.132ZM245.157 127.156C245.208 126.227 245.881 125.422 246.917 125.422C247.906 125.422 248.553 126.155 248.558 127.156H245.157Z" fill="#999999"/>
<rect x="94" y="61" width="94" height="20" rx="3" fill="#E7D9F2"/>
<path d="M108.033 66.2727H106.46V72.2216H106.384L102.276 66.2727H100.861V75H102.442V69.0554H102.514L106.626 75H108.033V66.2727ZM111.571 75.1321C112.598 75.1321 113.211 74.6506 113.493 74.1009H113.544V75H115.027V70.6193C115.027 68.8892 113.616 68.3693 112.368 68.3693C110.991 68.3693 109.934 68.983 109.593 70.1761L111.034 70.3807C111.187 69.9332 111.622 69.5497 112.376 69.5497C113.092 69.5497 113.484 69.9162 113.484 70.5597V70.5852C113.484 71.0284 113.02 71.0497 111.865 71.1733C110.595 71.3097 109.38 71.6889 109.38 73.1634C109.38 74.4503 110.322 75.1321 111.571 75.1321ZM111.971 73.9986C111.328 73.9986 110.868 73.7045 110.868 73.1378C110.868 72.5455 111.383 72.2983 112.074 72.2003C112.478 72.1449 113.288 72.0426 113.488 71.8807V72.652C113.488 73.3807 112.9 73.9986 111.971 73.9986ZM116.578 75H118.12V71.0199C118.12 70.2145 118.657 69.669 119.322 69.669C119.974 69.669 120.422 70.108 120.422 70.7812V75H121.934V70.9176C121.934 70.1804 122.373 69.669 123.119 69.669C123.741 69.669 124.235 70.0355 124.235 70.8452V75H125.782V70.6065C125.782 69.1449 124.939 68.3693 123.737 68.3693C122.787 68.3693 122.062 68.8381 121.772 69.5668H121.704C121.453 68.8253 120.818 68.3693 119.936 68.3693C119.058 68.3693 118.402 68.821 118.129 69.5668H118.052V68.4545H116.578V75ZM130.245 75.1278C131.771 75.1278 132.819 74.3821 133.092 73.2443L131.651 73.0824C131.442 73.6364 130.931 73.9261 130.266 73.9261C129.269 73.9261 128.609 73.2699 128.596 72.1491H133.156V71.6761C133.156 69.3793 131.775 68.3693 130.164 68.3693C128.289 68.3693 127.066 69.7457 127.066 71.7656C127.066 73.8196 128.272 75.1278 130.245 75.1278ZM128.6 71.1094C128.647 70.2741 129.265 69.571 130.185 69.571C131.072 69.571 131.668 70.2188 131.677 71.1094H128.6ZM144.975 69.2173C144.707 67.2784 143.216 66.1534 141.281 66.1534C139.001 66.1534 137.284 67.8153 137.284 70.6364C137.284 73.4531 138.98 75.1193 141.281 75.1193C143.356 75.1193 144.733 73.777 144.975 72.1108L143.382 72.1023C143.181 73.125 142.346 73.7003 141.302 73.7003C139.887 73.7003 138.873 72.6392 138.873 70.6364C138.873 68.6676 139.879 67.5724 141.306 67.5724C142.368 67.5724 143.199 68.1733 143.382 69.2173H144.975ZM147.898 71.1648C147.898 70.2188 148.486 69.6733 149.312 69.6733C150.122 69.6733 150.599 70.1889 150.599 71.071V75H152.142V70.8324C152.142 69.2514 151.247 68.3693 149.888 68.3693C148.882 68.3693 148.243 68.8253 147.94 69.5668H147.864V66.2727H146.355V75H147.898V71.1648ZM155.598 75.1321C156.625 75.1321 157.239 74.6506 157.52 74.1009H157.571V75H159.054V70.6193C159.054 68.8892 157.643 68.3693 156.395 68.3693C155.018 68.3693 153.962 68.983 153.621 70.1761L155.061 70.3807C155.214 69.9332 155.649 69.5497 156.403 69.5497C157.119 69.5497 157.511 69.9162 157.511 70.5597V70.5852C157.511 71.0284 157.047 71.0497 155.892 71.1733C154.622 71.3097 153.408 71.6889 153.408 73.1634C153.408 74.4503 154.349 75.1321 155.598 75.1321ZM155.999 73.9986C155.355 73.9986 154.895 73.7045 154.895 73.1378C154.895 72.5455 155.411 72.2983 156.101 72.2003C156.506 72.1449 157.315 72.0426 157.516 71.8807V72.652C157.516 73.3807 156.928 73.9986 155.999 73.9986ZM162.148 71.1648C162.148 70.2188 162.719 69.6733 163.533 69.6733C164.33 69.6733 164.807 70.1974 164.807 71.071V75H166.349V70.8324C166.354 69.2642 165.459 68.3693 164.108 68.3693C163.128 68.3693 162.455 68.8381 162.156 69.5668H162.08V68.4545H160.605V75H162.148V71.1648ZM170.764 77.5653C172.533 77.5653 173.837 76.7557 173.837 75.1065V68.4545H172.315V69.5369H172.23C171.996 69.0639 171.506 68.3693 170.351 68.3693C168.838 68.3693 167.649 69.554 167.649 71.706C167.649 73.8409 168.838 74.9062 170.347 74.9062C171.467 74.9062 171.991 74.3054 172.23 73.8239H172.307V75.0639C172.307 76.0014 171.668 76.3977 170.79 76.3977C169.861 76.3977 169.452 75.9588 169.264 75.6009L167.875 75.9375C168.156 76.8281 169.098 77.5653 170.764 77.5653ZM170.777 73.696C169.759 73.696 169.222 72.9034 169.222 71.6974C169.222 70.5085 169.75 69.6349 170.777 69.6349C171.77 69.6349 172.315 70.4574 172.315 71.6974C172.315 72.946 171.761 73.696 170.777 73.696ZM178.315 75.1278C179.841 75.1278 180.889 74.3821 181.162 73.2443L179.722 73.0824C179.513 73.6364 179.001 73.9261 178.337 73.9261C177.339 73.9261 176.679 73.2699 176.666 72.1491H181.226V71.6761C181.226 69.3793 179.845 68.3693 178.234 68.3693C176.359 68.3693 175.136 69.7457 175.136 71.7656C175.136 73.8196 176.342 75.1278 178.315 75.1278ZM176.67 71.1094C176.717 70.2741 177.335 69.571 178.256 69.571C179.142 69.571 179.739 70.2188 179.747 71.1094H176.67Z" fill="#6C3498"/>
<rect x="94.5" y="150.5" width="631" height="60" rx="3.5" fill="#FAFAFA"/>
<path d="M111.057 174H112.114V170.812H114.023C116.055 170.812 116.972 169.577 116.972 168.034C116.972 166.491 116.055 165.273 114.006 165.273H111.057V174ZM112.114 169.875V166.21H113.972C115.391 166.21 115.932 166.986 115.932 168.034C115.932 169.082 115.391 169.875 113.989 169.875H112.114ZM122.663 171.324C122.663 172.551 121.725 173.114 120.975 173.114C120.14 173.114 119.543 172.5 119.543 171.545V167.455H118.538V171.614C118.538 173.284 119.424 174.085 120.651 174.085C121.64 174.085 122.288 173.557 122.594 172.892H122.663V174H123.668V167.455H122.663V171.324ZM125.647 174H126.618V172.994H126.738C126.959 173.352 127.385 174.136 128.647 174.136C130.283 174.136 131.425 172.824 131.425 170.744C131.425 168.682 130.283 167.369 128.63 167.369C127.351 167.369 126.959 168.153 126.738 168.494H126.652V165.273H125.647V174ZM126.635 170.727C126.635 169.261 127.283 168.273 128.51 168.273C129.789 168.273 130.419 169.347 130.419 170.727C130.419 172.125 129.772 173.233 128.51 173.233C127.3 173.233 126.635 172.21 126.635 170.727ZM133.969 165.273H132.963V174H133.969V165.273ZM135.811 174H136.817V167.455H135.811V174ZM136.322 166.364C136.714 166.364 137.038 166.057 137.038 165.682C137.038 165.307 136.714 165 136.322 165C135.93 165 135.607 165.307 135.607 165.682C135.607 166.057 135.93 166.364 136.322 166.364ZM143.295 168.92C142.98 167.991 142.272 167.369 140.977 167.369C139.596 167.369 138.574 168.153 138.574 169.261C138.574 170.165 139.11 170.77 140.312 171.051L141.403 171.307C142.064 171.46 142.375 171.776 142.375 172.227C142.375 172.79 141.778 173.25 140.841 173.25C140.018 173.25 139.502 172.896 139.324 172.193L138.369 172.432C138.603 173.544 139.52 174.136 140.858 174.136C142.379 174.136 143.414 173.305 143.414 172.176C143.414 171.264 142.843 170.689 141.676 170.403L140.704 170.165C139.929 169.973 139.579 169.713 139.579 169.21C139.579 168.648 140.176 168.239 140.977 168.239C141.855 168.239 142.217 168.724 142.392 169.176L143.295 168.92ZM145.934 170.062C145.934 168.92 146.663 168.273 147.656 168.273C148.602 168.273 149.173 168.869 149.173 169.909V174H150.178V169.841C150.178 168.158 149.283 167.369 147.945 167.369C146.914 167.369 146.326 167.8 146.019 168.477H145.934V165.273H144.928V174H145.934V170.062ZM156.399 170.062C156.399 168.92 157.106 168.273 158.069 168.273C159.002 168.273 159.569 168.882 159.569 169.909V174H160.575V169.841C160.575 168.17 159.684 167.369 158.359 167.369C157.37 167.369 156.757 167.812 156.45 168.477H156.365V167.455H155.393V174H156.399V170.062ZM165.072 174.136C166.844 174.136 168.038 172.79 168.038 170.761C168.038 168.716 166.844 167.369 165.072 167.369C163.299 167.369 162.106 168.716 162.106 170.761C162.106 172.79 163.299 174.136 165.072 174.136ZM165.072 173.233C163.725 173.233 163.112 172.074 163.112 170.761C163.112 169.449 163.725 168.273 165.072 168.273C166.418 168.273 167.032 169.449 167.032 170.761C167.032 172.074 166.418 173.233 165.072 173.233ZM172.419 167.455H171.022V165.886H170.016V167.455H169.027V168.307H170.016V172.398C170.016 173.54 170.936 174.085 171.789 174.085C172.164 174.085 172.402 174.017 172.539 173.966L172.334 173.062C172.249 173.08 172.113 173.114 171.891 173.114C171.448 173.114 171.022 172.977 171.022 172.125V168.307H172.419V167.455ZM176.606 174.136C177.936 174.136 178.907 173.472 179.214 172.483L178.243 172.21C177.987 172.892 177.395 173.233 176.606 173.233C175.426 173.233 174.612 172.47 174.565 171.068H179.316V170.642C179.316 168.205 177.868 167.369 176.504 167.369C174.731 167.369 173.555 168.767 173.555 170.778C173.555 172.79 174.714 174.136 176.606 174.136ZM174.565 170.199C174.633 169.18 175.353 168.273 176.504 168.273C177.595 168.273 178.294 169.091 178.294 170.199H174.565Z" fill="#999999"/>
<path d="M110.676 186.912H113.878V196H115.111V186.912H118.312V185.818H110.676V186.912ZM121.23 191.406C121.23 190.074 122.08 189.318 123.238 189.318C124.342 189.318 125.008 190.014 125.008 191.227V196H126.181V191.148C126.181 189.184 125.137 188.264 123.576 188.264C122.373 188.264 121.687 188.766 121.329 189.557H121.23V185.818H120.056V196H121.23V191.406ZM128.328 196H129.501V188.364H128.328V196ZM128.924 187.091C129.382 187.091 129.76 186.733 129.76 186.295C129.76 185.858 129.382 185.5 128.924 185.5C128.467 185.5 128.089 185.858 128.089 186.295C128.089 186.733 128.467 187.091 128.924 187.091ZM137.059 190.074C136.691 188.99 135.866 188.264 134.355 188.264C132.744 188.264 131.551 189.179 131.551 190.472C131.551 191.526 132.177 192.232 133.579 192.56L134.852 192.858C135.622 193.037 135.985 193.405 135.985 193.932C135.985 194.588 135.289 195.125 134.195 195.125C133.236 195.125 132.634 194.712 132.426 193.892L131.312 194.17C131.585 195.468 132.654 196.159 134.215 196.159C135.99 196.159 137.198 195.19 137.198 193.872C137.198 192.808 136.532 192.137 135.17 191.804L134.036 191.526C133.132 191.302 132.724 190.999 132.724 190.412C132.724 189.756 133.42 189.278 134.355 189.278C135.379 189.278 135.801 189.845 136.005 190.372L137.059 190.074ZM146.004 196.159C147.695 196.159 148.808 195.125 149.007 193.773H147.834C147.615 194.608 146.919 195.105 146.004 195.105C144.612 195.105 143.717 193.952 143.717 192.182C143.717 190.452 144.632 189.318 146.004 189.318C147.038 189.318 147.655 189.955 147.834 190.651H149.007C148.808 189.219 147.595 188.264 145.984 188.264C143.916 188.264 142.544 189.895 142.544 192.222C142.544 194.509 143.857 196.159 146.004 196.159ZM151.896 191.406C151.896 190.074 152.746 189.318 153.904 189.318C155.008 189.318 155.674 190.014 155.674 191.227V196H156.847V191.148C156.847 189.184 155.803 188.264 154.242 188.264C153.039 188.264 152.353 188.766 151.995 189.557H151.896V185.818H150.722V196H151.896V191.406ZM161.241 196.179C162.573 196.179 163.269 195.463 163.508 194.966H163.568V196H164.741V190.969C164.741 188.543 162.892 188.264 161.917 188.264C160.764 188.264 159.451 188.662 158.855 190.054L159.968 190.452C160.227 189.895 160.838 189.298 161.957 189.298C163.036 189.298 163.568 189.87 163.568 190.849V190.889C163.568 191.456 162.991 191.406 161.599 191.585C160.182 191.769 158.636 192.082 158.636 193.832C158.636 195.324 159.789 196.179 161.241 196.179ZM161.42 195.125C160.485 195.125 159.809 194.707 159.809 193.892C159.809 192.997 160.624 192.719 161.539 192.599C162.036 192.54 163.369 192.401 163.568 192.162V193.236C163.568 194.19 162.812 195.125 161.42 195.125ZM168.056 191.406C168.056 190.074 168.881 189.318 170.005 189.318C171.093 189.318 171.755 190.029 171.755 191.227V196H172.928V191.148C172.928 189.199 171.889 188.264 170.343 188.264C169.189 188.264 168.473 188.781 168.115 189.557H168.016V188.364H166.882V196H168.056V191.406ZM178.154 199.023C179.984 199.023 181.455 198.188 181.455 196.219V188.364H180.322V189.577H180.203C179.944 189.179 179.467 188.264 177.975 188.264C176.046 188.264 174.714 189.795 174.714 192.142C174.714 194.528 176.106 195.881 177.955 195.881C179.447 195.881 179.924 195.006 180.183 194.588H180.282V196.139C180.282 197.412 179.387 197.989 178.154 197.989C176.767 197.989 176.28 197.258 175.967 196.835L175.032 197.491C175.509 198.292 176.449 199.023 178.154 199.023ZM178.115 194.827C176.643 194.827 175.887 193.713 175.887 192.122C175.887 190.571 176.623 189.318 178.115 189.318C179.546 189.318 180.302 190.472 180.302 192.122C180.302 193.812 179.526 194.827 178.115 194.827ZM186.805 196.159C188.356 196.159 189.49 195.384 189.847 194.23L188.714 193.912C188.416 194.707 187.725 195.105 186.805 195.105C185.428 195.105 184.478 194.215 184.423 192.58H189.967V192.082C189.967 189.239 188.276 188.264 186.686 188.264C184.617 188.264 183.245 189.895 183.245 192.241C183.245 194.588 184.597 196.159 186.805 196.159ZM184.423 191.565C184.503 190.377 185.343 189.318 186.686 189.318C187.958 189.318 188.774 190.273 188.774 191.565H184.423ZM196.862 191.406C196.862 190.074 197.713 189.318 198.871 189.318C199.975 189.318 200.641 190.014 200.641 191.227V196H201.814V191.148C201.814 189.184 200.77 188.264 199.209 188.264C198.006 188.264 197.32 188.766 196.962 189.557H196.862V185.818H195.689V196H196.862V191.406ZM206.208 196.179C207.54 196.179 208.236 195.463 208.475 194.966H208.534V196H209.708V190.969C209.708 188.543 207.858 188.264 206.884 188.264C205.73 188.264 204.418 188.662 203.821 190.054L204.935 190.452C205.194 189.895 205.805 189.298 206.924 189.298C208.002 189.298 208.534 189.87 208.534 190.849V190.889C208.534 191.456 207.958 191.406 206.566 191.585C205.149 191.769 203.603 192.082 203.603 193.832C203.603 195.324 204.756 196.179 206.208 196.179ZM206.387 195.125C205.452 195.125 204.776 194.707 204.776 193.892C204.776 192.997 205.591 192.719 206.506 192.599C207.003 192.54 208.336 192.401 208.534 192.162V193.236C208.534 194.19 207.779 195.125 206.387 195.125ZM217.258 190.074C216.89 188.99 216.065 188.264 214.554 188.264C212.943 188.264 211.75 189.179 211.75 190.472C211.75 191.526 212.376 192.232 213.778 192.56L215.051 192.858C215.822 193.037 216.184 193.405 216.184 193.932C216.184 194.588 215.488 195.125 214.395 195.125C213.435 195.125 212.834 194.712 212.625 193.892L211.511 194.17C211.785 195.468 212.854 196.159 214.415 196.159C216.189 196.159 217.398 195.19 217.398 193.872C217.398 192.808 216.731 192.137 215.369 191.804L214.236 191.526C213.331 191.302 212.923 190.999 212.923 190.412C212.923 189.756 213.619 189.278 214.554 189.278C215.578 189.278 216.001 189.845 216.204 190.372L217.258 190.074ZM223.26 196H224.394V194.827H224.533C224.792 195.244 225.289 196.159 226.76 196.159C228.669 196.159 230.002 194.628 230.002 192.202C230.002 189.795 228.669 188.264 226.74 188.264C225.249 188.264 224.792 189.179 224.533 189.577H224.434V185.818H223.26V196ZM224.414 192.182C224.414 190.472 225.169 189.318 226.601 189.318C228.093 189.318 228.828 190.571 228.828 192.182C228.828 193.812 228.073 195.105 226.601 195.105C225.189 195.105 224.414 193.912 224.414 192.182ZM234.998 196.159C236.549 196.159 237.683 195.384 238.041 194.23L236.907 193.912C236.609 194.707 235.918 195.105 234.998 195.105C233.621 195.105 232.672 194.215 232.617 192.58H238.16V192.082C238.16 189.239 236.47 188.264 234.879 188.264C232.811 188.264 231.439 189.895 231.439 192.241C231.439 194.588 232.791 196.159 234.998 196.159ZM232.617 191.565C232.696 190.377 233.537 189.318 234.879 189.318C236.152 189.318 236.967 190.273 236.967 191.565H232.617ZM243.147 196.159C244.698 196.159 245.831 195.384 246.189 194.23L245.056 193.912C244.757 194.707 244.066 195.105 243.147 195.105C241.77 195.105 240.82 194.215 240.765 192.58H246.309V192.082C246.309 189.239 244.618 188.264 243.027 188.264C240.959 188.264 239.587 189.895 239.587 192.241C239.587 194.588 240.939 196.159 243.147 196.159ZM240.765 191.565C240.845 190.377 241.685 189.318 243.027 189.318C244.3 189.318 245.115 190.273 245.115 191.565H240.765ZM249.267 191.406C249.267 190.074 250.092 189.318 251.216 189.318C252.304 189.318 252.966 190.029 252.966 191.227V196H254.139V191.148C254.139 189.199 253.1 188.264 251.554 188.264C250.4 188.264 249.684 188.781 249.326 189.557H249.227V188.364H248.093V196H249.267V191.406ZM263.104 196.159C264.575 196.159 265.073 195.244 265.331 194.827H265.47V196H266.604V185.818H265.431V189.577H265.331C265.073 189.179 264.615 188.264 263.124 188.264C261.195 188.264 259.862 189.795 259.862 192.202C259.862 194.628 261.195 196.159 263.104 196.159ZM263.263 195.105C261.791 195.105 261.036 193.812 261.036 192.182C261.036 190.571 261.771 189.318 263.263 189.318C264.695 189.318 265.45 190.472 265.45 192.182C265.45 193.912 264.675 195.105 263.263 195.105ZM272.018 196.159C274.086 196.159 275.478 194.588 275.478 192.222C275.478 189.835 274.086 188.264 272.018 188.264C269.95 188.264 268.558 189.835 268.558 192.222C268.558 194.588 269.95 196.159 272.018 196.159ZM272.018 195.105C270.447 195.105 269.731 193.753 269.731 192.222C269.731 190.69 270.447 189.318 272.018 189.318C273.589 189.318 274.305 190.69 274.305 192.222C274.305 193.753 273.589 195.105 272.018 195.105ZM278.442 191.406C278.442 190.074 279.268 189.318 280.391 189.318C281.48 189.318 282.141 190.029 282.141 191.227V196H283.315V191.148C283.315 189.199 282.276 188.264 280.729 188.264C279.576 188.264 278.86 188.781 278.502 189.557H278.403V188.364H277.269V196H278.442V191.406ZM288.66 196.159C290.211 196.159 291.345 195.384 291.703 194.23L290.569 193.912C290.271 194.707 289.58 195.105 288.66 195.105C287.283 195.105 286.334 194.215 286.279 192.58H291.822V192.082C291.822 189.239 290.132 188.264 288.541 188.264C286.473 188.264 285.101 189.895 285.101 192.241C285.101 194.588 286.453 196.159 288.66 196.159ZM286.279 191.565C286.358 190.377 287.199 189.318 288.541 189.318C289.814 189.318 290.629 190.273 290.629 191.565H286.279ZM300.866 188.364H299.235V186.534H298.062V188.364H296.908V189.358H298.062V194.131C298.062 195.463 299.135 196.099 300.13 196.099C300.567 196.099 300.846 196.02 301.005 195.96L300.766 194.906C300.667 194.926 300.508 194.966 300.249 194.966C299.732 194.966 299.235 194.807 299.235 193.812V189.358H300.866V188.364ZM305.651 196.159C307.719 196.159 309.111 194.588 309.111 192.222C309.111 189.835 307.719 188.264 305.651 188.264C303.583 188.264 302.191 189.835 302.191 192.222C302.191 194.588 303.583 196.159 305.651 196.159ZM305.651 195.105C304.08 195.105 303.364 193.753 303.364 192.222C303.364 190.69 304.08 189.318 305.651 189.318C307.222 189.318 307.938 190.69 307.938 192.222C307.938 193.753 307.222 195.105 305.651 195.105ZM317.942 196.159C319.632 196.159 320.746 195.125 320.945 193.773H319.771C319.553 194.608 318.857 195.105 317.942 195.105C316.55 195.105 315.655 193.952 315.655 192.182C315.655 190.452 316.57 189.318 317.942 189.318C318.976 189.318 319.592 189.955 319.771 190.651H320.945C320.746 189.219 319.533 188.264 317.922 188.264C315.854 188.264 314.482 189.895 314.482 192.222C314.482 194.509 315.794 196.159 317.942 196.159ZM325.762 196.159C327.83 196.159 329.222 194.588 329.222 192.222C329.222 189.835 327.83 188.264 325.762 188.264C323.694 188.264 322.302 189.835 322.302 192.222C322.302 194.588 323.694 196.159 325.762 196.159ZM325.762 195.105C324.191 195.105 323.475 193.753 323.475 192.222C323.475 190.69 324.191 189.318 325.762 189.318C327.333 189.318 328.049 190.69 328.049 192.222C328.049 193.753 327.333 195.105 325.762 195.105ZM331.013 196H332.187V191.227C332.187 190.109 333.002 189.318 333.917 189.318C334.807 189.318 335.428 189.9 335.428 190.77V196H336.621V191.028C336.621 190.044 337.238 189.318 338.312 189.318C339.147 189.318 339.863 189.761 339.863 190.889V196H341.036V190.889C341.036 189.094 340.072 188.264 338.709 188.264C337.616 188.264 336.815 188.766 336.422 189.557H336.343C335.965 188.741 335.299 188.264 334.295 188.264C333.3 188.264 332.564 188.741 332.246 189.557H332.147V188.364H331.013V196ZM343.181 198.864H344.355V194.827H344.454C344.713 195.244 345.21 196.159 346.681 196.159C348.59 196.159 349.923 194.628 349.923 192.202C349.923 189.795 348.59 188.264 346.661 188.264C345.17 188.264 344.713 189.179 344.454 189.577H344.315V188.364H343.181V198.864ZM344.335 192.182C344.335 190.472 345.09 189.318 346.522 189.318C348.014 189.318 348.749 190.571 348.749 192.182C348.749 193.812 347.994 195.105 346.522 195.105C345.11 195.105 344.335 193.912 344.335 192.182ZM352.886 185.818H351.713V196H352.886V185.818ZM355.751 198.963C356.825 198.963 357.56 198.406 357.998 197.233L361.279 188.364H360.006L357.898 194.449H357.819L355.711 188.364H354.438L357.262 196.04L357.004 196.756C356.591 197.899 356.049 198.009 355.194 197.79L354.896 198.824C355.015 198.884 355.353 198.963 355.751 198.963ZM368.495 196H369.649L371.319 190.134H371.439L373.109 196H374.262L376.589 188.364H375.356L373.706 194.19H373.626L372.015 188.364H370.762L369.132 194.21H369.052L367.402 188.364H366.169L368.495 196ZM378.14 196H379.314V188.364H378.14V196ZM378.737 187.091C379.194 187.091 379.572 186.733 379.572 186.295C379.572 185.858 379.194 185.5 378.737 185.5C378.279 185.5 377.902 185.858 377.902 186.295C377.902 186.733 378.279 187.091 378.737 187.091ZM384.784 188.364H383.153V186.534H381.98V188.364H380.826V189.358H381.98V194.131C381.98 195.463 383.053 196.099 384.048 196.099C384.485 196.099 384.764 196.02 384.923 195.96L384.684 194.906C384.585 194.926 384.426 194.966 384.167 194.966C383.65 194.966 383.153 194.807 383.153 193.812V189.358H384.784V188.364ZM387.886 191.406C387.886 190.074 388.736 189.318 389.894 189.318C390.998 189.318 391.664 190.014 391.664 191.227V196H392.838V191.148C392.838 189.184 391.794 188.264 390.232 188.264C389.029 188.264 388.343 188.766 387.985 189.557H387.886V185.818H386.713V196H387.886V191.406ZM402.024 196.159C403.714 196.159 404.828 195.125 405.027 193.773H403.853C403.635 194.608 402.939 195.105 402.024 195.105C400.632 195.105 399.737 193.952 399.737 192.182C399.737 190.452 400.652 189.318 402.024 189.318C403.058 189.318 403.674 189.955 403.853 190.651H405.027C404.828 189.219 403.615 188.264 402.004 188.264C399.936 188.264 398.564 189.895 398.564 192.222C398.564 194.509 399.876 196.159 402.024 196.159ZM409.844 196.159C411.912 196.159 413.304 194.588 413.304 192.222C413.304 189.835 411.912 188.264 409.844 188.264C407.776 188.264 406.384 189.835 406.384 192.222C406.384 194.588 407.776 196.159 409.844 196.159ZM409.844 195.105C408.273 195.105 407.557 193.753 407.557 192.222C407.557 190.69 408.273 189.318 409.844 189.318C411.415 189.318 412.131 190.69 412.131 192.222C412.131 193.753 411.415 195.105 409.844 195.105ZM415.095 196H416.269V191.227C416.269 190.109 417.084 189.318 417.999 189.318C418.889 189.318 419.51 189.9 419.51 190.77V196H420.703V191.028C420.703 190.044 421.32 189.318 422.394 189.318C423.229 189.318 423.945 189.761 423.945 190.889V196H425.118V190.889C425.118 189.094 424.154 188.264 422.791 188.264C421.698 188.264 420.897 188.766 420.504 189.557H420.425C420.047 188.741 419.381 188.264 418.377 188.264C417.382 188.264 416.646 188.741 416.328 189.557H416.229V188.364H415.095V196ZM427.263 198.864H428.437V194.827H428.536C428.795 195.244 429.292 196.159 430.763 196.159C432.672 196.159 434.005 194.628 434.005 192.202C434.005 189.795 432.672 188.264 430.743 188.264C429.252 188.264 428.795 189.179 428.536 189.577H428.397V188.364H427.263V198.864ZM428.417 192.182C428.417 190.472 429.172 189.318 430.604 189.318C432.096 189.318 432.831 190.571 432.831 192.182C432.831 193.812 432.076 195.105 430.604 195.105C429.192 195.105 428.417 193.912 428.417 192.182ZM438.042 196.179C439.374 196.179 440.07 195.463 440.309 194.966H440.368V196H441.542V190.969C441.542 188.543 439.692 188.264 438.718 188.264C437.564 188.264 436.252 188.662 435.655 190.054L436.769 190.452C437.028 189.895 437.639 189.298 438.758 189.298C439.836 189.298 440.368 189.87 440.368 190.849V190.889C440.368 191.456 439.792 191.406 438.4 191.585C436.983 191.769 435.437 192.082 435.437 193.832C435.437 195.324 436.59 196.179 438.042 196.179ZM438.221 195.125C437.286 195.125 436.61 194.707 436.61 193.892C436.61 192.997 437.425 192.719 438.34 192.599C438.837 192.54 440.17 192.401 440.368 192.162V193.236C440.368 194.19 439.613 195.125 438.221 195.125ZM444.857 191.406C444.857 190.074 445.682 189.318 446.805 189.318C447.894 189.318 448.555 190.029 448.555 191.227V196H449.729V191.148C449.729 189.199 448.69 188.264 447.143 188.264C445.99 188.264 445.274 188.781 444.916 189.557H444.817V188.364H443.683V196H444.857V191.406ZM452.315 198.963C453.389 198.963 454.125 198.406 454.562 197.233L457.844 188.364H456.571L454.463 194.449H454.383L452.275 188.364H451.003L453.827 196.04L453.568 196.756C453.155 197.899 452.613 198.009 451.758 197.79L451.46 198.824C451.579 198.884 451.917 198.963 452.315 198.963ZM464.503 191.406C464.503 190.074 465.328 189.318 466.452 189.318C467.541 189.318 468.202 190.029 468.202 191.227V196H469.375V191.148C469.375 189.199 468.336 188.264 466.79 188.264C465.637 188.264 464.921 188.781 464.563 189.557H464.463V188.364H463.33V196H464.503V191.406ZM474.621 196.159C476.69 196.159 478.082 194.588 478.082 192.222C478.082 189.835 476.69 188.264 474.621 188.264C472.553 188.264 471.161 189.835 471.161 192.222C471.161 194.588 472.553 196.159 474.621 196.159ZM474.621 195.105C473.05 195.105 472.335 193.753 472.335 192.222C472.335 190.69 473.05 189.318 474.621 189.318C476.192 189.318 476.908 190.69 476.908 192.222C476.908 193.753 476.192 195.105 474.621 195.105ZM479.873 196H481.046V191.227C481.046 190.109 481.861 189.318 482.776 189.318C483.666 189.318 484.287 189.9 484.287 190.77V196H485.481V191.028C485.481 190.044 486.097 189.318 487.171 189.318C488.006 189.318 488.722 189.761 488.722 190.889V196H489.895V190.889C489.895 189.094 488.931 188.264 487.569 188.264C486.475 188.264 485.675 188.766 485.282 189.557H485.202C484.824 188.741 484.158 188.264 483.154 188.264C482.16 188.264 481.424 188.741 481.106 189.557H481.006V188.364H479.873V196ZM495.242 196.159C496.794 196.159 497.927 195.384 498.285 194.23L497.151 193.912C496.853 194.707 496.162 195.105 495.242 195.105C493.865 195.105 492.916 194.215 492.861 192.58H498.404V192.082C498.404 189.239 496.714 188.264 495.123 188.264C493.055 188.264 491.683 189.895 491.683 192.241C491.683 194.588 493.035 196.159 495.242 196.159ZM492.861 191.565C492.941 190.377 493.781 189.318 495.123 189.318C496.396 189.318 497.211 190.273 497.211 191.565H492.861ZM501.362 191.406C501.362 190.074 502.188 189.318 503.311 189.318C504.4 189.318 505.061 190.029 505.061 191.227V196H506.235V191.148C506.235 189.199 505.195 188.264 503.649 188.264C502.496 188.264 501.78 188.781 501.422 189.557H501.323V188.364H500.189V196H501.362V191.406ZM511.481 196.159C513.171 196.159 514.285 195.125 514.484 193.773H513.31C513.092 194.608 512.396 195.105 511.481 195.105C510.089 195.105 509.194 193.952 509.194 192.182C509.194 190.452 510.109 189.318 511.481 189.318C512.515 189.318 513.131 189.955 513.31 190.651H514.484C514.285 189.219 513.072 188.264 511.461 188.264C509.393 188.264 508.021 189.895 508.021 192.222C508.021 194.509 509.333 196.159 511.481 196.159ZM517.372 185.818H516.199V196H517.372V185.818ZM521.768 196.179C523.101 196.179 523.797 195.463 524.035 194.966H524.095V196H525.268V190.969C525.268 188.543 523.419 188.264 522.444 188.264C521.291 188.264 519.979 188.662 519.382 190.054L520.496 190.452C520.754 189.895 521.366 189.298 522.484 189.298C523.563 189.298 524.095 189.87 524.095 190.849V190.889C524.095 191.456 523.518 191.406 522.126 191.585C520.709 191.769 519.163 192.082 519.163 193.832C519.163 195.324 520.317 196.179 521.768 196.179ZM521.947 195.125C521.013 195.125 520.336 194.707 520.336 193.892C520.336 192.997 521.152 192.719 522.067 192.599C522.564 192.54 523.896 192.401 524.095 192.162V193.236C524.095 194.19 523.339 195.125 521.947 195.125ZM530.731 188.364H529.1V186.534H527.927V188.364H526.773V189.358H527.927V194.131C527.927 195.463 529.001 196.099 529.995 196.099C530.433 196.099 530.711 196.02 530.87 195.96L530.631 194.906C530.532 194.926 530.373 194.966 530.114 194.966C529.597 194.966 529.1 194.807 529.1 193.812V189.358H530.731V188.364ZM537.308 192.878C537.308 194.31 536.214 194.966 535.339 194.966C534.365 194.966 533.669 194.25 533.669 193.136V188.364H532.496V193.216C532.496 195.165 533.53 196.099 534.962 196.099C536.115 196.099 536.871 195.483 537.229 194.707H537.308V196H538.482V188.364H537.308V192.878ZM540.631 196H541.804V191.168C541.804 190.138 542.619 189.378 543.733 189.378C544.026 189.378 544.245 189.433 544.409 189.517L544.807 188.523C544.568 188.354 544.255 188.244 543.832 188.244C542.907 188.244 542.117 188.761 541.844 189.517H541.764V188.364H540.631V196ZM548.973 196.159C550.524 196.159 551.657 195.384 552.015 194.23L550.882 193.912C550.584 194.707 549.893 195.105 548.973 195.105C547.596 195.105 546.646 194.215 546.591 192.58H552.135V192.082C552.135 189.239 550.444 188.264 548.854 188.264C546.785 188.264 545.413 189.895 545.413 192.241C545.413 194.588 546.765 196.159 548.973 196.159ZM546.591 191.565C546.671 190.377 547.511 189.318 548.854 189.318C550.126 189.318 550.942 190.273 550.942 191.565H546.591ZM560.939 199.023C562.769 199.023 564.241 198.188 564.241 196.219V188.364H563.107V189.577H562.988C562.729 189.179 562.252 188.264 560.76 188.264C558.831 188.264 557.499 189.795 557.499 192.142C557.499 194.528 558.891 195.881 560.741 195.881C562.232 195.881 562.709 195.006 562.968 194.588H563.067V196.139C563.067 197.412 562.172 197.989 560.939 197.989C559.552 197.989 559.065 197.258 558.752 196.835L557.817 197.491C558.295 198.292 559.234 199.023 560.939 199.023ZM560.9 194.827C559.428 194.827 558.672 193.713 558.672 192.122C558.672 190.571 559.408 189.318 560.9 189.318C562.331 189.318 563.087 190.472 563.087 192.122C563.087 193.812 562.312 194.827 560.9 194.827ZM571.201 192.878C571.201 194.31 570.107 194.966 569.232 194.966C568.258 194.966 567.562 194.25 567.562 193.136V188.364H566.388V193.216C566.388 195.165 567.422 196.099 568.854 196.099C570.008 196.099 570.763 195.483 571.121 194.707H571.201V196H572.374V188.364H571.201V192.878ZM574.523 196H575.696V188.364H574.523V196ZM575.12 187.091C575.577 187.091 575.955 186.733 575.955 186.295C575.955 185.858 575.577 185.5 575.12 185.5C574.662 185.5 574.284 185.858 574.284 186.295C574.284 186.733 574.662 187.091 575.12 187.091ZM580.729 196.159C582.2 196.159 582.698 195.244 582.956 194.827H583.095V196H584.229V185.818H583.056V189.577H582.956C582.698 189.179 582.24 188.264 580.749 188.264C578.82 188.264 577.487 189.795 577.487 192.202C577.487 194.628 578.82 196.159 580.729 196.159ZM580.888 195.105C579.416 195.105 578.661 193.812 578.661 192.182C578.661 190.571 579.396 189.318 580.888 189.318C582.32 189.318 583.075 190.472 583.075 192.182C583.075 193.912 582.3 195.105 580.888 195.105ZM589.742 196.159C591.294 196.159 592.427 195.384 592.785 194.23L591.651 193.912C591.353 194.707 590.662 195.105 589.742 195.105C588.365 195.105 587.416 194.215 587.361 192.58H592.904V192.082C592.904 189.239 591.214 188.264 589.623 188.264C587.555 188.264 586.183 189.895 586.183 192.241C586.183 194.588 587.535 196.159 589.742 196.159ZM587.361 191.565C587.441 190.377 588.281 189.318 589.623 189.318C590.896 189.318 591.711 190.273 591.711 191.565H587.361ZM595.862 185.818H594.689V196H595.862V185.818ZM598.011 196H599.185V188.364H598.011V196ZM598.608 187.091C599.065 187.091 599.443 186.733 599.443 186.295C599.443 185.858 599.065 185.5 598.608 185.5C598.151 185.5 597.773 185.858 597.773 186.295C597.773 186.733 598.151 187.091 598.608 187.091ZM602.507 191.406C602.507 190.074 603.332 189.318 604.456 189.318C605.545 189.318 606.206 190.029 606.206 191.227V196H607.379V191.148C607.379 189.199 606.34 188.264 604.794 188.264C603.64 188.264 602.925 188.781 602.567 189.557H602.467V188.364H601.334V196H602.507V191.406ZM612.725 196.159C614.276 196.159 615.409 195.384 615.767 194.23L614.634 193.912C614.336 194.707 613.645 195.105 612.725 195.105C611.348 195.105 610.398 194.215 610.343 192.58H615.887V192.082C615.887 189.239 614.196 188.264 612.605 188.264C610.537 188.264 609.165 189.895 609.165 192.241C609.165 194.588 610.517 196.159 612.725 196.159ZM610.343 191.565C610.423 190.377 611.263 189.318 612.605 189.318C613.878 189.318 614.694 190.273 614.694 191.565H610.343ZM623.081 190.074C622.713 188.99 621.887 188.264 620.376 188.264C618.765 188.264 617.572 189.179 617.572 190.472C617.572 191.526 618.199 192.232 619.6 192.56L620.873 192.858C621.644 193.037 622.007 193.405 622.007 193.932C622.007 194.588 621.311 195.125 620.217 195.125C619.257 195.125 618.656 194.712 618.447 193.892L617.333 194.17C617.607 195.468 618.676 196.159 620.237 196.159C622.012 196.159 623.22 195.19 623.22 193.872C623.22 192.808 622.554 192.137 621.191 191.804L620.058 191.526C619.153 191.302 618.745 190.999 618.745 190.412C618.745 189.756 619.441 189.278 620.376 189.278C621.4 189.278 621.823 189.845 622.027 190.372L623.081 190.074ZM625.841 196.08C626.333 196.08 626.736 195.677 626.736 195.185C626.736 194.692 626.333 194.29 625.841 194.29C625.349 194.29 624.946 194.692 624.946 195.185C624.946 195.677 625.349 196.08 625.841 196.08Z" fill="#1A1A1A"/>
<rect x="94.5" y="150.5" width="631" height="60" rx="3.5" stroke="#E5E5E5"/>
<rect x="61" y="67" width="8" height="8" rx="4" fill="#6C3498"/>
<rect x="1" y="1" width="785" height="271" rx="4" stroke="#E5E5E5" stroke-width="1.5"/>
</svg>
