<svg width="510" height="340" viewBox="0 0 510 340" fill="none" xmlns="http://www.w3.org/2000/svg">
<path d="M463 10H486C488.209 10 490 11.7909 490 14V34C490 36.2091 488.209 38 486 38H463V10Z" fill="#002966"/>
<path d="M0 4C0 1.79086 1.79086 0 4 0H506C508.209 0 510 1.79086 510 4V48H0V4Z" fill="#F7F4ED"/>
<path d="M248.582 19.2727L251.749 24.5739V28H253.061V24.5739L256.227 19.2727H254.732L252.452 23.2401H252.358L250.078 19.2727H248.582ZM259.059 28.1321C260.904 28.1321 262.11 26.7812 262.11 24.7571C262.11 22.7202 260.904 21.3693 259.059 21.3693C257.214 21.3693 256.008 22.7202 256.008 24.7571C256.008 26.7812 257.214 28.1321 259.059 28.1321ZM259.063 27.0625C257.857 27.0625 257.295 26.0099 257.295 24.7528C257.295 23.5 257.857 22.4347 259.063 22.4347C260.261 22.4347 260.823 23.5 260.823 24.7528C260.823 26.0099 260.261 27.0625 259.063 27.0625ZM267.679 25.2855C267.683 26.3977 266.856 26.9261 266.14 26.9261C265.352 26.9261 264.806 26.3551 264.806 25.4645V21.4545H263.532V25.6179C263.532 27.2415 264.423 28.0852 265.68 28.0852C266.664 28.0852 267.333 27.5653 267.636 26.8665H267.704V28H268.957V21.4545H267.679V25.2855ZM275.119 24.1136C275.119 23.0696 275.779 22.473 276.687 22.473C277.565 22.473 278.089 23.0312 278.089 23.9901V28H279.363V23.8366C279.363 22.2045 278.468 21.3693 277.122 21.3693C276.103 21.3693 275.49 21.8125 275.183 22.5199H275.102V19.2727H273.845V28H275.119V24.1136ZM282.968 28.1449C284.051 28.1449 284.66 27.5952 284.903 27.1051H284.954V28H286.199V23.6534C286.199 21.7486 284.699 21.3693 283.659 21.3693C282.474 21.3693 281.383 21.8466 280.957 23.0398L282.154 23.3125C282.342 22.848 282.819 22.4006 283.676 22.4006C284.498 22.4006 284.92 22.831 284.92 23.5724V23.6023C284.92 24.0668 284.443 24.0582 283.267 24.1946C282.027 24.3395 280.757 24.6634 280.757 26.1506C280.757 27.4375 281.724 28.1449 282.968 28.1449ZM283.245 27.1222C282.525 27.1222 282.005 26.7983 282.005 26.1676C282.005 25.4858 282.61 25.2429 283.348 25.1449C283.761 25.0895 284.741 24.9787 284.924 24.7955V25.6392C284.924 26.4148 284.306 27.1222 283.245 27.1222ZM293.261 21.4545H291.893L290.239 26.4915H290.171L288.513 21.4545H287.146L289.523 28H290.887L293.261 21.4545ZM297.045 28.1321C298.472 28.1321 299.482 27.429 299.772 26.3636L298.566 26.1463C298.336 26.7642 297.782 27.0795 297.058 27.0795C295.967 27.0795 295.234 26.3722 295.2 25.1108H299.853V24.6591C299.853 22.294 298.438 21.3693 296.955 21.3693C295.131 21.3693 293.93 22.7585 293.93 24.7699C293.93 26.8026 295.114 28.1321 297.045 28.1321ZM295.204 24.1562C295.255 23.2273 295.928 22.4219 296.964 22.4219C297.952 22.4219 298.6 23.1548 298.604 24.1562H295.204ZM304.442 28H305.717V23.9645C305.717 23.0824 306.335 22.4688 307.059 22.4688C307.766 22.4688 308.256 22.9375 308.256 23.6491V28H309.526V23.8281C309.526 23.0398 310.008 22.4688 310.839 22.4688C311.512 22.4688 312.066 22.8438 312.066 23.7301V28H313.34V23.6108C313.34 22.1151 312.505 21.3693 311.32 21.3693C310.379 21.3693 309.671 21.821 309.356 22.5199H309.288C309.002 21.804 308.401 21.3693 307.528 21.3693C306.663 21.3693 306.019 21.7997 305.746 22.5199H305.665V21.4545H304.442V28ZM316.953 28.1449C318.035 28.1449 318.645 27.5952 318.887 27.1051H318.939V28H320.183V23.6534C320.183 21.7486 318.683 21.3693 317.643 21.3693C316.458 21.3693 315.368 21.8466 314.941 23.0398L316.139 23.3125C316.326 22.848 316.804 22.4006 317.66 22.4006C318.483 22.4006 318.904 22.831 318.904 23.5724V23.6023C318.904 24.0668 318.427 24.0582 317.251 24.1946C316.011 24.3395 314.741 24.6634 314.741 26.1506C314.741 27.4375 315.708 28.1449 316.953 28.1449ZM317.23 27.1222C316.51 27.1222 315.99 26.7983 315.99 26.1676C315.99 25.4858 316.595 25.2429 317.332 25.1449C317.745 25.0895 318.725 24.9787 318.909 24.7955V25.6392C318.909 26.4148 318.291 27.1222 317.23 27.1222ZM324.33 28.1278C325.523 28.1278 325.992 27.3991 326.222 26.9815H326.329V28H327.573V19.2727H326.299V22.5156H326.222C325.992 22.1108 325.558 21.3693 324.339 21.3693C322.758 21.3693 321.594 22.6179 321.594 24.7401C321.594 26.858 322.741 28.1278 324.33 28.1278ZM324.612 27.0412C323.474 27.0412 322.881 26.0398 322.881 24.7273C322.881 23.4276 323.461 22.4517 324.612 22.4517C325.724 22.4517 326.32 23.3594 326.32 24.7273C326.32 26.1037 325.711 27.0412 324.612 27.0412ZM332.213 28.1321C333.64 28.1321 334.65 27.429 334.94 26.3636L333.734 26.1463C333.504 26.7642 332.95 27.0795 332.225 27.0795C331.135 27.0795 330.402 26.3722 330.368 25.1108H335.021V24.6591C335.021 22.294 333.606 21.3693 332.123 21.3693C330.299 21.3693 329.098 22.7585 329.098 24.7699C329.098 26.8026 330.282 28.1321 332.213 28.1321ZM330.372 24.1562C330.423 23.2273 331.096 22.4219 332.132 22.4219C333.12 22.4219 333.768 23.1548 333.772 24.1562H330.372ZM342.632 28.1193C344.413 28.1193 345.721 27.054 345.717 25.6051C345.721 24.5014 345.052 23.7088 343.893 23.5298V23.4616C344.805 23.2273 345.397 22.5114 345.393 21.5312C345.397 20.2486 344.345 19.1534 342.666 19.1534C341.064 19.1534 339.777 20.1207 339.734 21.5398H341.008C341.038 20.7386 341.792 20.2528 342.649 20.2528C343.539 20.2528 344.123 20.794 344.119 21.5994C344.123 22.4432 343.446 22.9972 342.478 22.9972H341.741V24.071H342.478C343.689 24.071 344.387 24.6847 344.387 25.5625C344.387 26.4105 343.65 26.9858 342.623 26.9858C341.677 26.9858 340.94 26.5 340.889 25.7244H339.551C339.606 27.1477 340.868 28.1193 342.632 28.1193ZM353.342 28.1321C354.769 28.1321 355.779 27.429 356.069 26.3636L354.863 26.1463C354.633 26.7642 354.079 27.0795 353.354 27.0795C352.263 27.0795 351.531 26.3722 351.496 25.1108H356.15V24.6591C356.15 22.294 354.735 21.3693 353.252 21.3693C351.428 21.3693 350.227 22.7585 350.227 24.7699C350.227 26.8026 351.411 28.1321 353.342 28.1321ZM351.501 24.1562C351.552 23.2273 352.225 22.4219 353.261 22.4219C354.249 22.4219 354.897 23.1548 354.901 24.1562H351.501ZM360.014 28.1278C361.207 28.1278 361.676 27.3991 361.906 26.9815H362.012V28H363.257V19.2727H361.983V22.5156H361.906C361.676 22.1108 361.241 21.3693 360.022 21.3693C358.441 21.3693 357.278 22.6179 357.278 24.7401C357.278 26.858 358.424 28.1278 360.014 28.1278ZM360.295 27.0412C359.157 27.0412 358.565 26.0398 358.565 24.7273C358.565 23.4276 359.145 22.4517 360.295 22.4517C361.407 22.4517 362.004 23.3594 362.004 24.7273C362.004 26.1037 361.395 27.0412 360.295 27.0412ZM365.075 28H366.349V21.4545H365.075V28ZM365.719 20.4446C366.158 20.4446 366.524 20.1037 366.524 19.6861C366.524 19.2685 366.158 18.9233 365.719 18.9233C365.276 18.9233 364.913 19.2685 364.913 19.6861C364.913 20.1037 365.276 20.4446 365.719 20.4446ZM371.119 21.4545H369.777V19.8864H368.502V21.4545H367.544V22.4773H368.502V26.3423C368.498 27.5312 369.406 28.1065 370.412 28.0852C370.816 28.081 371.089 28.0043 371.238 27.9489L371.008 26.8963C370.923 26.9134 370.765 26.9517 370.561 26.9517C370.147 26.9517 369.777 26.8153 369.777 26.0781V22.4773H371.119V21.4545ZM377.328 23.0526C377.064 22.0341 376.267 21.3693 374.852 21.3693C373.373 21.3693 372.325 22.1491 372.325 23.3082C372.325 24.2372 372.887 24.8551 374.115 25.1278L375.223 25.3707C375.853 25.5114 376.147 25.7926 376.147 26.2017C376.147 26.7088 375.606 27.1051 374.771 27.1051C374.008 27.1051 373.518 26.777 373.365 26.1335L372.133 26.321C372.346 27.4801 373.309 28.1321 374.779 28.1321C376.36 28.1321 377.456 27.2926 377.456 26.108C377.456 25.1832 376.868 24.6122 375.666 24.3352L374.626 24.0966C373.906 23.9261 373.595 23.6832 373.599 23.2401C373.595 22.7372 374.14 22.3793 374.865 22.3793C375.657 22.3793 376.024 22.8182 376.173 23.2571L377.328 23.0526Z" fill="black" fill-opacity="0.4"/>
<rect x="390" y="10" width="100" height="28" rx="3" fill="#002152"/>
<path d="M462 10H487C488.657 10 490 11.3431 490 13V35C490 36.6569 488.657 38 487 38H462V10Z" fill="#002152"/>
<path opacity="0.15" d="M462 10V10C462.552 10 463 10.4477 463 11V37C463 37.5523 462.552 38 462 38V38V10Z" fill="white"/>
<path d="M403.088 29H404.933V25.5597H406.882C409.233 25.5597 410.496 24.1477 410.496 22.1889C410.496 20.245 409.248 18.8182 406.906 18.8182H403.088V29ZM404.933 24.0433V20.3594H406.623C408.005 20.3594 408.617 21.1051 408.617 22.1889C408.617 23.2727 408.005 24.0433 406.633 24.0433H404.933ZM416.886 25.7884C416.886 26.9517 416.055 27.5284 415.26 27.5284C414.395 27.5284 413.818 26.9169 413.818 25.9474V21.3636H412.018V26.2259C412.018 28.0604 413.062 29.0994 414.564 29.0994C415.707 29.0994 416.513 28.4979 416.861 27.6428H416.94V29H418.685V21.3636H416.886V25.7884ZM420.616 29H422.385V27.7969H422.49C422.773 28.3537 423.365 29.1342 424.677 29.1342C426.477 29.1342 427.824 27.7074 427.824 25.1918C427.824 22.6463 426.437 21.2642 424.672 21.2642C423.325 21.2642 422.763 22.0746 422.49 22.6264H422.415V18.8182H420.616V29ZM422.381 25.1818C422.381 23.7003 423.017 22.7408 424.175 22.7408C425.373 22.7408 425.99 23.7599 425.99 25.1818C425.99 26.6136 425.363 27.6577 424.175 27.6577C423.027 27.6577 422.381 26.6634 422.381 25.1818ZM431.154 18.8182H429.354V29H431.154V18.8182ZM433.005 29H434.805V21.3636H433.005V29ZM433.91 20.2798C434.481 20.2798 434.949 19.8423 434.949 19.3054C434.949 18.7635 434.481 18.326 433.91 18.326C433.333 18.326 432.866 18.7635 432.866 19.3054C432.866 19.8423 433.333 20.2798 433.91 20.2798ZM442.691 23.3821C442.442 22.0895 441.408 21.2642 439.618 21.2642C437.779 21.2642 436.526 22.169 436.531 23.581C436.526 24.6946 437.212 25.4304 438.679 25.7337L439.981 26.0071C440.682 26.1612 441.01 26.4446 441.01 26.8771C441.01 27.3991 440.444 27.7919 439.588 27.7919C438.763 27.7919 438.226 27.4339 438.072 26.7479L436.317 26.9169C436.541 28.3189 437.719 29.1491 439.593 29.1491C441.502 29.1491 442.85 28.1598 442.855 26.7131C442.85 25.6243 442.149 24.9581 440.707 24.6449L439.404 24.3665C438.629 24.1925 438.321 23.924 438.326 23.4815C438.321 22.9645 438.892 22.6065 439.643 22.6065C440.473 22.6065 440.911 23.0589 441.05 23.5611L442.691 23.3821ZM446.138 24.5256C446.138 23.4219 446.825 22.7855 447.789 22.7855C448.734 22.7855 449.29 23.3871 449.29 24.4162V29H451.09V24.1378C451.09 22.2933 450.046 21.2642 448.46 21.2642C447.287 21.2642 446.541 21.7962 446.188 22.6612H446.099V18.8182H444.339V29H446.138V24.5256Z" fill="white"/>
<path d="M479.06 26.2733L476 23.2199L472.94 26.2733L472 25.3333L476 21.3333L480 25.3333L479.06 26.2733Z" fill="white"/>
<rect x="139.25" y="43.25" width="351.5" height="256.5" rx="3.75" fill="white" stroke="#E5E5E5" stroke-width="1.5"/>
<rect x="154" y="257" width="64" height="28" rx="2" fill="white"/>
<path d="M168.415 276C171.517 276 173.312 274.076 173.312 270.894C173.312 267.727 171.517 265.818 168.519 265.818H165.119V276H168.415ZM166.655 274.658V267.161H168.425C170.652 267.161 171.8 268.493 171.8 270.894C171.8 273.305 170.652 274.658 168.33 274.658H166.655ZM178.394 276.154C180.059 276.154 181.238 275.334 181.576 274.091L180.169 273.837C179.9 274.558 179.254 274.926 178.409 274.926C177.136 274.926 176.281 274.101 176.241 272.629H181.67V272.102C181.67 269.343 180.02 268.264 178.29 268.264C176.162 268.264 174.76 269.885 174.76 272.232C174.76 274.603 176.142 276.154 178.394 276.154ZM176.246 271.516C176.306 270.432 177.091 269.492 178.3 269.492C179.453 269.492 180.209 270.347 180.214 271.516H176.246ZM184.806 265.818H183.32V276H184.806V265.818ZM190.097 276.154C191.763 276.154 192.941 275.334 193.279 274.091L191.872 273.837C191.604 274.558 190.957 274.926 190.112 274.926C188.839 274.926 187.984 274.101 187.944 272.629H193.373V272.102C193.373 269.343 191.723 268.264 189.993 268.264C187.865 268.264 186.463 269.885 186.463 272.232C186.463 274.603 187.845 276.154 190.097 276.154ZM187.949 271.516C188.009 270.432 188.795 269.492 190.003 269.492C191.156 269.492 191.912 270.347 191.917 271.516H187.949ZM198.587 268.364H197.021V266.534H195.535V268.364H194.416V269.557H195.535V274.066C195.53 275.453 196.589 276.124 197.762 276.099C198.234 276.094 198.553 276.005 198.727 275.94L198.458 274.712C198.359 274.732 198.175 274.777 197.936 274.777C197.454 274.777 197.021 274.618 197.021 273.758V269.557H198.587V268.364ZM203.441 276.154C205.106 276.154 206.285 275.334 206.623 274.091L205.216 273.837C204.947 274.558 204.301 274.926 203.456 274.926C202.183 274.926 201.328 274.101 201.288 272.629H206.717V272.102C206.717 269.343 205.067 268.264 203.336 268.264C201.209 268.264 199.807 269.885 199.807 272.232C199.807 274.603 201.189 276.154 203.441 276.154ZM201.293 271.516C201.353 270.432 202.138 269.492 203.346 269.492C204.5 269.492 205.256 270.347 205.26 271.516H201.293Z" fill="#990000"/>
<rect x="403" y="257" width="73" height="28" rx="3" fill="#002B6B"/>
<path d="M416.119 276H417.655V272.42H419.743C422.104 272.42 423.273 270.994 423.273 269.114C423.273 267.24 422.114 265.818 419.748 265.818H416.119V276ZM417.655 271.118V267.136H419.584C421.105 267.136 421.727 267.961 421.727 269.114C421.727 270.268 421.105 271.118 419.604 271.118H417.655ZM429.792 272.833C429.797 274.131 428.832 274.747 427.997 274.747C427.077 274.747 426.441 274.081 426.441 273.042V268.364H424.954V273.221C424.954 275.115 425.993 276.099 427.46 276.099C428.608 276.099 429.389 275.493 429.742 274.678H429.822V276H431.283V268.364H429.792V272.833ZM433.4 276H434.852V274.812H434.976C435.244 275.299 435.791 276.149 437.183 276.149C439.033 276.149 440.375 274.668 440.375 272.197C440.375 269.721 439.013 268.264 437.168 268.264C435.751 268.264 435.239 269.129 434.976 269.602H434.886V265.818H433.4V276ZM434.857 272.182C434.857 270.586 435.553 269.527 436.85 269.527C438.197 269.527 438.874 270.665 438.874 272.182C438.874 273.713 438.178 274.881 436.85 274.881C435.572 274.881 434.857 273.788 434.857 272.182ZM443.531 265.818H442.044V276H443.531V265.818ZM445.531 276H447.017V268.364H445.531V276ZM446.281 267.185C446.793 267.185 447.221 266.788 447.221 266.3C447.221 265.813 446.793 265.411 446.281 265.411C445.764 265.411 445.342 265.813 445.342 266.3C445.342 266.788 445.764 267.185 446.281 267.185ZM454.739 270.228C454.431 269.04 453.501 268.264 451.851 268.264C450.126 268.264 448.903 269.174 448.903 270.526C448.903 271.61 449.559 272.331 450.991 272.649L452.283 272.933C453.019 273.097 453.362 273.425 453.362 273.902C453.362 274.494 452.731 274.956 451.756 274.956C450.866 274.956 450.295 274.573 450.116 273.822L448.679 274.041C448.927 275.393 450.051 276.154 451.766 276.154C453.611 276.154 454.888 275.175 454.888 273.793C454.888 272.714 454.202 272.048 452.8 271.724L451.587 271.446C450.747 271.247 450.384 270.964 450.389 270.447C450.384 269.86 451.02 269.442 451.866 269.442C452.79 269.442 453.218 269.955 453.392 270.467L454.739 270.228ZM458.009 271.466C458.009 270.248 458.78 269.552 459.839 269.552C460.863 269.552 461.474 270.203 461.474 271.322V276H462.961V271.143C462.961 269.239 461.917 268.264 460.346 268.264C459.158 268.264 458.442 268.781 458.084 269.607H457.989V265.818H456.523V276H458.009V271.466Z" fill="white"/>
<rect x="272.5" y="257.5" width="118" height="27" rx="2.5" fill="white"/>
<path d="M290.672 268.493H292.153C292.109 266.862 290.667 265.679 288.599 265.679C286.555 265.679 284.989 266.847 284.989 268.602C284.989 270.019 286.004 270.849 287.639 271.292L288.842 271.62C289.931 271.908 290.771 272.266 290.771 273.171C290.771 274.165 289.822 274.822 288.514 274.822C287.331 274.822 286.347 274.295 286.257 273.186H284.716C284.815 275.031 286.242 276.169 288.524 276.169C290.915 276.169 292.293 274.911 292.293 273.186C292.293 271.352 290.657 270.641 289.364 270.322L288.37 270.064C287.575 269.86 286.516 269.487 286.521 268.513C286.521 267.648 287.311 267.006 288.564 267.006C289.732 267.006 290.562 267.553 290.672 268.493ZM296.231 276.169C297.494 276.169 298.205 275.528 298.488 274.956H298.548V276H300V270.929C300 268.707 298.25 268.264 297.037 268.264C295.655 268.264 294.382 268.821 293.885 270.213L295.282 270.531C295.501 269.989 296.057 269.467 297.057 269.467C298.016 269.467 298.508 269.969 298.508 270.835V270.869C298.508 271.411 297.952 271.401 296.579 271.56C295.133 271.729 293.651 272.107 293.651 273.842C293.651 275.344 294.78 276.169 296.231 276.169ZM296.555 274.976C295.714 274.976 295.108 274.598 295.108 273.862C295.108 273.067 295.814 272.783 296.674 272.669C297.156 272.604 298.3 272.475 298.513 272.261V273.246C298.513 274.151 297.792 274.976 296.555 274.976ZM308.239 268.364H306.643L304.714 274.24H304.635L302.701 268.364H301.105L303.879 276H305.47L308.239 268.364ZM312.654 276.154C314.319 276.154 315.498 275.334 315.836 274.091L314.429 273.837C314.16 274.558 313.514 274.926 312.669 274.926C311.396 274.926 310.541 274.101 310.501 272.629H315.93V272.102C315.93 269.343 314.279 268.264 312.549 268.264C310.422 268.264 309.02 269.885 309.02 272.232C309.02 274.603 310.402 276.154 312.654 276.154ZM310.506 271.516C310.566 270.432 311.351 269.492 312.559 269.492C313.713 269.492 314.468 270.347 314.473 271.516H310.506ZM324.849 268.364H323.283V266.534H321.797V268.364H320.678V269.557H321.797V274.066C321.792 275.453 322.85 276.124 324.024 276.099C324.496 276.094 324.814 276.005 324.988 275.94L324.72 274.712C324.62 274.732 324.436 274.777 324.198 274.777C323.716 274.777 323.283 274.618 323.283 273.758V269.557H324.849V268.364ZM329.628 276.154C331.781 276.154 333.188 274.578 333.188 272.217C333.188 269.84 331.781 268.264 329.628 268.264C327.475 268.264 326.068 269.84 326.068 272.217C326.068 274.578 327.475 276.154 329.628 276.154ZM329.633 274.906C328.226 274.906 327.57 273.678 327.57 272.212C327.57 270.75 328.226 269.507 329.633 269.507C331.03 269.507 331.686 270.75 331.686 272.212C331.686 273.678 331.03 274.906 329.633 274.906ZM341.968 276C345.07 276 346.865 274.076 346.865 270.894C346.865 267.727 345.07 265.818 342.072 265.818H338.671V276H341.968ZM340.208 274.658V267.161H341.977C344.205 267.161 345.353 268.493 345.353 270.894C345.353 273.305 344.205 274.658 341.883 274.658H340.208ZM348.656 276H350.142V271.337C350.142 270.342 350.913 269.621 351.942 269.621C352.23 269.621 352.454 269.681 352.633 269.771L353.11 268.528C352.857 268.359 352.528 268.249 352.111 268.249C351.206 268.249 350.45 268.756 350.172 269.577H350.092V268.364H348.656V276ZM356.388 276.169C357.65 276.169 358.361 275.528 358.645 274.956H358.704V276H360.156V270.929C360.156 268.707 358.406 268.264 357.193 268.264C355.811 268.264 354.538 268.821 354.041 270.213L355.438 270.531C355.657 269.989 356.214 269.467 357.213 269.467C358.172 269.467 358.665 269.969 358.665 270.835V270.869C358.665 271.411 358.108 271.401 356.736 271.56C355.289 271.729 353.807 272.107 353.807 273.842C353.807 275.344 354.936 276.169 356.388 276.169ZM356.711 274.976C355.871 274.976 355.264 274.598 355.264 273.862C355.264 273.067 355.97 272.783 356.83 272.669C357.312 272.604 358.456 272.475 358.67 272.261V273.246C358.67 274.151 357.949 274.976 356.711 274.976ZM365.795 268.364H364.15V267.678C364.15 267.001 364.428 266.634 365.154 266.634C365.462 266.634 365.681 266.703 365.82 266.748L366.168 265.545C365.959 265.465 365.527 265.341 364.925 265.341C363.717 265.341 362.658 266.047 362.658 267.479V268.364H361.48V269.557H362.658V276H364.15V269.557H365.795V268.364ZM370.896 268.364H369.33V266.534H367.843V268.364H366.725V269.557H367.843V274.066C367.838 275.453 368.897 276.124 370.071 276.099C370.543 276.094 370.861 276.005 371.035 275.94L370.767 274.712C370.667 274.732 370.483 274.777 370.245 274.777C369.762 274.777 369.33 274.618 369.33 273.758V269.557H370.896V268.364ZM378.14 270.228C377.831 269.04 376.902 268.264 375.251 268.264C373.526 268.264 372.303 269.174 372.303 270.526C372.303 271.61 372.959 272.331 374.391 272.649L375.684 272.933C376.419 273.097 376.762 273.425 376.762 273.902C376.762 274.494 376.131 274.956 375.157 274.956C374.267 274.956 373.695 274.573 373.516 273.822L372.079 274.041C372.328 275.393 373.451 276.154 375.167 276.154C377.011 276.154 378.289 275.175 378.289 273.793C378.289 272.714 377.603 272.048 376.201 271.724L374.988 271.446C374.147 271.247 373.784 270.964 373.789 270.447C373.784 269.86 374.421 269.442 375.266 269.442C376.191 269.442 376.618 269.955 376.792 270.467L378.14 270.228Z" fill="#999999"/>
<rect x="272.5" y="257.5" width="118" height="27" rx="2.5" stroke="#E5E5E5"/>
<rect x="140" y="51" width="350" height="34" fill="white" fill-opacity="0.01"/>
<path d="M169.833 60.5H158.167C157.242 60.5 156.5 61.25 156.5 62.1667V73.8333C156.5 74.75 157.242 75.5 158.167 75.5H169.833C170.758 75.5 171.5 74.75 171.5 73.8333V62.1667C171.5 61.25 170.758 60.5 169.833 60.5ZM162.333 72.1667L158.167 68L159.342 66.825L162.333 69.8083L168.658 63.4833L169.833 64.6667L162.333 72.1667Z" fill="#002B6B"/>
<path d="M185.979 73L186.913 70.3054H190.891L191.82 73H193.451L189.787 62.8182H188.012L184.348 73H185.979ZM187.361 69.0128L188.862 64.6676H188.942L190.443 69.0128H187.361ZM197.538 73.1491C198.93 73.1491 199.477 72.299 199.745 71.8118H199.869V73H201.321V62.8182H199.835V66.6016H199.745C199.477 66.1293 198.969 65.2642 197.548 65.2642C195.703 65.2642 194.346 66.7209 194.346 69.1967C194.346 71.6676 195.683 73.1491 197.538 73.1491ZM197.866 71.8814C196.538 71.8814 195.847 70.7131 195.847 69.1818C195.847 67.6655 196.523 66.527 197.866 66.527C199.163 66.527 199.859 67.5859 199.859 69.1818C199.859 70.7876 199.148 71.8814 197.866 71.8814ZM212.019 66.1293C211.671 63.9517 209.965 62.679 207.813 62.679C205.178 62.679 203.234 64.6527 203.234 67.9091C203.234 71.1655 205.168 73.1392 207.813 73.1392C210.05 73.1392 211.686 71.7372 212.019 69.7237L210.468 69.7188C210.204 71.0213 209.11 71.7372 207.823 71.7372C206.078 71.7372 204.76 70.3999 204.76 67.9091C204.76 65.4382 206.073 64.081 207.828 64.081C209.125 64.081 210.214 64.8118 210.468 66.1293H212.019ZM215.96 73.169C217.223 73.169 217.934 72.5277 218.217 71.956H218.277V73H219.728V67.929C219.728 65.7067 217.978 65.2642 216.765 65.2642C215.383 65.2642 214.11 65.821 213.613 67.2131L215.01 67.5312C215.229 66.9893 215.786 66.4673 216.785 66.4673C217.745 66.4673 218.237 66.9695 218.237 67.8345V67.8693C218.237 68.4112 217.68 68.4013 216.308 68.5604C214.861 68.7294 213.38 69.1072 213.38 70.8423C213.38 72.3438 214.508 73.169 215.96 73.169ZM216.283 71.9759C215.443 71.9759 214.836 71.598 214.836 70.8622C214.836 70.0668 215.542 69.7834 216.402 69.669C216.885 69.6044 218.028 69.4751 218.242 69.2614V70.2457C218.242 71.1506 217.521 71.9759 216.283 71.9759ZM225.273 65.3636H223.707V63.5341H222.22V65.3636H221.102V66.5568H222.22V71.0661C222.215 72.4531 223.274 73.1243 224.448 73.0994C224.92 73.0945 225.238 73.005 225.412 72.9403L225.144 71.7124C225.044 71.7322 224.86 71.777 224.622 71.777C224.139 71.777 223.707 71.6179 223.707 70.7578V66.5568H225.273V65.3636ZM230.126 73.1541C231.792 73.1541 232.97 72.3338 233.308 71.0909L231.901 70.8374C231.633 71.5582 230.987 71.9261 230.141 71.9261C228.869 71.9261 228.013 71.1009 227.974 69.6293H233.403V69.1023C233.403 66.343 231.752 65.2642 230.022 65.2642C227.894 65.2642 226.492 66.8849 226.492 69.2315C226.492 71.603 227.874 73.1541 230.126 73.1541ZM227.979 68.5156C228.038 67.4318 228.824 66.4922 230.032 66.4922C231.185 66.4922 231.941 67.3473 231.946 68.5156H227.979ZM238.254 76.0078C240.198 76.0078 241.699 75.1179 241.699 73.169V65.3636H240.242V66.6016H240.133C239.869 66.1293 239.343 65.2642 237.921 65.2642C236.076 65.2642 234.719 66.7209 234.719 69.152C234.719 71.5881 236.106 72.8857 237.911 72.8857C239.313 72.8857 239.855 72.0952 240.123 71.608H240.218V73.1094C240.218 74.2876 239.397 74.8097 238.269 74.8097C237.031 74.8097 236.548 74.1882 236.285 73.7656L235.007 74.2926C235.41 75.2124 236.429 76.0078 238.254 76.0078ZM238.239 71.6527C236.911 71.6527 236.22 70.6335 236.22 69.1321C236.22 67.6655 236.896 66.527 238.239 66.527C239.536 66.527 240.232 67.5859 240.232 69.1321C240.232 70.7081 239.521 71.6527 238.239 71.6527ZM246.909 73.1541C249.062 73.1541 250.469 71.5781 250.469 69.2166C250.469 66.8402 249.062 65.2642 246.909 65.2642C244.757 65.2642 243.35 66.8402 243.35 69.2166C243.35 71.5781 244.757 73.1541 246.909 73.1541ZM246.914 71.9062C245.507 71.9062 244.851 70.6783 244.851 69.2116C244.851 67.75 245.507 66.5071 246.914 66.5071C248.311 66.5071 248.968 67.75 248.968 69.2116C248.968 70.6783 248.311 71.9062 246.914 71.9062ZM252.128 73H253.615V68.3366C253.615 67.3374 254.385 66.6165 255.439 66.6165C255.748 66.6165 256.096 66.6712 256.215 66.706V65.2841C256.066 65.2642 255.772 65.2493 255.583 65.2493C254.689 65.2493 253.923 65.7564 253.645 66.5767H253.565V65.3636H252.128V73ZM258.619 75.968C259.852 75.968 260.652 75.3018 261.085 74.1136L264.266 65.3636H262.67L260.737 71.2898H260.657L258.723 65.3636H257.132L259.926 73.0994L259.707 73.701C259.335 74.6953 258.803 74.7798 257.982 74.5611L257.624 75.794C257.783 75.8686 258.156 75.968 258.619 75.968Z" fill="#1A1A1A"/>
<rect x="140" y="167" width="350" height="34" fill="white"/>
<path d="M169.833 178.167V189.833H158.167V178.167H169.833ZM169.833 176.5H158.167C157.25 176.5 156.5 177.25 156.5 178.167V189.833C156.5 190.75 157.25 191.5 158.167 191.5H169.833C170.75 191.5 171.5 190.75 171.5 189.833V178.167C171.5 177.25 170.75 176.5 169.833 176.5Z" fill="#CCCCCC"/>
<path d="M193.337 178.818H191.815V186.295H191.721L186.54 178.818H185.119V189H186.655V181.533H186.749L191.925 189H193.337V178.818ZM198.749 189.154C200.415 189.154 201.593 188.334 201.931 187.091L200.524 186.837C200.256 187.558 199.61 187.926 198.764 187.926C197.492 187.926 196.637 187.101 196.597 185.629H202.026V185.102C202.026 182.343 200.375 181.264 198.645 181.264C196.517 181.264 195.115 182.885 195.115 185.232C195.115 187.603 196.497 189.154 198.749 189.154ZM196.602 184.516C196.661 183.432 197.447 182.492 198.655 182.492C199.808 182.492 200.564 183.347 200.569 184.516H196.602ZM207.24 181.364H205.674V179.534H204.187V181.364H203.069V182.557H204.187V187.066C204.182 188.453 205.241 189.124 206.414 189.099C206.887 189.094 207.205 189.005 207.379 188.94L207.11 187.712C207.011 187.732 206.827 187.777 206.588 187.777C206.106 187.777 205.674 187.618 205.674 186.758V182.557H207.24V181.364ZM210.54 189H212.051L213.602 183.487H213.716L215.268 189H216.784L219.026 181.364H217.49L216.003 186.947H215.929L214.437 181.364H212.901L211.4 186.972H211.325L209.829 181.364H208.292L210.54 189ZM223.421 189.154C225.574 189.154 226.981 187.578 226.981 185.217C226.981 182.84 225.574 181.264 223.421 181.264C221.268 181.264 219.861 182.84 219.861 185.217C219.861 187.578 221.268 189.154 223.421 189.154ZM223.426 187.906C222.019 187.906 221.363 186.678 221.363 185.212C221.363 183.75 222.019 182.507 223.426 182.507C224.823 182.507 225.479 183.75 225.479 185.212C225.479 186.678 224.823 187.906 223.426 187.906ZM228.64 189H230.126V184.337C230.126 183.342 230.897 182.621 231.926 182.621C232.214 182.621 232.438 182.681 232.617 182.771L233.094 181.528C232.841 181.359 232.513 181.249 232.095 181.249C231.19 181.249 230.435 181.756 230.156 182.577H230.077V181.364H228.64V189ZM234.218 189H235.705V186.29L236.445 185.55L239.04 189H240.865L237.564 184.64L240.656 181.364H238.876L235.834 184.595H235.705V178.818H234.218V189Z" fill="#1A1A1A"/>
<rect x="140" y="201" width="350" height="34" fill="white" fill-opacity="0.01"/>
<path d="M169.833 212.167V223.833H158.167V212.167H169.833ZM169.833 210.5H158.167C157.25 210.5 156.5 211.25 156.5 212.167V223.833C156.5 224.75 157.25 225.5 158.167 225.5H169.833C170.75 225.5 171.5 224.75 171.5 223.833V212.167C171.5 211.25 170.75 210.5 169.833 210.5Z" fill="#CCCCCC"/>
<path d="M190.672 215.493H192.153C192.109 213.862 190.667 212.679 188.599 212.679C186.555 212.679 184.989 213.847 184.989 215.602C184.989 217.019 186.004 217.849 187.639 218.292L188.842 218.62C189.931 218.908 190.771 219.266 190.771 220.171C190.771 221.165 189.822 221.822 188.514 221.822C187.331 221.822 186.347 221.295 186.257 220.186H184.716C184.815 222.031 186.242 223.169 188.524 223.169C190.915 223.169 192.293 221.911 192.293 220.186C192.293 218.352 190.657 217.641 189.364 217.322L188.37 217.064C187.575 216.86 186.516 216.487 186.521 215.513C186.521 214.648 187.311 214.006 188.564 214.006C189.732 214.006 190.562 214.553 190.672 215.493ZM198.846 219.833C198.851 221.131 197.887 221.747 197.052 221.747C196.132 221.747 195.496 221.081 195.496 220.042V215.364H194.009V220.221C194.009 222.115 195.048 223.099 196.515 223.099C197.663 223.099 198.444 222.493 198.797 221.678H198.876V223H200.338V215.364H198.846V219.833ZM202.455 223H203.906V221.812H204.031C204.299 222.299 204.846 223.149 206.238 223.149C208.087 223.149 209.43 221.668 209.43 219.197C209.43 216.721 208.067 215.264 206.223 215.264C204.806 215.264 204.294 216.129 204.031 216.602H203.941V212.818H202.455V223ZM203.911 219.182C203.911 217.586 204.607 216.527 205.905 216.527C207.252 216.527 207.928 217.665 207.928 219.182C207.928 220.713 207.232 221.881 205.905 221.881C204.627 221.881 203.911 220.788 203.911 219.182ZM219.675 216.129C219.327 213.952 217.622 212.679 215.469 212.679C212.834 212.679 210.89 214.653 210.89 217.909C210.89 221.165 212.824 223.139 215.469 223.139C217.706 223.139 219.342 221.737 219.675 219.724L218.124 219.719C217.86 221.021 216.767 221.737 215.479 221.737C213.734 221.737 212.416 220.4 212.416 217.909C212.416 215.438 213.729 214.081 215.484 214.081C216.781 214.081 217.87 214.812 218.124 216.129H219.675ZM222.88 218.466C222.88 217.248 223.651 216.552 224.71 216.552C225.734 216.552 226.346 217.203 226.346 218.322V223H227.832V218.143C227.832 216.239 226.788 215.264 225.217 215.264C224.029 215.264 223.313 215.781 222.955 216.607H222.86V212.818H221.394V223H222.88V218.466ZM232.038 223.169C233.301 223.169 234.012 222.528 234.295 221.956H234.355V223H235.806V217.929C235.806 215.707 234.056 215.264 232.843 215.264C231.461 215.264 230.189 215.821 229.691 217.213L231.088 217.531C231.307 216.989 231.864 216.467 232.863 216.467C233.823 216.467 234.315 216.969 234.315 217.835V217.869C234.315 218.411 233.758 218.401 232.386 218.56C230.939 218.729 229.458 219.107 229.458 220.842C229.458 222.344 230.586 223.169 232.038 223.169ZM232.361 221.976C231.521 221.976 230.914 221.598 230.914 220.862C230.914 220.067 231.62 219.783 232.48 219.669C232.963 219.604 234.106 219.475 234.32 219.261V220.246C234.32 221.151 233.599 221.976 232.361 221.976ZM239.273 218.466C239.273 217.248 240.019 216.552 241.053 216.552C242.062 216.552 242.673 217.213 242.673 218.322V223H244.16V218.143C244.16 216.254 243.121 215.264 241.56 215.264C240.411 215.264 239.661 215.796 239.308 216.607H239.213V215.364H237.786V223H239.273V218.466ZM247.64 218.466C247.64 217.248 248.386 216.552 249.42 216.552C250.429 216.552 251.041 217.213 251.041 218.322V223H252.527V218.143C252.527 216.254 251.488 215.264 249.927 215.264C248.779 215.264 248.028 215.796 247.675 216.607H247.58V215.364H246.154V223H247.64V218.466ZM257.812 223.154C259.477 223.154 260.656 222.334 260.994 221.091L259.587 220.837C259.318 221.558 258.672 221.926 257.827 221.926C256.554 221.926 255.699 221.101 255.659 219.629H261.088V219.102C261.088 216.343 259.438 215.264 257.708 215.264C255.58 215.264 254.178 216.885 254.178 219.232C254.178 221.603 255.56 223.154 257.812 223.154ZM255.664 218.516C255.724 217.432 256.509 216.492 257.718 216.492C258.871 216.492 259.627 217.347 259.632 218.516H255.664ZM264.224 212.818H262.738V223H264.224V212.818Z" fill="#1A1A1A"/>
<rect x="140" y="242" width="350" height="1" fill="#E6E6E6"/>
<rect x="385" y="54" width="91" height="28" fill="white"/>
<path d="M396.512 72L397.314 69.6903H400.723L401.52 72H402.917L399.777 63.2727H398.255L395.115 72H396.512ZM397.697 68.5824L398.984 64.858H399.052L400.339 68.5824H397.697ZM407.165 65.4545H405.754V64.8665C405.754 64.2869 405.993 63.9716 406.615 63.9716C406.879 63.9716 407.067 64.0312 407.186 64.0696L407.484 63.0384C407.305 62.9702 406.935 62.8636 406.419 62.8636C405.384 62.8636 404.476 63.4688 404.476 64.696V65.4545H403.466V66.4773H404.476V72H405.754V66.4773H407.165V65.4545ZM411.618 65.4545H410.207V64.8665C410.207 64.2869 410.446 63.9716 411.068 63.9716C411.332 63.9716 411.52 64.0312 411.639 64.0696L411.938 63.0384C411.759 62.9702 411.388 62.8636 410.872 62.8636C409.837 62.8636 408.929 63.4688 408.929 64.696V65.4545H407.919V66.4773H408.929V72H410.207V66.4773H411.618V65.4545ZM415.498 72.1321C416.925 72.1321 417.935 71.429 418.225 70.3636L417.019 70.1463C416.789 70.7642 416.235 71.0795 415.511 71.0795C414.42 71.0795 413.687 70.3722 413.653 69.1108H418.306V68.6591C418.306 66.294 416.891 65.3693 415.408 65.3693C413.585 65.3693 412.383 66.7585 412.383 68.7699C412.383 70.8026 413.567 72.1321 415.498 72.1321ZM413.657 68.1562C413.708 67.2273 414.381 66.4219 415.417 66.4219C416.406 66.4219 417.053 67.1548 417.058 68.1562H413.657ZM422.477 72.1321C424.024 72.1321 425.025 71.2031 425.166 69.929H423.926C423.764 70.6364 423.214 71.054 422.485 71.054C421.407 71.054 420.713 70.1548 420.713 68.7273C420.713 67.3253 421.42 66.4432 422.485 66.4432C423.295 66.4432 423.789 66.9545 423.926 67.5682H425.166C425.029 66.2472 423.951 65.3693 422.464 65.3693C420.619 65.3693 419.426 66.7585 419.426 68.7571C419.426 70.7301 420.576 72.1321 422.477 72.1321ZM429.584 65.4545H428.241V63.8864H426.967V65.4545H426.009V66.4773H426.967V70.3423C426.963 71.5312 427.871 72.1065 428.876 72.0852C429.281 72.081 429.554 72.0043 429.703 71.9489L429.473 70.8963C429.388 70.9134 429.23 70.9517 429.026 70.9517C428.612 70.9517 428.241 70.8153 428.241 70.0781V66.4773H429.584V65.4545ZM435.793 67.0526C435.528 66.0341 434.732 65.3693 433.317 65.3693C431.838 65.3693 430.79 66.1491 430.79 67.3082C430.79 68.2372 431.352 68.8551 432.58 69.1278L433.688 69.3707C434.318 69.5114 434.612 69.7926 434.612 70.2017C434.612 70.7088 434.071 71.1051 433.236 71.1051C432.473 71.1051 431.983 70.777 431.83 70.1335L430.598 70.321C430.811 71.4801 431.774 72.1321 433.244 72.1321C434.825 72.1321 435.92 71.2926 435.92 70.108C435.92 69.1832 435.332 68.6122 434.131 68.3352L433.091 68.0966C432.371 67.9261 432.06 67.6832 432.064 67.2401C432.06 66.7372 432.605 66.3793 433.33 66.3793C434.122 66.3793 434.489 66.8182 434.638 67.2571L435.793 67.0526ZM440.48 72H446.224V70.8707H442.295V70.8068L444.03 68.9915C445.628 67.3764 446.084 66.6051 446.084 65.6293C446.084 64.2273 444.942 63.1534 443.297 63.1534C441.665 63.1534 440.472 64.2102 440.472 65.804H441.729C441.724 64.8665 442.33 64.2528 443.271 64.2528C444.158 64.2528 444.831 64.7983 444.831 65.6676C444.831 66.4389 444.371 66.9929 443.433 67.9858L440.48 71.0455V72Z" fill="#999999"/>
<path fill-rule="evenodd" clip-rule="evenodd" d="M456.65 65.35L455.5 66.5V63.5H458.5L457.35 64.65L458.795 66.085L458.085 66.795L456.65 65.35ZM462.65 64.65L461.5 63.5H464.5V66.5L463.35 65.35L461.915 66.795L461.205 66.085L462.65 64.65ZM458.5 72.5L457.35 71.35L458.795 69.915L458.085 69.205L456.65 70.65L455.5 69.5V72.5H458.5ZM463.35 70.65L464.5 69.5V72.5H461.5L462.65 71.35L461.205 69.915L461.915 69.205L463.35 70.65Z" fill="#666666" fill-opacity="0.5"/>
<rect x="385" y="170" width="91" height="28" fill="white"/>
<path d="M396.126 188L396.927 185.69H400.336L401.133 188H402.531L399.39 179.273H397.869L394.728 188H396.126ZM397.31 184.582L398.597 180.858H398.665L399.952 184.582H397.31ZM406.778 181.455H405.368V180.866C405.368 180.287 405.606 179.972 406.228 179.972C406.493 179.972 406.68 180.031 406.799 180.07L407.098 179.038C406.919 178.97 406.548 178.864 406.032 178.864C404.997 178.864 404.089 179.469 404.089 180.696V181.455H403.079V182.477H404.089V188H405.368V182.477H406.778V181.455ZM411.231 181.455H409.821V180.866C409.821 180.287 410.059 179.972 410.681 179.972C410.946 179.972 411.133 180.031 411.252 180.07L411.551 179.038C411.372 178.97 411.001 178.864 410.485 178.864C409.45 178.864 408.542 179.469 408.542 180.696V181.455H407.532V182.477H408.542V188H409.821V182.477H411.231V181.455ZM415.111 188.132C416.539 188.132 417.549 187.429 417.838 186.364L416.632 186.146C416.402 186.764 415.848 187.08 415.124 187.08C414.033 187.08 413.3 186.372 413.266 185.111H417.919V184.659C417.919 182.294 416.505 181.369 415.022 181.369C413.198 181.369 411.996 182.759 411.996 184.77C411.996 186.803 413.181 188.132 415.111 188.132ZM413.27 184.156C413.321 183.227 413.995 182.422 415.03 182.422C416.019 182.422 416.667 183.155 416.671 184.156H413.27ZM422.09 188.132C423.637 188.132 424.638 187.203 424.779 185.929H423.539C423.377 186.636 422.827 187.054 422.099 187.054C421.021 187.054 420.326 186.155 420.326 184.727C420.326 183.325 421.033 182.443 422.099 182.443C422.908 182.443 423.403 182.955 423.539 183.568H424.779C424.643 182.247 423.565 181.369 422.077 181.369C420.232 181.369 419.039 182.759 419.039 184.757C419.039 186.73 420.19 188.132 422.09 188.132ZM429.197 181.455H427.855V179.886H426.581V181.455H425.622V182.477H426.581V186.342C426.576 187.531 427.484 188.107 428.49 188.085C428.895 188.081 429.167 188.004 429.316 187.949L429.086 186.896C429.001 186.913 428.843 186.952 428.639 186.952C428.225 186.952 427.855 186.815 427.855 186.078V182.477H429.197V181.455ZM435.406 183.053C435.142 182.034 434.345 181.369 432.93 181.369C431.451 181.369 430.403 182.149 430.403 183.308C430.403 184.237 430.966 184.855 432.193 185.128L433.301 185.371C433.931 185.511 434.225 185.793 434.225 186.202C434.225 186.709 433.684 187.105 432.849 187.105C432.086 187.105 431.596 186.777 431.443 186.134L430.211 186.321C430.424 187.48 431.387 188.132 432.858 188.132C434.439 188.132 435.534 187.293 435.534 186.108C435.534 185.183 434.946 184.612 433.744 184.335L432.704 184.097C431.984 183.926 431.673 183.683 431.677 183.24C431.673 182.737 432.218 182.379 432.943 182.379C433.735 182.379 434.102 182.818 434.251 183.257L435.406 183.053ZM443.132 188.145C445.147 188.145 446.328 186.5 446.328 183.641C446.328 180.803 445.13 179.153 443.132 179.153C441.129 179.153 439.936 180.798 439.931 183.641C439.931 186.496 441.112 188.141 443.132 188.145ZM443.132 187.007C441.951 187.007 441.24 185.822 441.24 183.641C441.244 181.467 441.956 180.27 443.132 180.27C444.304 180.27 445.02 181.467 445.02 183.641C445.02 185.822 444.308 187.007 443.132 187.007Z" fill="#999999"/>
<path fill-rule="evenodd" clip-rule="evenodd" d="M456.65 181.35L455.5 182.5V179.5H458.5L457.35 180.65L458.795 182.085L458.085 182.795L456.65 181.35ZM462.65 180.65L461.5 179.5H464.5V182.5L463.35 181.35L461.915 182.795L461.205 182.085L462.65 180.65ZM458.5 188.5L457.35 187.35L458.795 185.915L458.085 185.205L456.65 186.65L455.5 185.5V188.5H458.5ZM463.35 186.65L464.5 185.5V188.5H461.5L462.65 187.35L461.205 185.915L461.915 185.205L463.35 186.65Z" fill="#666666" fill-opacity="0.5"/>
<rect x="385" y="204" width="91" height="28" fill="white"/>
<path d="M396.137 222L396.939 219.69H400.348L401.145 222H402.542L399.402 213.273H397.88L394.74 222H396.137ZM397.322 218.582L398.609 214.858H398.677L399.964 218.582H397.322ZM406.79 215.455H405.379V214.866C405.379 214.287 405.618 213.972 406.24 213.972C406.504 213.972 406.692 214.031 406.811 214.07L407.109 213.038C406.93 212.97 406.56 212.864 406.044 212.864C405.009 212.864 404.101 213.469 404.101 214.696V215.455H403.091V216.477H404.101V222H405.379V216.477H406.79V215.455ZM411.243 215.455H409.832V214.866C409.832 214.287 410.071 213.972 410.693 213.972C410.957 213.972 411.145 214.031 411.264 214.07L411.562 213.038C411.384 212.97 411.013 212.864 410.497 212.864C409.462 212.864 408.554 213.469 408.554 214.696V215.455H407.544V216.477H408.554V222H409.832V216.477H411.243V215.455ZM415.123 222.132C416.55 222.132 417.56 221.429 417.85 220.364L416.644 220.146C416.414 220.764 415.86 221.08 415.136 221.08C414.045 221.08 413.312 220.372 413.278 219.111H417.931V218.659C417.931 216.294 416.516 215.369 415.033 215.369C413.21 215.369 412.008 216.759 412.008 218.77C412.008 220.803 413.192 222.132 415.123 222.132ZM413.282 218.156C413.333 217.227 414.006 216.422 415.042 216.422C416.031 216.422 416.678 217.155 416.683 218.156H413.282ZM422.102 222.132C423.649 222.132 424.65 221.203 424.791 219.929H423.551C423.389 220.636 422.839 221.054 422.11 221.054C421.032 221.054 420.338 220.155 420.338 218.727C420.338 217.325 421.045 216.443 422.11 216.443C422.92 216.443 423.414 216.955 423.551 217.568H424.791C424.654 216.247 423.576 215.369 422.089 215.369C420.244 215.369 419.051 216.759 419.051 218.757C419.051 220.73 420.201 222.132 422.102 222.132ZM429.209 215.455H427.866V213.886H426.592V215.455H425.634V216.477H426.592V220.342C426.588 221.531 427.496 222.107 428.501 222.085C428.906 222.081 429.179 222.004 429.328 221.949L429.098 220.896C429.013 220.913 428.855 220.952 428.651 220.952C428.237 220.952 427.866 220.815 427.866 220.078V216.477H429.209V215.455ZM435.418 217.053C435.153 216.034 434.357 215.369 432.942 215.369C431.463 215.369 430.415 216.149 430.415 217.308C430.415 218.237 430.977 218.855 432.205 219.128L433.312 219.371C433.943 219.511 434.237 219.793 434.237 220.202C434.237 220.709 433.696 221.105 432.861 221.105C432.098 221.105 431.608 220.777 431.455 220.134L430.223 220.321C430.436 221.48 431.399 222.132 432.869 222.132C434.45 222.132 435.545 221.293 435.545 220.108C435.545 219.183 434.957 218.612 433.756 218.335L432.716 218.097C431.996 217.926 431.685 217.683 431.689 217.24C431.685 216.737 432.23 216.379 432.955 216.379C433.747 216.379 434.114 216.818 434.263 217.257L435.418 217.053ZM443.143 222.119C444.925 222.119 446.233 221.054 446.229 219.605C446.233 218.501 445.564 217.709 444.405 217.53V217.462C445.317 217.227 445.909 216.511 445.905 215.531C445.909 214.249 444.857 213.153 443.178 213.153C441.575 213.153 440.288 214.121 440.246 215.54H441.52C441.55 214.739 442.304 214.253 443.161 214.253C444.051 214.253 444.635 214.794 444.631 215.599C444.635 216.443 443.957 216.997 442.99 216.997H442.253V218.071H442.99C444.2 218.071 444.899 218.685 444.899 219.562C444.899 220.411 444.162 220.986 443.135 220.986C442.189 220.986 441.452 220.5 441.401 219.724H440.062C440.118 221.148 441.379 222.119 443.143 222.119Z" fill="#999999"/>
<path fill-rule="evenodd" clip-rule="evenodd" d="M456.65 215.35L455.5 216.5V213.5H458.5L457.35 214.65L458.795 216.085L458.085 216.795L456.65 215.35ZM462.65 214.65L461.5 213.5H464.5V216.5L463.35 215.35L461.915 216.795L461.205 216.085L462.65 214.65ZM458.5 222.5L457.35 221.35L458.795 219.915L458.085 219.205L456.65 220.65L455.5 219.5V222.5H458.5ZM463.35 220.65L464.5 219.5V222.5H461.5L462.65 221.35L461.205 219.915L461.915 219.205L463.35 220.65Z" fill="#666666" fill-opacity="0.5"/>
<rect x="184.75" y="85.75" width="290.5" height="70.5" rx="2.25" fill="white" stroke="#5AB2F2" stroke-width="1.5"/>
<path d="M199.321 108.179C200.653 108.179 201.349 107.463 201.588 106.966H201.648V108H202.821V102.969C202.821 100.543 200.972 100.264 199.997 100.264C198.844 100.264 197.531 100.662 196.935 102.054L198.048 102.452C198.307 101.895 198.918 101.298 200.037 101.298C201.116 101.298 201.648 101.87 201.648 102.849V102.889C201.648 103.456 201.071 103.406 199.679 103.585C198.262 103.769 196.716 104.082 196.716 105.832C196.716 107.324 197.869 108.179 199.321 108.179ZM199.5 107.125C198.565 107.125 197.889 106.707 197.889 105.892C197.889 104.997 198.705 104.719 199.619 104.599C200.116 104.54 201.449 104.401 201.648 104.162V105.236C201.648 106.19 200.892 107.125 199.5 107.125ZM207.846 108.159C209.318 108.159 209.815 107.244 210.073 106.827H210.213V108H211.346V97.8182H210.173V101.577H210.073C209.815 101.179 209.357 100.264 207.866 100.264C205.937 100.264 204.605 101.795 204.605 104.202C204.605 106.628 205.937 108.159 207.846 108.159ZM208.005 107.105C206.534 107.105 205.778 105.812 205.778 104.182C205.778 102.571 206.514 101.318 208.005 101.318C209.437 101.318 210.193 102.472 210.193 104.182C210.193 105.912 209.417 107.105 208.005 107.105ZM216.541 108.159C218.013 108.159 218.51 107.244 218.769 106.827H218.908V108H220.041V97.8182H218.868V101.577H218.769C218.51 101.179 218.053 100.264 216.561 100.264C214.632 100.264 213.3 101.795 213.3 104.202C213.3 106.628 214.632 108.159 216.541 108.159ZM216.7 107.105C215.229 107.105 214.473 105.812 214.473 104.182C214.473 102.571 215.209 101.318 216.7 101.318C218.132 101.318 218.888 102.472 218.888 104.182C218.888 105.912 218.112 107.105 216.7 107.105ZM228.538 108.179C229.87 108.179 230.566 107.463 230.805 106.966H230.865V108H232.038V102.969C232.038 100.543 230.188 100.264 229.214 100.264C228.061 100.264 226.748 100.662 226.151 102.054L227.265 102.452C227.524 101.895 228.135 101.298 229.254 101.298C230.333 101.298 230.865 101.87 230.865 102.849V102.889C230.865 103.456 230.288 103.406 228.896 103.585C227.479 103.769 225.933 104.082 225.933 105.832C225.933 107.324 227.086 108.179 228.538 108.179ZM228.717 107.125C227.782 107.125 227.106 106.707 227.106 105.892C227.106 104.997 227.921 104.719 228.836 104.599C229.333 104.54 230.666 104.401 230.865 104.162V105.236C230.865 106.19 230.109 107.125 228.717 107.125ZM239.29 103.406C239.29 102.074 240.115 101.318 241.239 101.318C242.328 101.318 242.989 102.029 242.989 103.227V108H244.162V103.148C244.162 101.199 243.123 100.264 241.577 100.264C240.424 100.264 239.708 100.781 239.35 101.557H239.25V100.364H238.117V108H239.29V103.406ZM249.409 108.159C251.477 108.159 252.869 106.588 252.869 104.222C252.869 101.835 251.477 100.264 249.409 100.264C247.34 100.264 245.948 101.835 245.948 104.222C245.948 106.588 247.34 108.159 249.409 108.159ZM249.409 107.105C247.838 107.105 247.122 105.753 247.122 104.222C247.122 102.69 247.838 101.318 249.409 101.318C250.98 101.318 251.695 102.69 251.695 104.222C251.695 105.753 250.98 107.105 249.409 107.105ZM257.981 100.364H256.35V98.5341H255.177V100.364H254.023V101.358H255.177V106.131C255.177 107.463 256.251 108.099 257.245 108.099C257.683 108.099 257.961 108.02 258.12 107.96L257.881 106.906C257.782 106.926 257.623 106.966 257.364 106.966C256.847 106.966 256.35 106.807 256.35 105.812V101.358H257.981V100.364ZM262.865 108.159C264.417 108.159 265.55 107.384 265.908 106.23L264.775 105.912C264.476 106.707 263.785 107.105 262.865 107.105C261.488 107.105 260.539 106.215 260.484 104.58H266.027V104.082C266.027 101.239 264.337 100.264 262.746 100.264C260.678 100.264 259.306 101.895 259.306 104.241C259.306 106.588 260.658 108.159 262.865 108.159ZM260.484 103.565C260.564 102.377 261.404 101.318 262.746 101.318C264.019 101.318 264.834 102.273 264.834 103.565H260.484Z" fill="#999999"/>
<path d="M196.5 94V112" stroke="#1A1A1A"/>
<rect x="0.5" y="0.5" width="509" height="339" rx="3.5" stroke="#E5E5E5"/>
</svg>
