<svg width="898" height="305" viewBox="0 0 898 305" fill="none" xmlns="http://www.w3.org/2000/svg">
<rect x="1" y="1" width="896" height="303" rx="4" fill="white"/>
<rect x="215" y="118" width="320" height="36" stroke="#E5E5E5"/>
<rect x="215" y="154" width="320" height="36" stroke="#E5E5E5"/>
<rect x="215" y="190" width="320" height="36" stroke="#E5E5E5"/>
<rect x="55" y="118" width="160" height="36" stroke="#E5E5E5"/>
<rect x="55" y="154" width="160" height="36" stroke="#E5E5E5"/>
<rect x="55" y="190" width="160" height="36" stroke="#E5E5E5"/>
<rect x="535" y="118" width="305" height="36" stroke="#E5E5E5"/>
<rect x="535" y="154" width="305" height="36" stroke="#E5E5E5"/>
<rect x="535" y="190" width="305" height="36" stroke="#E5E5E5"/>
<path d="M70.1186 141H74.0213C76.3878 141 77.4567 139.822 77.4567 138.261C77.4567 136.685 76.353 135.795 75.3438 135.74V135.641C76.2784 135.402 77.0589 134.766 77.0589 133.493C77.0589 131.987 76.0149 130.818 73.8473 130.818H70.1186V141ZM71.6548 139.683V136.421H73.9268C75.1598 136.421 75.9304 137.217 75.9304 138.186C75.9304 139.041 75.3487 139.683 73.8722 139.683H71.6548ZM71.6548 135.223V132.126H73.7528C74.9709 132.126 75.5526 132.767 75.5526 133.612C75.5526 134.597 74.7472 135.223 73.7131 135.223H71.6548ZM79.1594 141H80.646V136.337C80.646 135.342 81.4165 134.621 82.4457 134.621C82.734 134.621 82.9577 134.681 83.1367 134.771L83.614 133.528C83.3604 133.359 83.0323 133.249 82.6147 133.249C81.7099 133.249 80.9542 133.756 80.6758 134.577H80.5962V133.364H79.1594V141ZM86.8915 141.169C88.1543 141.169 88.8652 140.528 89.1486 139.956H89.2083V141H90.66V135.929C90.66 133.707 88.91 133.264 87.6969 133.264C86.3148 133.264 85.0421 133.821 84.5449 135.213L85.9419 135.531C86.1607 134.989 86.7175 134.467 87.7168 134.467C88.6763 134.467 89.1685 134.969 89.1685 135.835V135.869C89.1685 136.411 88.6117 136.401 87.2395 136.56C85.7928 136.729 84.3113 137.107 84.3113 138.842C84.3113 140.344 85.4398 141.169 86.8915 141.169ZM87.2147 139.976C86.3745 139.976 85.7679 139.598 85.7679 138.862C85.7679 138.067 86.4739 137.783 87.334 137.669C87.8162 137.604 88.9597 137.475 89.1735 137.261V138.246C89.1735 139.151 88.4526 139.976 87.2147 139.976ZM94.1264 136.466C94.1264 135.248 94.8722 134.552 95.9062 134.552C96.9155 134.552 97.527 135.213 97.527 136.322V141H99.0135V136.143C99.0135 134.254 97.9744 133.264 96.4134 133.264C95.2649 133.264 94.5142 133.796 94.1612 134.607H94.0668V133.364H92.6399V141H94.1264V136.466ZM103.866 141.149C105.258 141.149 105.805 140.299 106.073 139.812H106.197V141H107.649V130.818H106.163V134.602H106.073C105.805 134.129 105.298 133.264 103.876 133.264C102.031 133.264 100.674 134.721 100.674 137.197C100.674 139.668 102.011 141.149 103.866 141.149ZM104.194 139.881C102.866 139.881 102.175 138.713 102.175 137.182C102.175 135.665 102.852 134.527 104.194 134.527C105.491 134.527 106.188 135.586 106.188 137.182C106.188 138.788 105.477 139.881 104.194 139.881Z" fill="black"/>
<path d="M78.5753 170.129C78.2273 167.952 76.522 166.679 74.3693 166.679C71.7344 166.679 69.7905 168.653 69.7905 171.909C69.7905 175.165 71.7244 177.139 74.3693 177.139C76.6065 177.139 78.2422 175.737 78.5753 173.724L77.0241 173.719C76.7607 175.021 75.6669 175.737 74.3793 175.737C72.6342 175.737 71.3168 174.4 71.3168 171.909C71.3168 169.438 72.6293 168.081 74.3842 168.081C75.6818 168.081 76.7706 168.812 77.0241 170.129H78.5753ZM80.2942 177H81.7807V169.364H80.2942V177ZM81.0449 168.185C81.557 168.185 81.9846 167.788 81.9846 167.3C81.9846 166.813 81.557 166.411 81.0449 166.411C80.5279 166.411 80.1053 166.813 80.1053 167.3C80.1053 167.788 80.5279 168.185 81.0449 168.185ZM87.3452 169.364H85.7791V167.534H84.2926V169.364H83.174V170.557H84.2926V175.066C84.2876 176.453 85.3466 177.124 86.5199 177.099C86.9922 177.094 87.3104 177.005 87.4844 176.94L87.2159 175.712C87.1165 175.732 86.9325 175.777 86.6939 175.777C86.2116 175.777 85.7791 175.618 85.7791 174.758V170.557H87.3452V169.364ZM89.8745 179.968C91.1074 179.968 91.9078 179.302 92.3404 178.114L95.5222 169.364H93.9263L91.9924 175.29H91.9128L89.9789 169.364H88.388L91.182 177.099L90.9632 177.701C90.5904 178.695 90.0584 178.78 89.2381 178.561L88.8801 179.794C89.0392 179.869 89.4121 179.968 89.8745 179.968Z" fill="black"/>
<path d="M78.3366 202.818H76.8153V210.295H76.7209L71.5405 202.818H70.1186V213H71.6548V205.533H71.7493L76.9247 213H78.3366V202.818ZM83.7495 213.154C85.415 213.154 86.5932 212.334 86.9313 211.091L85.5243 210.837C85.2559 211.558 84.6096 211.926 83.7644 211.926C82.4917 211.926 81.6365 211.101 81.5968 209.629H87.0257V209.102C87.0257 206.343 85.3752 205.264 83.6451 205.264C81.5172 205.264 80.1152 206.885 80.1152 209.232C80.1152 211.603 81.4973 213.154 83.7495 213.154ZM81.6017 208.516C81.6614 207.432 82.4469 206.492 83.655 206.492C84.8084 206.492 85.5641 207.347 85.5691 208.516H81.6017ZM92.2397 205.364H90.6737V203.534H89.1871V205.364H88.0685V206.557H89.1871V211.066C89.1822 212.453 90.2411 213.124 91.4144 213.099C91.8867 213.094 92.2049 213.005 92.3789 212.94L92.1104 211.712C92.011 211.732 91.8271 211.777 91.5884 211.777C91.1062 211.777 90.6737 211.618 90.6737 210.758V206.557H92.2397V205.364ZM95.5396 213H97.051L98.6021 207.487H98.7164L100.268 213H101.784L104.026 205.364H102.49L101.003 210.947H100.929L99.4373 205.364H97.9011L96.3997 210.972H96.3251L94.8287 205.364H93.2924L95.5396 213ZM108.421 213.154C110.574 213.154 111.981 211.578 111.981 209.217C111.981 206.84 110.574 205.264 108.421 205.264C106.268 205.264 104.861 206.84 104.861 209.217C104.861 211.578 106.268 213.154 108.421 213.154ZM108.426 211.906C107.019 211.906 106.363 210.678 106.363 209.212C106.363 207.75 107.019 206.507 108.426 206.507C109.823 206.507 110.479 207.75 110.479 209.212C110.479 210.678 109.823 211.906 108.426 211.906ZM113.64 213H115.126V208.337C115.126 207.342 115.897 206.621 116.926 206.621C117.214 206.621 117.438 206.681 117.617 206.771L118.094 205.528C117.841 205.359 117.513 205.249 117.095 205.249C116.19 205.249 115.435 205.756 115.156 206.577H115.077V205.364H113.64V213ZM119.218 213H120.705V210.29L121.445 209.55L124.04 213H125.865L122.564 208.64L125.656 205.364H123.876L120.834 208.595H120.705V202.818H119.218V213Z" fill="black"/>
<rect x="55" y="82" width="785" height="36" fill="#E5F5FF" stroke="#33ABFF"/>
<path d="M71.6399 105L72.3956 102.678H76.0696L76.8253 105H79.1321L75.6222 94.8182H72.848L69.3331 105H71.6399ZM72.9425 100.998L74.1953 97.1449H74.2749L75.5277 100.998H72.9425ZM83.4126 105.149C85.446 105.149 86.7237 103.956 86.8232 102.201H84.8246C84.7003 103.016 84.1634 103.474 83.4375 103.474C82.4482 103.474 81.8068 102.643 81.8068 101.182C81.8068 99.7401 82.4531 98.9148 83.4375 98.9148C84.2131 98.9148 84.7102 99.4268 84.8246 100.188H86.8232C86.7337 98.4226 85.3963 97.2642 83.4027 97.2642C81.0859 97.2642 79.6541 98.87 79.6541 101.212C79.6541 103.533 81.0611 105.149 83.4126 105.149ZM91.6294 105.149C93.6628 105.149 94.9405 103.956 95.04 102.201H93.0414C92.9171 103.016 92.3801 103.474 91.6543 103.474C90.665 103.474 90.0236 102.643 90.0236 101.182C90.0236 99.7401 90.6699 98.9148 91.6543 98.9148C92.4299 98.9148 92.927 99.4268 93.0414 100.188H95.04C94.9505 98.4226 93.6131 97.2642 91.6195 97.2642C89.3027 97.2642 87.8709 98.87 87.8709 101.212C87.8709 103.533 89.2779 105.149 91.6294 105.149ZM99.8462 105.149C102.163 105.149 103.605 103.563 103.605 101.212C103.605 98.8452 102.163 97.2642 99.8462 97.2642C97.5295 97.2642 96.0877 98.8452 96.0877 101.212C96.0877 103.563 97.5295 105.149 99.8462 105.149ZM99.8562 103.509C98.7873 103.509 98.2404 102.529 98.2404 101.197C98.2404 99.8643 98.7873 98.88 99.8562 98.88C100.905 98.88 101.452 99.8643 101.452 101.197C101.452 102.529 100.905 103.509 99.8562 103.509ZM109.879 101.749C109.884 102.773 109.183 103.31 108.422 103.31C107.622 103.31 107.105 102.748 107.1 101.848V97.3636H104.982V102.226C104.987 104.011 106.031 105.099 107.567 105.099C108.716 105.099 109.541 104.508 109.884 103.613H109.963V105H111.997V97.3636H109.879V101.749ZM115.809 100.585C115.814 99.6009 116.4 99.0241 117.256 99.0241C118.106 99.0241 118.618 99.581 118.613 100.516V105H120.731V100.138C120.731 98.358 119.687 97.2642 118.096 97.2642C116.962 97.2642 116.142 97.821 115.799 98.7109H115.709V97.3636H113.691V105H115.809V100.585ZM126.462 97.3636H125.025V95.5341H122.907V97.3636H121.863V98.9545H122.907V102.932C122.897 104.428 123.916 105.169 125.452 105.104C125.999 105.085 126.387 104.975 126.601 104.906L126.268 103.33C126.163 103.349 125.94 103.399 125.741 103.399C125.318 103.399 125.025 103.24 125.025 102.653V98.9545H126.462V97.3636ZM130.733 96.593H133.851V105H135.979V96.593H139.096V94.8182H130.733V96.593ZM140.791 107.973C142.342 107.973 143.262 107.098 143.694 105.875L146.677 97.3636H144.435L142.839 102.972H142.76L141.179 97.3636H138.952L141.691 105.219L141.552 105.587C141.253 106.283 140.741 106.327 139.996 106.099L139.518 107.739C139.757 107.844 140.189 107.973 140.791 107.973ZM147.761 107.864H149.879V103.777H149.944C150.237 104.413 150.878 105.124 152.111 105.124C153.851 105.124 155.209 103.747 155.209 101.192C155.209 98.5668 153.792 97.2642 152.116 97.2642C150.839 97.2642 150.227 98.0249 149.944 98.6463H149.849V97.3636H147.761V107.864ZM149.834 101.182C149.834 99.8196 150.411 98.9496 151.44 98.9496C152.489 98.9496 153.046 99.8594 153.046 101.182C153.046 102.514 152.479 103.439 151.44 103.439C150.421 103.439 149.834 102.544 149.834 101.182ZM160.101 105.149C161.99 105.149 163.263 104.229 163.561 102.812L161.602 102.683C161.388 103.265 160.841 103.568 160.135 103.568C159.077 103.568 158.405 102.867 158.405 101.729V101.724H163.606V101.142C163.606 98.5469 162.035 97.2642 160.016 97.2642C157.769 97.2642 156.312 98.8601 156.312 101.217C156.312 103.638 157.749 105.149 160.101 105.149ZM158.405 100.411C158.45 99.5412 159.111 98.8452 160.051 98.8452C160.971 98.8452 161.607 99.5014 161.612 100.411H158.405Z" fill="#005E99"/>
<path d="M230.415 106L231.293 103.528H234.821L235.699 106H236.807L233.602 97.2727H232.511L229.307 106H230.415ZM231.625 102.591L233.023 98.6534H233.091L234.489 102.591H231.625ZM240.501 106.136C241.763 106.136 242.189 105.352 242.411 104.994H242.53V106H243.501V97.2727H242.496V100.494H242.411C242.189 100.153 241.797 99.3693 240.518 99.3693C238.865 99.3693 237.723 100.682 237.723 102.744C237.723 104.824 238.865 106.136 240.501 106.136ZM240.638 105.233C239.376 105.233 238.729 104.125 238.729 102.727C238.729 101.347 239.359 100.273 240.638 100.273C241.865 100.273 242.513 101.261 242.513 102.727C242.513 104.21 241.848 105.233 240.638 105.233ZM256.017 100C255.693 98.2102 254.261 97.1534 252.506 97.1534C250.273 97.1534 248.653 98.875 248.653 101.636C248.653 104.398 250.273 106.119 252.506 106.119C254.261 106.119 255.693 105.062 256.017 103.273H254.96C254.705 104.483 253.665 105.131 252.506 105.131C250.92 105.131 249.676 103.903 249.676 101.636C249.676 99.3693 250.92 98.142 252.506 98.142C253.665 98.142 254.705 98.7898 254.96 100H256.017ZM258.594 102.062C258.594 100.92 259.323 100.273 260.316 100.273C261.262 100.273 261.833 100.869 261.833 101.909V106H262.838V101.841C262.838 100.158 261.944 99.3693 260.605 99.3693C259.574 99.3693 258.986 99.7997 258.679 100.477H258.594V97.2727H257.588V106H258.594V102.062ZM266.604 106.153C267.746 106.153 268.343 105.54 268.548 105.114H268.599V106H269.604V101.688C269.604 99.608 268.019 99.3693 267.184 99.3693C266.195 99.3693 265.07 99.7102 264.559 100.903L265.513 101.244C265.735 100.767 266.259 100.256 267.218 100.256C268.143 100.256 268.599 100.746 268.599 101.585V101.619C268.599 102.105 268.104 102.062 266.911 102.216C265.697 102.374 264.371 102.642 264.371 104.142C264.371 105.42 265.36 106.153 266.604 106.153ZM266.758 105.25C265.957 105.25 265.377 104.892 265.377 104.193C265.377 103.426 266.076 103.188 266.86 103.085C267.286 103.034 268.428 102.915 268.599 102.71V103.631C268.599 104.449 267.951 105.25 266.758 105.25ZM272.446 102.062C272.446 100.92 273.153 100.273 274.116 100.273C275.049 100.273 275.616 100.882 275.616 101.909V106H276.622V101.841C276.622 100.17 275.731 99.3693 274.406 99.3693C273.417 99.3693 272.804 99.8125 272.497 100.477H272.412V99.4545H271.44V106H272.446V102.062ZM279.465 102.062C279.465 100.92 280.173 100.273 281.136 100.273C282.069 100.273 282.636 100.882 282.636 101.909V106H283.641V101.841C283.641 100.17 282.751 99.3693 281.425 99.3693C280.437 99.3693 279.823 99.8125 279.516 100.477H279.431V99.4545H278.46V106H279.465V102.062ZM288.223 106.136C289.553 106.136 290.525 105.472 290.831 104.483L289.86 104.21C289.604 104.892 289.012 105.233 288.223 105.233C287.043 105.233 286.229 104.47 286.182 103.068H290.934V102.642C290.934 100.205 289.485 99.3693 288.121 99.3693C286.348 99.3693 285.172 100.767 285.172 102.778C285.172 104.79 286.331 106.136 288.223 106.136ZM286.182 102.199C286.25 101.18 286.971 100.273 288.121 100.273C289.212 100.273 289.911 101.091 289.911 102.199H286.182ZM293.469 97.2727H292.463V106H293.469V97.2727ZM299.947 100.92C299.632 99.9915 298.925 99.3693 297.629 99.3693C296.249 99.3693 295.226 100.153 295.226 101.261C295.226 102.165 295.763 102.77 296.964 103.051L298.055 103.307C298.716 103.46 299.027 103.776 299.027 104.227C299.027 104.79 298.43 105.25 297.493 105.25C296.67 105.25 296.155 104.896 295.976 104.193L295.021 104.432C295.256 105.544 296.172 106.136 297.51 106.136C299.031 106.136 300.067 105.305 300.067 104.176C300.067 103.264 299.496 102.689 298.328 102.403L297.357 102.165C296.581 101.973 296.232 101.713 296.232 101.21C296.232 100.648 296.828 100.239 297.629 100.239C298.507 100.239 298.869 100.724 299.044 101.176L299.947 100.92Z" fill="#005E99"/>
<path d="M550.057 106H551.114V102.097H554.898V101.159H551.114V98.2102H555.29V97.2727H550.057V106ZM556.963 106H557.969V99.4545H556.963V106ZM557.475 98.3636C557.867 98.3636 558.191 98.0568 558.191 97.6818C558.191 97.3068 557.867 97 557.475 97C557.083 97 556.759 97.3068 556.759 97.6818C556.759 98.0568 557.083 98.3636 557.475 98.3636ZM560.817 97.2727H559.811V106H560.817V97.2727ZM565.505 99.4545H564.108V97.8864H563.102V99.4545H562.113V100.307H563.102V104.398C563.102 105.54 564.022 106.085 564.875 106.085C565.25 106.085 565.488 106.017 565.625 105.966L565.42 105.062C565.335 105.08 565.199 105.114 564.977 105.114C564.534 105.114 564.108 104.977 564.108 104.125V100.307H565.505V99.4545ZM569.692 106.136C571.022 106.136 571.993 105.472 572.3 104.483L571.328 104.21C571.073 104.892 570.48 105.233 569.692 105.233C568.512 105.233 567.698 104.47 567.651 103.068H572.402V102.642C572.402 100.205 570.953 99.3693 569.59 99.3693C567.817 99.3693 566.641 100.767 566.641 102.778C566.641 104.79 567.8 106.136 569.692 106.136ZM567.651 102.199C567.719 101.18 568.439 100.273 569.59 100.273C570.681 100.273 571.38 101.091 571.38 102.199H567.651ZM573.932 106H574.938V101.858C574.938 100.976 575.637 100.324 576.591 100.324C576.843 100.324 577.03 100.371 577.171 100.443L577.512 99.5909C577.307 99.446 577.039 99.3523 576.676 99.3523C575.884 99.3523 575.206 99.7955 574.972 100.443H574.904V99.4545H573.932V106ZM583.174 100.92C582.859 99.9915 582.151 99.3693 580.856 99.3693C579.475 99.3693 578.452 100.153 578.452 101.261C578.452 102.165 578.989 102.77 580.191 103.051L581.282 103.307C581.942 103.46 582.254 103.776 582.254 104.227C582.254 104.79 581.657 105.25 580.719 105.25C579.897 105.25 579.381 104.896 579.202 104.193L578.248 104.432C578.482 105.544 579.398 106.136 580.737 106.136C582.258 106.136 583.293 105.305 583.293 104.176C583.293 103.264 582.722 102.689 581.555 102.403L580.583 102.165C579.808 101.973 579.458 101.713 579.458 101.21C579.458 100.648 580.055 100.239 580.856 100.239C581.734 100.239 582.096 100.724 582.271 101.176L583.174 100.92Z" fill="#005E99"/>
<rect x="594" y="126" width="161" height="20" rx="2" fill="#FFE3E3"/>
<rect x="594" y="162" width="94" height="20" rx="2" fill="#D1E1FA"/>
<rect x="710" y="162" width="113" height="20" rx="2" fill="#CDE5D8"/>
<rect x="594" y="198" width="141" height="20" rx="2" fill="#E7D9F2"/>
<path d="M768 200C768 198.895 768.895 198 770 198H840V218H770C768.895 218 768 217.105 768 216V200Z" fill="#E7D9F2"/>
<path d="M551.804 141H552.957L554.628 135.134H554.747L556.418 141H557.571L559.898 133.364H558.665L557.014 139.19H556.935L555.324 133.364H554.071L552.44 139.21H552.361L550.71 133.364H549.477L551.804 141ZM562.622 136.406C562.622 135.074 563.472 134.318 564.631 134.318C565.734 134.318 566.401 135.014 566.401 136.227V141H567.574V136.148C567.574 134.184 566.53 133.264 564.969 133.264C563.766 133.264 563.08 133.766 562.722 134.557H562.622V130.818H561.449V141H562.622V136.406ZM572.922 141.159C574.473 141.159 575.607 140.384 575.965 139.23L574.831 138.912C574.533 139.707 573.842 140.105 572.922 140.105C571.545 140.105 570.595 139.215 570.541 137.58H576.084V137.082C576.084 134.239 574.394 133.264 572.803 133.264C570.735 133.264 569.362 134.895 569.362 137.241C569.362 139.588 570.715 141.159 572.922 141.159ZM570.541 136.565C570.62 135.377 571.46 134.318 572.803 134.318C574.075 134.318 574.891 135.273 574.891 136.565H570.541ZM577.869 141H579.042V136.168C579.042 135.138 579.857 134.378 580.971 134.378C581.264 134.378 581.483 134.433 581.647 134.517L582.045 133.523C581.806 133.354 581.493 133.244 581.07 133.244C580.146 133.244 579.355 133.761 579.082 134.517H579.002V133.364H577.869V141ZM586.211 141.159C587.762 141.159 588.896 140.384 589.254 139.23L588.12 138.912C587.822 139.707 587.131 140.105 586.211 140.105C584.834 140.105 583.884 139.215 583.83 137.58H589.373V137.082C589.373 134.239 587.683 133.264 586.092 133.264C584.024 133.264 582.651 134.895 582.651 137.241C582.651 139.588 584.004 141.159 586.211 141.159ZM583.83 136.565C583.909 135.377 584.749 134.318 586.092 134.318C587.365 134.318 588.18 135.273 588.18 136.565H583.83ZM657 141.159C658.691 141.159 659.804 140.125 660.003 138.773H658.83C658.611 139.608 657.915 140.105 657 140.105C655.608 140.105 654.713 138.952 654.713 137.182C654.713 135.452 655.628 134.318 657 134.318C658.034 134.318 658.651 134.955 658.83 135.651H660.003C659.804 134.219 658.591 133.264 656.98 133.264C654.912 133.264 653.54 134.895 653.54 137.222C653.54 139.509 654.853 141.159 657 141.159ZM664.821 141.159C666.889 141.159 668.281 139.588 668.281 137.222C668.281 134.835 666.889 133.264 664.821 133.264C662.752 133.264 661.36 134.835 661.36 137.222C661.36 139.588 662.752 141.159 664.821 141.159ZM664.821 140.105C663.25 140.105 662.534 138.753 662.534 137.222C662.534 135.69 663.25 134.318 664.821 134.318C666.392 134.318 667.108 135.69 667.108 137.222C667.108 138.753 666.392 140.105 664.821 140.105ZM671.245 136.406C671.245 135.074 672.07 134.318 673.194 134.318C674.283 134.318 674.944 135.029 674.944 136.227V141H676.117V136.148C676.117 134.199 675.078 133.264 673.532 133.264C672.379 133.264 671.663 133.781 671.305 134.557H671.205V133.364H670.072V141H671.245V136.406ZM681.582 133.364H679.952V131.534H678.778V133.364H677.625V134.358H678.778V139.131C678.778 140.463 679.852 141.099 680.847 141.099C681.284 141.099 681.562 141.02 681.722 140.96L681.483 139.906C681.384 139.926 681.224 139.966 680.966 139.966C680.449 139.966 679.952 139.807 679.952 138.812V134.358H681.582V133.364ZM685.594 141.179C686.927 141.179 687.623 140.463 687.862 139.966H687.921V141H689.094V135.969C689.094 133.543 687.245 133.264 686.271 133.264C685.117 133.264 683.805 133.662 683.208 135.054L684.322 135.452C684.58 134.895 685.192 134.298 686.31 134.298C687.389 134.298 687.921 134.87 687.921 135.849V135.889C687.921 136.456 687.344 136.406 685.952 136.585C684.536 136.769 682.989 137.082 682.989 138.832C682.989 140.324 684.143 141.179 685.594 141.179ZM685.773 140.125C684.839 140.125 684.163 139.707 684.163 138.892C684.163 137.997 684.978 137.719 685.893 137.599C686.39 137.54 687.722 137.401 687.921 137.162V138.236C687.921 139.19 687.165 140.125 685.773 140.125ZM691.236 141H692.409V133.364H691.236V141ZM691.833 132.091C692.29 132.091 692.668 131.733 692.668 131.295C692.668 130.858 692.29 130.5 691.833 130.5C691.375 130.5 690.997 130.858 690.997 131.295C690.997 131.733 691.375 132.091 691.833 132.091ZM695.732 136.406C695.732 135.074 696.557 134.318 697.68 134.318C698.769 134.318 699.43 135.029 699.43 136.227V141H700.604V136.148C700.604 134.199 699.565 133.264 698.018 133.264C696.865 133.264 696.149 133.781 695.791 134.557H695.692V133.364H694.558V141H695.732V136.406ZM708.157 135.074C707.789 133.99 706.964 133.264 705.452 133.264C703.841 133.264 702.648 134.179 702.648 135.472C702.648 136.526 703.275 137.232 704.677 137.56L705.949 137.858C706.72 138.037 707.083 138.405 707.083 138.932C707.083 139.588 706.387 140.125 705.293 140.125C704.334 140.125 703.732 139.712 703.523 138.892L702.41 139.17C702.683 140.468 703.752 141.159 705.313 141.159C707.088 141.159 708.296 140.19 708.296 138.872C708.296 137.808 707.63 137.137 706.268 136.804L705.134 136.526C704.229 136.302 703.822 135.999 703.822 135.412C703.822 134.756 704.518 134.278 705.452 134.278C706.476 134.278 706.899 134.845 707.103 135.372L708.157 135.074Z" fill="black" fill-opacity="0.4"/>
<path d="M595.672 141L596.696 138.116H600.813L601.837 141H603.129L599.391 130.818H598.118L594.379 141H595.672ZM597.084 137.023L598.715 132.429H598.794L600.425 137.023H597.084ZM607.659 141.159C609.349 141.159 610.463 140.125 610.661 138.773H609.488C609.269 139.608 608.573 140.105 607.659 140.105C606.267 140.105 605.372 138.952 605.372 137.182C605.372 135.452 606.286 134.318 607.659 134.318C608.693 134.318 609.309 134.955 609.488 135.651H610.661C610.463 134.219 609.249 133.264 607.639 133.264C605.57 133.264 604.198 134.895 604.198 137.222C604.198 139.509 605.511 141.159 607.659 141.159ZM615.479 141.159C617.169 141.159 618.283 140.125 618.482 138.773H617.308C617.09 139.608 616.394 140.105 615.479 140.105C614.087 140.105 613.192 138.952 613.192 137.182C613.192 135.452 614.107 134.318 615.479 134.318C616.513 134.318 617.129 134.955 617.308 135.651H618.482C618.283 134.219 617.07 133.264 615.459 133.264C613.391 133.264 612.019 134.895 612.019 137.222C612.019 139.509 613.331 141.159 615.479 141.159ZM623.299 141.159C625.367 141.159 626.759 139.588 626.759 137.222C626.759 134.835 625.367 133.264 623.299 133.264C621.231 133.264 619.839 134.835 619.839 137.222C619.839 139.588 621.231 141.159 623.299 141.159ZM623.299 140.105C621.728 140.105 621.012 138.753 621.012 137.222C621.012 135.69 621.728 134.318 623.299 134.318C624.87 134.318 625.586 135.69 625.586 137.222C625.586 138.753 624.87 140.105 623.299 140.105ZM633.363 137.878C633.363 139.31 632.269 139.966 631.394 139.966C630.42 139.966 629.724 139.25 629.724 138.136V133.364H628.55V138.216C628.55 140.165 629.585 141.099 631.016 141.099C632.17 141.099 632.925 140.483 633.283 139.707H633.363V141H634.536V133.364H633.363V137.878ZM637.858 136.406C637.858 135.074 638.684 134.318 639.807 134.318C640.896 134.318 641.557 135.029 641.557 136.227V141H642.731V136.148C642.731 134.199 641.692 133.264 640.145 133.264C638.992 133.264 638.276 133.781 637.918 134.557H637.819V133.364H636.685V141H637.858V136.406ZM648.196 133.364H646.565V131.534H645.392V133.364H644.238V134.358H645.392V139.131C645.392 140.463 646.466 141.099 647.46 141.099C647.897 141.099 648.176 141.02 648.335 140.96L648.096 139.906C647.997 139.926 647.838 139.966 647.579 139.966C647.062 139.966 646.565 139.807 646.565 138.812V134.358H648.196V133.364ZM714.159 141H717.838C720.244 141 721.238 139.827 721.238 138.295C721.238 136.685 720.125 135.81 719.19 135.75V135.651C720.065 135.412 720.841 134.835 720.841 133.523C720.841 132.031 719.846 130.818 717.718 130.818H714.159V141ZM715.392 139.906V136.366H717.897C719.23 136.366 720.065 137.261 720.065 138.295C720.065 139.19 719.449 139.906 717.838 139.906H715.392ZM715.392 135.293V131.912H717.718C719.071 131.912 719.667 132.628 719.667 133.523C719.667 134.597 718.792 135.293 717.679 135.293H715.392ZM723.105 141H724.278V136.168C724.278 135.138 725.094 134.378 726.207 134.378C726.501 134.378 726.719 134.433 726.884 134.517L727.281 133.523C727.043 133.354 726.729 133.244 726.307 133.244C725.382 133.244 724.592 133.761 724.318 134.517H724.239V133.364H723.105V141ZM730.725 141.179C732.058 141.179 732.754 140.463 732.992 139.966H733.052V141H734.225V135.969C734.225 133.543 732.376 133.264 731.401 133.264C730.248 133.264 728.936 133.662 728.339 135.054L729.453 135.452C729.711 134.895 730.323 134.298 731.441 134.298C732.52 134.298 733.052 134.87 733.052 135.849V135.889C733.052 136.456 732.475 136.406 731.083 136.585C729.666 136.769 728.12 137.082 728.12 138.832C728.12 140.324 729.274 141.179 730.725 141.179ZM730.904 140.125C729.97 140.125 729.294 139.707 729.294 138.892C729.294 137.997 730.109 137.719 731.024 137.599C731.521 137.54 732.853 137.401 733.052 137.162V138.236C733.052 139.19 732.296 140.125 730.904 140.125ZM737.54 136.406C737.54 135.074 738.365 134.318 739.489 134.318C740.578 134.318 741.239 135.029 741.239 136.227V141H742.412V136.148C742.412 134.199 741.373 133.264 739.827 133.264C738.674 133.264 737.958 133.781 737.6 134.557H737.5V133.364H736.367V141H737.54V136.406ZM747.44 141.159C748.911 141.159 749.409 140.244 749.667 139.827H749.806V141H750.94V130.818H749.767V134.577H749.667C749.409 134.179 748.951 133.264 747.46 133.264C745.531 133.264 744.198 134.795 744.198 137.202C744.198 139.628 745.531 141.159 747.44 141.159ZM747.599 140.105C746.127 140.105 745.372 138.812 745.372 137.182C745.372 135.571 746.107 134.318 747.599 134.318C749.031 134.318 749.786 135.472 749.786 137.182C749.786 138.912 749.011 140.105 747.599 140.105Z" fill="black" fill-opacity="0.8"/>
<path d="M696.176 177.159C698.244 177.159 699.636 175.588 699.636 173.222C699.636 170.835 698.244 169.264 696.176 169.264C694.108 169.264 692.716 170.835 692.716 173.222C692.716 175.588 694.108 177.159 696.176 177.159ZM696.176 176.105C694.605 176.105 693.889 174.753 693.889 173.222C693.889 171.69 694.605 170.318 696.176 170.318C697.747 170.318 698.463 171.69 698.463 173.222C698.463 174.753 697.747 176.105 696.176 176.105ZM701.427 177H702.601V172.168C702.601 171.138 703.416 170.378 704.53 170.378C704.823 170.378 705.042 170.433 705.206 170.517L705.604 169.523C705.365 169.354 705.052 169.244 704.629 169.244C703.704 169.244 702.914 169.761 702.64 170.517H702.561V169.364H701.427V177Z" fill="black" fill-opacity="0.4"/>
<path d="M551.804 177H552.957L554.628 171.134H554.747L556.418 177H557.571L559.898 169.364H558.665L557.014 175.19H556.935L555.324 169.364H554.071L552.44 175.21H552.361L550.71 169.364H549.477L551.804 177ZM562.622 172.406C562.622 171.074 563.472 170.318 564.631 170.318C565.734 170.318 566.401 171.014 566.401 172.227V177H567.574V172.148C567.574 170.184 566.53 169.264 564.969 169.264C563.766 169.264 563.08 169.766 562.722 170.557H562.622V166.818H561.449V177H562.622V172.406ZM572.922 177.159C574.473 177.159 575.607 176.384 575.965 175.23L574.831 174.912C574.533 175.707 573.842 176.105 572.922 176.105C571.545 176.105 570.595 175.215 570.541 173.58H576.084V173.082C576.084 170.239 574.394 169.264 572.803 169.264C570.735 169.264 569.362 170.895 569.362 173.241C569.362 175.588 570.715 177.159 572.922 177.159ZM570.541 172.565C570.62 171.377 571.46 170.318 572.803 170.318C574.075 170.318 574.891 171.273 574.891 172.565H570.541ZM577.869 177H579.042V172.168C579.042 171.138 579.857 170.378 580.971 170.378C581.264 170.378 581.483 170.433 581.647 170.517L582.045 169.523C581.806 169.354 581.493 169.244 581.07 169.244C580.146 169.244 579.355 169.761 579.082 170.517H579.002V169.364H577.869V177ZM586.211 177.159C587.762 177.159 588.896 176.384 589.254 175.23L588.12 174.912C587.822 175.707 587.131 176.105 586.211 176.105C584.834 176.105 583.884 175.215 583.83 173.58H589.373V173.082C589.373 170.239 587.683 169.264 586.092 169.264C584.024 169.264 582.651 170.895 582.651 173.241C582.651 175.588 584.004 177.159 586.211 177.159ZM583.83 172.565C583.909 171.377 584.749 170.318 586.092 170.318C587.365 170.318 588.18 171.273 588.18 172.565H583.83Z" fill="black" fill-opacity="0.4"/>
<path d="M551.804 213H552.957L554.628 207.134H554.747L556.418 213H557.571L559.898 205.364H558.665L557.014 211.19H556.935L555.324 205.364H554.071L552.44 211.21H552.361L550.71 205.364H549.477L551.804 213ZM562.622 208.406C562.622 207.074 563.472 206.318 564.631 206.318C565.734 206.318 566.401 207.014 566.401 208.227V213H567.574V208.148C567.574 206.184 566.53 205.264 564.969 205.264C563.766 205.264 563.08 205.766 562.722 206.557H562.622V202.818H561.449V213H562.622V208.406ZM572.922 213.159C574.473 213.159 575.607 212.384 575.965 211.23L574.831 210.912C574.533 211.707 573.842 212.105 572.922 212.105C571.545 212.105 570.595 211.215 570.541 209.58H576.084V209.082C576.084 206.239 574.394 205.264 572.803 205.264C570.735 205.264 569.362 206.895 569.362 209.241C569.362 211.588 570.715 213.159 572.922 213.159ZM570.541 208.565C570.62 207.377 571.46 206.318 572.803 206.318C574.075 206.318 574.891 207.273 574.891 208.565H570.541ZM577.869 213H579.042V208.168C579.042 207.138 579.857 206.378 580.971 206.378C581.264 206.378 581.483 206.433 581.647 206.517L582.045 205.523C581.806 205.354 581.493 205.244 581.07 205.244C580.146 205.244 579.355 205.761 579.082 206.517H579.002V205.364H577.869V213ZM586.211 213.159C587.762 213.159 588.896 212.384 589.254 211.23L588.12 210.912C587.822 211.707 587.131 212.105 586.211 212.105C584.834 212.105 583.884 211.215 583.83 209.58H589.373V209.082C589.373 206.239 587.683 205.264 586.092 205.264C584.024 205.264 582.651 206.895 582.651 209.241C582.651 211.588 584.004 213.159 586.211 213.159ZM583.83 208.565C583.909 207.377 584.749 206.318 586.092 206.318C587.365 206.318 588.18 207.273 588.18 208.565H583.83Z" fill="black" fill-opacity="0.4"/>
<path d="M742.321 213.179C743.653 213.179 744.349 212.463 744.588 211.966H744.648V213H745.821V207.969C745.821 205.543 743.972 205.264 742.997 205.264C741.844 205.264 740.531 205.662 739.935 207.054L741.048 207.452C741.307 206.895 741.918 206.298 743.037 206.298C744.116 206.298 744.648 206.87 744.648 207.849V207.889C744.648 208.456 744.071 208.406 742.679 208.585C741.262 208.769 739.716 209.082 739.716 210.832C739.716 212.324 740.869 213.179 742.321 213.179ZM742.5 212.125C741.565 212.125 740.889 211.707 740.889 210.892C740.889 209.997 741.705 209.719 742.619 209.599C743.116 209.54 744.449 209.401 744.648 209.162V210.236C744.648 211.19 743.892 212.125 742.5 212.125ZM749.136 208.406C749.136 207.074 749.961 206.318 751.085 206.318C752.173 206.318 752.835 207.029 752.835 208.227V213H754.008V208.148C754.008 206.199 752.969 205.264 751.423 205.264C750.269 205.264 749.553 205.781 749.195 206.557H749.096V205.364H747.963V213H749.136V208.406ZM759.036 213.159C760.507 213.159 761.004 212.244 761.263 211.827H761.402V213H762.536V202.818H761.362V206.577H761.263C761.004 206.179 760.547 205.264 759.055 205.264C757.126 205.264 755.794 206.795 755.794 209.202C755.794 211.628 757.126 213.159 759.036 213.159ZM759.195 212.105C757.723 212.105 756.967 210.812 756.967 209.182C756.967 207.571 757.703 206.318 759.195 206.318C760.626 206.318 761.382 207.472 761.382 209.182C761.382 210.912 760.607 212.105 759.195 212.105Z" fill="black" fill-opacity="0.4"/>
<rect x="229.5" y="124.5" width="75" height="23" rx="1.5" fill="white" stroke="#CCCCCC"/>
<path d="M240.474 133.364H238.764V132.588C238.764 131.832 239.082 131.435 239.858 131.435C240.196 131.435 240.395 131.514 240.514 131.554L240.852 130.54C240.673 130.46 240.315 130.341 239.739 130.341C238.645 130.341 237.591 130.997 237.591 132.31V133.364H236.358V134.358H237.591V141H238.764V134.358H240.474V133.364ZM244.147 141.179C245.48 141.179 246.176 140.463 246.414 139.966H246.474V141H247.647V135.969C247.647 133.543 245.798 133.264 244.823 133.264C243.67 133.264 242.357 133.662 241.761 135.054L242.874 135.452C243.133 134.895 243.744 134.298 244.863 134.298C245.942 134.298 246.474 134.87 246.474 135.849V135.889C246.474 136.456 245.897 136.406 244.505 136.585C243.088 136.769 241.542 137.082 241.542 138.832C241.542 140.324 242.695 141.179 244.147 141.179ZM244.326 140.125C243.392 140.125 242.715 139.707 242.715 138.892C242.715 137.997 243.531 137.719 244.445 137.599C244.943 137.54 246.275 137.401 246.474 137.162V138.236C246.474 139.19 245.718 140.125 244.326 140.125ZM252.891 141.159C254.581 141.159 255.695 140.125 255.894 138.773H254.721C254.502 139.608 253.806 140.105 252.891 140.105C251.499 140.105 250.604 138.952 250.604 137.182C250.604 135.452 251.519 134.318 252.891 134.318C253.925 134.318 254.542 134.955 254.721 135.651H255.894C255.695 134.219 254.482 133.264 252.871 133.264C250.803 133.264 249.431 134.895 249.431 137.222C249.431 139.509 250.743 141.159 252.891 141.159ZM260.811 141.159C262.362 141.159 263.495 140.384 263.853 139.23L262.72 138.912C262.422 139.707 261.73 140.105 260.811 140.105C259.434 140.105 258.484 139.215 258.429 137.58H263.973V137.082C263.973 134.239 262.282 133.264 260.691 133.264C258.623 133.264 257.251 134.895 257.251 137.241C257.251 139.588 258.603 141.159 260.811 141.159ZM258.429 136.565C258.509 135.377 259.349 134.318 260.691 134.318C261.964 134.318 262.779 135.273 262.779 136.565H258.429ZM265.917 141H267.05V139.827H267.189C267.448 140.244 267.945 141.159 269.417 141.159C271.326 141.159 272.658 139.628 272.658 137.202C272.658 134.795 271.326 133.264 269.397 133.264C267.905 133.264 267.448 134.179 267.189 134.577H267.09V130.818H265.917V141ZM267.07 137.182C267.07 135.472 267.826 134.318 269.257 134.318C270.749 134.318 271.485 135.571 271.485 137.182C271.485 138.812 270.729 140.105 269.257 140.105C267.846 140.105 267.07 138.912 267.07 137.182ZM277.555 141.159C279.623 141.159 281.015 139.588 281.015 137.222C281.015 134.835 279.623 133.264 277.555 133.264C275.487 133.264 274.095 134.835 274.095 137.222C274.095 139.588 275.487 141.159 277.555 141.159ZM277.555 140.105C275.984 140.105 275.268 138.753 275.268 137.222C275.268 135.69 275.984 134.318 277.555 134.318C279.126 134.318 279.842 135.69 279.842 137.222C279.842 138.753 279.126 140.105 277.555 140.105ZM285.909 141.159C287.977 141.159 289.369 139.588 289.369 137.222C289.369 134.835 287.977 133.264 285.909 133.264C283.84 133.264 282.448 134.835 282.448 137.222C282.448 139.588 283.84 141.159 285.909 141.159ZM285.909 140.105C284.338 140.105 283.622 138.753 283.622 137.222C283.622 135.69 284.338 134.318 285.909 134.318C287.48 134.318 288.195 135.69 288.195 137.222C288.195 138.753 287.48 140.105 285.909 140.105ZM291.16 141H292.333V138.141L293.153 137.381L296.012 141H297.504L294.038 136.625L297.265 133.364H295.813L292.472 136.764H292.333V130.818H291.16V141Z" fill="#1A1A1A"/>
<path d="M229 126C229 124.895 229.895 124 231 124H232V148H231C229.895 148 229 147.105 229 146V126Z" fill="#227AEF"/>
<rect x="312.5" y="124.5" width="57" height="23" rx="1.5" fill="white" stroke="#CCCCCC"/>
<path d="M323.395 133.364H321.764V131.534H320.591V133.364H319.438V134.358H320.591V139.131C320.591 140.463 321.665 141.099 322.659 141.099C323.097 141.099 323.375 141.02 323.534 140.96L323.295 139.906C323.196 139.926 323.037 139.966 322.778 139.966C322.261 139.966 321.764 139.807 321.764 138.812V134.358H323.395V133.364ZM326.89 141H328.043L329.714 135.134H329.833L331.504 141H332.657L334.984 133.364H333.751L332.1 139.19H332.021L330.41 133.364H329.157L327.526 139.21H327.447L325.796 133.364H324.563L326.89 141ZM336.535 141H337.708V133.364H336.535V141ZM337.131 132.091C337.589 132.091 337.967 131.733 337.967 131.295C337.967 130.858 337.589 130.5 337.131 130.5C336.674 130.5 336.296 130.858 336.296 131.295C336.296 131.733 336.674 132.091 337.131 132.091ZM343.178 133.364H341.547V131.534H340.374V133.364H339.221V134.358H340.374V139.131C340.374 140.463 341.448 141.099 342.442 141.099C342.88 141.099 343.158 141.02 343.317 140.96L343.079 139.906C342.979 139.926 342.82 139.966 342.562 139.966C342.045 139.966 341.547 139.807 341.547 138.812V134.358H343.178V133.364ZM348.264 133.364H346.633V131.534H345.46V133.364H344.307V134.358H345.46V139.131C345.46 140.463 346.534 141.099 347.528 141.099C347.966 141.099 348.244 141.02 348.403 140.96L348.165 139.906C348.065 139.926 347.906 139.966 347.648 139.966C347.131 139.966 346.633 139.807 346.633 138.812V134.358H348.264V133.364ZM353.149 141.159C354.7 141.159 355.833 140.384 356.191 139.23L355.058 138.912C354.759 139.707 354.068 140.105 353.149 140.105C351.771 140.105 350.822 139.215 350.767 137.58H356.311V137.082C356.311 134.239 354.62 133.264 353.029 133.264C350.961 133.264 349.589 134.895 349.589 137.241C349.589 139.588 350.941 141.159 353.149 141.159ZM350.767 136.565C350.847 135.377 351.687 134.318 353.029 134.318C354.302 134.318 355.117 135.273 355.117 136.565H350.767ZM358.095 141H359.269V136.168C359.269 135.134 360.084 134.378 361.198 134.378C361.511 134.378 361.834 134.438 361.914 134.457V133.264C361.779 133.254 361.471 133.244 361.297 133.244C360.382 133.244 359.587 133.761 359.308 134.517H359.229V133.364H358.095V141Z" fill="#1A1A1A"/>
<path d="M312 126C312 124.895 312.895 124 314 124H315V148H314C312.895 148 312 147.105 312 146V126Z" fill="#55ADEE"/>
<rect x="377.5" y="124.5" width="87" height="23" rx="1.5" fill="white" stroke="#CCCCCC"/>
<path d="M388.156 144.023C389.986 144.023 391.457 143.188 391.457 141.219V133.364H390.324V134.577H390.205C389.946 134.179 389.469 133.264 387.977 133.264C386.048 133.264 384.716 134.795 384.716 137.142C384.716 139.528 386.108 140.881 387.957 140.881C389.449 140.881 389.926 140.006 390.185 139.588H390.284V141.139C390.284 142.412 389.389 142.989 388.156 142.989C386.769 142.989 386.282 142.258 385.969 141.835L385.034 142.491C385.511 143.292 386.451 144.023 388.156 144.023ZM388.116 139.827C386.645 139.827 385.889 138.713 385.889 137.122C385.889 135.571 386.625 134.318 388.116 134.318C389.548 134.318 390.304 135.472 390.304 137.122C390.304 138.812 389.528 139.827 388.116 139.827ZM396.707 141.159C398.776 141.159 400.168 139.588 400.168 137.222C400.168 134.835 398.776 133.264 396.707 133.264C394.639 133.264 393.247 134.835 393.247 137.222C393.247 139.588 394.639 141.159 396.707 141.159ZM396.707 140.105C395.136 140.105 394.42 138.753 394.42 137.222C394.42 135.69 395.136 134.318 396.707 134.318C398.278 134.318 398.994 135.69 398.994 137.222C398.994 138.753 398.278 140.105 396.707 140.105ZM405.061 141.159C407.129 141.159 408.521 139.588 408.521 137.222C408.521 134.835 407.129 133.264 405.061 133.264C402.993 133.264 401.601 134.835 401.601 137.222C401.601 139.588 402.993 141.159 405.061 141.159ZM405.061 140.105C403.49 140.105 402.774 138.753 402.774 137.222C402.774 135.69 403.49 134.318 405.061 134.318C406.632 134.318 407.348 135.69 407.348 137.222C407.348 138.753 406.632 140.105 405.061 140.105ZM413.395 144.023C415.224 144.023 416.696 143.188 416.696 141.219V133.364H415.562V134.577H415.443C415.184 134.179 414.707 133.264 413.216 133.264C411.287 133.264 409.954 134.795 409.954 137.142C409.954 139.528 411.346 140.881 413.196 140.881C414.687 140.881 415.164 140.006 415.423 139.588H415.522V141.139C415.522 142.412 414.627 142.989 413.395 142.989C412.007 142.989 411.52 142.258 411.207 141.835L410.272 142.491C410.75 143.292 411.689 144.023 413.395 144.023ZM413.355 139.827C411.883 139.827 411.127 138.713 411.127 137.122C411.127 135.571 411.863 134.318 413.355 134.318C414.787 134.318 415.542 135.472 415.542 137.122C415.542 138.812 414.767 139.827 413.355 139.827ZM420.017 130.818H418.843V141H420.017V130.818ZM425.367 141.159C426.919 141.159 428.052 140.384 428.41 139.23L427.276 138.912C426.978 139.707 426.287 140.105 425.367 140.105C423.99 140.105 423.041 139.215 422.986 137.58H428.529V137.082C428.529 134.239 426.839 133.264 425.248 133.264C423.18 133.264 421.808 134.895 421.808 137.241C421.808 139.588 423.16 141.159 425.367 141.159ZM422.986 136.565C423.066 135.377 423.906 134.318 425.248 134.318C426.521 134.318 427.336 135.273 427.336 136.565H422.986ZM436.499 141.179C437.831 141.179 438.527 140.463 438.766 139.966H438.825V141H439.999V135.969C439.999 133.543 438.149 133.264 437.175 133.264C436.021 133.264 434.709 133.662 434.112 135.054L435.226 135.452C435.485 134.895 436.096 134.298 437.215 134.298C438.294 134.298 438.825 134.87 438.825 135.849V135.889C438.825 136.456 438.249 136.406 436.857 136.585C435.44 136.769 433.894 137.082 433.894 138.832C433.894 140.324 435.047 141.179 436.499 141.179ZM436.678 140.125C435.743 140.125 435.067 139.707 435.067 138.892C435.067 137.997 435.882 137.719 436.797 137.599C437.294 137.54 438.627 137.401 438.825 137.162V138.236C438.825 139.19 438.07 140.125 436.678 140.125ZM445.024 141.159C446.495 141.159 446.993 140.244 447.251 139.827H447.39V141H448.524V130.818H447.35V134.577H447.251C446.993 134.179 446.535 133.264 445.044 133.264C443.115 133.264 441.782 134.795 441.782 137.202C441.782 139.628 443.115 141.159 445.024 141.159ZM445.183 140.105C443.711 140.105 442.956 138.812 442.956 137.182C442.956 135.571 443.691 134.318 445.183 134.318C446.615 134.318 447.37 135.472 447.37 137.182C447.37 138.912 446.595 140.105 445.183 140.105ZM456.245 135.074C455.877 133.99 455.051 133.264 453.54 133.264C451.929 133.264 450.736 134.179 450.736 135.472C450.736 136.526 451.363 137.232 452.765 137.56L454.037 137.858C454.808 138.037 455.171 138.405 455.171 138.932C455.171 139.588 454.475 140.125 453.381 140.125C452.422 140.125 451.82 139.712 451.611 138.892L450.498 139.17C450.771 140.468 451.84 141.159 453.401 141.159C455.176 141.159 456.384 140.19 456.384 138.872C456.384 137.808 455.718 137.137 454.355 136.804L453.222 136.526C452.317 136.302 451.909 135.999 451.909 135.412C451.909 134.756 452.605 134.278 453.54 134.278C454.564 134.278 454.987 134.845 455.191 135.372L456.245 135.074Z" fill="#1A1A1A"/>
<path d="M377 126C377 124.895 377.895 124 379 124H380V148H379C377.895 148 377 147.105 377 146V126Z" fill="#FCBC03"/>
<rect x="229" y="160" width="97" height="24" rx="2" fill="#F2F2F2"/>
<path d="M229 162C229 160.895 229.895 160 231 160H232V184H231C229.895 184 229 183.105 229 182V162Z" fill="#E6E6E6"/>
<rect x="229" y="196" width="73" height="24" rx="2" fill="#F2F2F2"/>
<path d="M229 198C229 196.895 229.895 196 231 196H232V220H231C229.895 220 229 219.105 229 218V198Z" fill="#E6E6E6"/>
<rect x="333" y="160" width="76" height="24" rx="2" fill="#F2F2F2"/>
<path d="M333 162C333 160.895 333.895 160 335 160H336V184H335C333.895 184 333 183.105 333 182V162Z" fill="#E6E6E6"/>
<rect x="309" y="196" width="90" height="24" rx="2" fill="#F2F2F2"/>
<path d="M309 198C309 196.895 309.895 196 311 196H312V220H311C309.895 220 309 219.105 309 218V198Z" fill="#E6E6E6"/>
<rect x="406" y="196" width="67" height="24" rx="2" fill="#F2F2F2"/>
<path d="M406 198C406 196.895 406.895 196 408 196H409V220H408C406.895 220 406 219.105 406 218V198Z" fill="#E6E6E6"/>
<path d="M49.316 52.68C48.98 53.136 48.544 53.508 48.008 53.796C47.472 54.076 46.828 54.216 46.076 54.216C45.428 54.216 44.828 54.108 44.276 53.892C43.732 53.668 43.26 53.36 42.86 52.968C42.468 52.568 42.16 52.096 41.936 51.552C41.712 51 41.6 50.396 41.6 49.74C41.6 49.076 41.712 48.472 41.936 47.928C42.168 47.376 42.484 46.908 42.884 46.524C43.292 46.132 43.772 45.828 44.324 45.612C44.876 45.396 45.476 45.288 46.124 45.288C46.412 45.288 46.704 45.316 47 45.372C47.296 45.428 47.58 45.512 47.852 45.624C48.124 45.736 48.372 45.876 48.596 46.044C48.82 46.204 49.012 46.392 49.172 46.608L48.236 47.328C48.028 47.04 47.732 46.804 47.348 46.62C46.972 46.428 46.564 46.332 46.124 46.332C45.628 46.332 45.18 46.424 44.78 46.608C44.388 46.784 44.052 47.028 43.772 47.34C43.492 47.652 43.276 48.016 43.124 48.432C42.972 48.84 42.896 49.276 42.896 49.74C42.896 50.22 42.968 50.668 43.112 51.084C43.264 51.5 43.476 51.864 43.748 52.176C44.028 52.48 44.364 52.72 44.756 52.896C45.156 53.072 45.6 53.16 46.088 53.16C46.568 53.16 47.004 53.064 47.396 52.872C47.788 52.68 48.112 52.4 48.368 52.032L49.316 52.68ZM54.4761 54C54.4601 53.856 54.4481 53.696 54.4401 53.52C54.4321 53.336 54.4281 53.184 54.4281 53.064H54.4041C54.2601 53.368 54.0161 53.628 53.6721 53.844C53.3361 54.052 52.9601 54.156 52.5441 54.156C52.1761 54.156 51.8561 54.096 51.5841 53.976C51.3201 53.856 51.1001 53.692 50.9241 53.484C50.7561 53.268 50.6281 53.02 50.5401 52.74C50.4601 52.46 50.4201 52.16 50.4201 51.84V48.312H51.5481V51.456C51.5481 51.688 51.5641 51.912 51.5961 52.128C51.6361 52.336 51.7041 52.52 51.8001 52.68C51.8961 52.84 52.0281 52.968 52.1961 53.064C52.3641 53.16 52.5801 53.208 52.8441 53.208C53.3001 53.208 53.6681 53.04 53.9481 52.704C54.2281 52.36 54.3681 51.904 54.3681 51.336V48.312H55.4961V52.776C55.4961 52.928 55.5001 53.124 55.5081 53.364C55.5161 53.604 55.5281 53.816 55.5441 54H54.4761ZM60.5245 49.752C60.3965 49.544 60.2165 49.376 59.9845 49.248C59.7525 49.112 59.4925 49.044 59.2045 49.044C59.0765 49.044 58.9485 49.06 58.8205 49.092C58.6925 49.116 58.5765 49.16 58.4725 49.224C58.3765 49.28 58.2965 49.356 58.2325 49.452C58.1765 49.54 58.1485 49.652 58.1485 49.788C58.1485 50.028 58.2565 50.208 58.4725 50.328C58.6885 50.44 59.0125 50.544 59.4445 50.64C59.7165 50.704 59.9685 50.78 60.2005 50.868C60.4325 50.956 60.6325 51.068 60.8005 51.204C60.9765 51.332 61.1125 51.488 61.2085 51.672C61.3045 51.856 61.3525 52.072 61.3525 52.32C61.3525 52.656 61.2885 52.94 61.1605 53.172C61.0325 53.404 60.8605 53.596 60.6445 53.748C60.4365 53.892 60.1965 53.996 59.9245 54.06C59.6525 54.124 59.3725 54.156 59.0845 54.156C58.6525 54.156 58.2285 54.072 57.8125 53.904C57.4045 53.736 57.0645 53.48 56.7925 53.136L57.5965 52.452C57.7485 52.676 57.9565 52.864 58.2205 53.016C58.4925 53.168 58.7885 53.244 59.1085 53.244C59.2525 53.244 59.3885 53.232 59.5165 53.208C59.6525 53.176 59.7725 53.128 59.8765 53.064C59.9885 53 60.0765 52.916 60.1405 52.812C60.2045 52.708 60.2365 52.576 60.2365 52.416C60.2365 52.152 60.1085 51.956 59.8525 51.828C59.6045 51.7 59.2365 51.58 58.7485 51.468C58.5565 51.42 58.3605 51.364 58.1605 51.3C57.9685 51.228 57.7925 51.132 57.6325 51.012C57.4725 50.892 57.3405 50.744 57.2365 50.568C57.1405 50.384 57.0925 50.16 57.0925 49.896C57.0925 49.592 57.1525 49.332 57.2725 49.116C57.4005 48.892 57.5645 48.712 57.7645 48.576C57.9645 48.432 58.1925 48.328 58.4485 48.264C58.7045 48.192 58.9685 48.156 59.2405 48.156C59.6485 48.156 60.0405 48.236 60.4165 48.396C60.8005 48.556 61.0965 48.788 61.3045 49.092L60.5245 49.752ZM65.5685 49.236H64.0565V52.2C64.0565 52.544 64.1205 52.792 64.2485 52.944C64.3765 53.088 64.5805 53.16 64.8605 53.16C64.9645 53.16 65.0765 53.148 65.1965 53.124C65.3165 53.1 65.4245 53.064 65.5205 53.016L65.5565 53.94C65.4205 53.988 65.2685 54.024 65.1005 54.048C64.9405 54.08 64.7725 54.096 64.5965 54.096C64.0605 54.096 63.6485 53.948 63.3605 53.652C63.0805 53.356 62.9405 52.912 62.9405 52.32V49.236H61.8485V48.312H62.9405V46.68H64.0565V48.312H65.5685V49.236ZM72.4937 51.144C72.4937 51.584 72.4137 51.988 72.2537 52.356C72.1017 52.724 71.8857 53.044 71.6057 53.316C71.3337 53.58 71.0097 53.788 70.6337 53.94C70.2577 54.084 69.8537 54.156 69.4217 54.156C68.9897 54.156 68.5857 54.084 68.2097 53.94C67.8337 53.788 67.5097 53.58 67.2377 53.316C66.9657 53.044 66.7497 52.724 66.5897 52.356C66.4377 51.988 66.3617 51.584 66.3617 51.144C66.3617 50.704 66.4377 50.304 66.5897 49.944C66.7497 49.576 66.9657 49.26 67.2377 48.996C67.5097 48.732 67.8337 48.528 68.2097 48.384C68.5857 48.232 68.9897 48.156 69.4217 48.156C69.8537 48.156 70.2577 48.232 70.6337 48.384C71.0097 48.528 71.3337 48.732 71.6057 48.996C71.8857 49.26 72.1017 49.576 72.2537 49.944C72.4137 50.304 72.4937 50.704 72.4937 51.144ZM71.3177 51.144C71.3177 50.872 71.2737 50.612 71.1857 50.364C71.1057 50.116 70.9857 49.9 70.8257 49.716C70.6657 49.524 70.4657 49.372 70.2257 49.26C69.9937 49.148 69.7257 49.092 69.4217 49.092C69.1177 49.092 68.8457 49.148 68.6057 49.26C68.3737 49.372 68.1777 49.524 68.0177 49.716C67.8577 49.9 67.7337 50.116 67.6457 50.364C67.5657 50.612 67.5257 50.872 67.5257 51.144C67.5257 51.416 67.5657 51.676 67.6457 51.924C67.7337 52.172 67.8577 52.392 68.0177 52.584C68.1777 52.776 68.3737 52.928 68.6057 53.04C68.8457 53.152 69.1177 53.208 69.4217 53.208C69.7257 53.208 69.9937 53.152 70.2257 53.04C70.4657 52.928 70.6657 52.776 70.8257 52.584C70.9857 52.392 71.1057 52.172 71.1857 51.924C71.2737 51.676 71.3177 51.416 71.3177 51.144ZM75.1619 49.248C75.3059 48.944 75.5339 48.688 75.8459 48.48C76.1659 48.264 76.5419 48.156 76.9739 48.156C77.3579 48.156 77.7019 48.244 78.0059 48.42C78.3179 48.596 78.5619 48.888 78.7379 49.296C78.9299 48.928 79.1979 48.648 79.5419 48.456C79.8859 48.256 80.2619 48.156 80.6699 48.156C81.0379 48.156 81.3539 48.22 81.6179 48.348C81.8819 48.468 82.1019 48.632 82.2779 48.84C82.4539 49.048 82.5819 49.292 82.6619 49.572C82.7499 49.852 82.7939 50.152 82.7939 50.472V54H81.6659V50.844C81.6659 50.612 81.6459 50.392 81.6059 50.184C81.5659 49.976 81.4979 49.792 81.4019 49.632C81.3059 49.472 81.1779 49.344 81.0179 49.248C80.8579 49.152 80.6539 49.104 80.4059 49.104C80.1499 49.104 79.9299 49.16 79.7459 49.272C79.5619 49.376 79.4099 49.516 79.2899 49.692C79.1779 49.86 79.0939 50.052 79.0379 50.268C78.9899 50.484 78.9659 50.704 78.9659 50.928V54H77.8379V50.616C77.8379 50.392 77.8179 50.188 77.7779 50.004C77.7379 49.82 77.6699 49.664 77.5739 49.536C77.4779 49.4 77.3539 49.296 77.2019 49.224C77.0499 49.144 76.8619 49.104 76.6379 49.104C76.2219 49.104 75.8739 49.276 75.5939 49.62C75.3219 49.956 75.1859 50.408 75.1859 50.976V54H74.0579V49.536C74.0579 49.384 74.0539 49.188 74.0459 48.948C74.0379 48.708 74.0259 48.496 74.0099 48.312H75.0779C75.0939 48.456 75.1059 48.62 75.1139 48.804C75.1219 48.98 75.1259 49.128 75.1259 49.248H75.1619ZM87.7586 45.504H90.6746C91.2186 45.504 91.7626 45.584 92.3066 45.744C92.8506 45.904 93.3426 46.156 93.7826 46.5C94.2226 46.844 94.5786 47.284 94.8506 47.82C95.1226 48.356 95.2586 49 95.2586 49.752C95.2586 50.48 95.1226 51.112 94.8506 51.648C94.5786 52.176 94.2226 52.616 93.7826 52.968C93.3426 53.312 92.8506 53.572 92.3066 53.748C91.7626 53.916 91.2186 54 90.6746 54H87.7586V45.504ZM88.9466 52.956H90.4346C90.9466 52.956 91.4186 52.884 91.8506 52.74C92.2906 52.596 92.6666 52.388 92.9786 52.116C93.2986 51.844 93.5466 51.508 93.7226 51.108C93.8986 50.708 93.9866 50.256 93.9866 49.752C93.9866 49.224 93.8986 48.76 93.7226 48.36C93.5466 47.96 93.2986 47.628 92.9786 47.364C92.6666 47.092 92.2906 46.888 91.8506 46.752C91.4186 46.608 90.9466 46.536 90.4346 46.536H88.9466V52.956ZM97.9675 54H96.8395V48.312H97.9675V54ZM98.1595 46.26C98.1595 46.468 98.0835 46.64 97.9315 46.776C97.7875 46.912 97.6115 46.98 97.4035 46.98C97.1955 46.98 97.0195 46.912 96.8755 46.776C96.7315 46.632 96.6595 46.46 96.6595 46.26C96.6595 46.052 96.7315 45.88 96.8755 45.744C97.0195 45.6 97.1955 45.528 97.4035 45.528C97.6115 45.528 97.7875 45.6 97.9315 45.744C98.0835 45.88 98.1595 46.052 98.1595 46.26ZM101.037 49.248C101.181 48.944 101.409 48.688 101.721 48.48C102.041 48.264 102.417 48.156 102.849 48.156C103.233 48.156 103.577 48.244 103.881 48.42C104.193 48.596 104.437 48.888 104.613 49.296C104.805 48.928 105.073 48.648 105.417 48.456C105.761 48.256 106.137 48.156 106.545 48.156C106.913 48.156 107.229 48.22 107.493 48.348C107.757 48.468 107.977 48.632 108.153 48.84C108.329 49.048 108.457 49.292 108.537 49.572C108.625 49.852 108.669 50.152 108.669 50.472V54H107.541V50.844C107.541 50.612 107.521 50.392 107.481 50.184C107.441 49.976 107.373 49.792 107.277 49.632C107.181 49.472 107.053 49.344 106.893 49.248C106.733 49.152 106.529 49.104 106.281 49.104C106.025 49.104 105.805 49.16 105.621 49.272C105.437 49.376 105.285 49.516 105.165 49.692C105.053 49.86 104.969 50.052 104.913 50.268C104.865 50.484 104.841 50.704 104.841 50.928V54H103.713V50.616C103.713 50.392 103.693 50.188 103.653 50.004C103.613 49.82 103.545 49.664 103.449 49.536C103.353 49.4 103.229 49.296 103.077 49.224C102.925 49.144 102.737 49.104 102.513 49.104C102.097 49.104 101.749 49.276 101.469 49.62C101.197 49.956 101.061 50.408 101.061 50.976V54H99.9329V49.536C99.9329 49.384 99.9289 49.188 99.9209 48.948C99.9129 48.708 99.9009 48.496 99.8849 48.312H100.953C100.969 48.456 100.981 48.62 100.989 48.804C100.997 48.98 101.001 49.128 101.001 49.248H101.037ZM114.738 50.652C114.73 50.428 114.69 50.22 114.618 50.028C114.554 49.828 114.454 49.656 114.318 49.512C114.19 49.368 114.026 49.256 113.826 49.176C113.634 49.088 113.406 49.044 113.142 49.044C112.902 49.044 112.674 49.088 112.458 49.176C112.25 49.256 112.066 49.368 111.906 49.512C111.754 49.656 111.626 49.828 111.522 50.028C111.426 50.22 111.37 50.428 111.354 50.652H114.738ZM115.878 51.108C115.878 51.172 115.878 51.236 115.878 51.3C115.878 51.364 115.874 51.428 115.866 51.492H111.354C111.362 51.732 111.414 51.96 111.51 52.176C111.614 52.384 111.75 52.568 111.918 52.728C112.086 52.88 112.278 53 112.494 53.088C112.718 53.176 112.954 53.22 113.202 53.22C113.586 53.22 113.918 53.136 114.198 52.968C114.478 52.8 114.698 52.596 114.858 52.356L115.65 52.992C115.346 53.392 114.986 53.688 114.57 53.88C114.162 54.064 113.706 54.156 113.202 54.156C112.77 54.156 112.37 54.084 112.002 53.94C111.634 53.796 111.318 53.596 111.054 53.34C110.79 53.076 110.582 52.76 110.43 52.392C110.278 52.024 110.202 51.616 110.202 51.168C110.202 50.728 110.274 50.324 110.418 49.956C110.57 49.58 110.778 49.26 111.042 48.996C111.306 48.732 111.618 48.528 111.978 48.384C112.338 48.232 112.726 48.156 113.142 48.156C113.558 48.156 113.934 48.224 114.27 48.36C114.614 48.496 114.902 48.692 115.134 48.948C115.374 49.204 115.558 49.516 115.686 49.884C115.814 50.244 115.878 50.652 115.878 51.108ZM118.472 48.312C118.488 48.456 118.5 48.62 118.508 48.804C118.516 48.98 118.52 49.128 118.52 49.248H118.556C118.628 49.096 118.724 48.956 118.844 48.828C118.972 48.692 119.116 48.576 119.276 48.48C119.436 48.376 119.612 48.296 119.804 48.24C119.996 48.184 120.196 48.156 120.404 48.156C120.772 48.156 121.088 48.22 121.352 48.348C121.616 48.468 121.836 48.632 122.012 48.84C122.188 49.048 122.316 49.292 122.396 49.572C122.484 49.852 122.528 50.152 122.528 50.472V54H121.4V50.844C121.4 50.612 121.38 50.392 121.34 50.184C121.308 49.976 121.244 49.792 121.148 49.632C121.052 49.472 120.92 49.344 120.752 49.248C120.584 49.152 120.368 49.104 120.104 49.104C119.656 49.104 119.288 49.276 119 49.62C118.72 49.956 118.58 50.408 118.58 50.976V54H117.452V49.536C117.452 49.384 117.448 49.188 117.44 48.948C117.432 48.708 117.42 48.496 117.404 48.312H118.472ZM127.509 49.752C127.381 49.544 127.201 49.376 126.969 49.248C126.737 49.112 126.477 49.044 126.189 49.044C126.061 49.044 125.933 49.06 125.805 49.092C125.677 49.116 125.561 49.16 125.457 49.224C125.361 49.28 125.281 49.356 125.217 49.452C125.161 49.54 125.133 49.652 125.133 49.788C125.133 50.028 125.241 50.208 125.457 50.328C125.673 50.44 125.997 50.544 126.429 50.64C126.701 50.704 126.953 50.78 127.185 50.868C127.417 50.956 127.617 51.068 127.785 51.204C127.961 51.332 128.097 51.488 128.193 51.672C128.289 51.856 128.337 52.072 128.337 52.32C128.337 52.656 128.273 52.94 128.145 53.172C128.017 53.404 127.845 53.596 127.629 53.748C127.421 53.892 127.181 53.996 126.909 54.06C126.637 54.124 126.357 54.156 126.069 54.156C125.637 54.156 125.213 54.072 124.797 53.904C124.389 53.736 124.049 53.48 123.777 53.136L124.581 52.452C124.733 52.676 124.941 52.864 125.205 53.016C125.477 53.168 125.773 53.244 126.093 53.244C126.237 53.244 126.373 53.232 126.501 53.208C126.637 53.176 126.757 53.128 126.861 53.064C126.973 53 127.061 52.916 127.125 52.812C127.189 52.708 127.221 52.576 127.221 52.416C127.221 52.152 127.093 51.956 126.837 51.828C126.589 51.7 126.221 51.58 125.733 51.468C125.541 51.42 125.345 51.364 125.145 51.3C124.953 51.228 124.777 51.132 124.617 51.012C124.457 50.892 124.325 50.744 124.221 50.568C124.125 50.384 124.077 50.16 124.077 49.896C124.077 49.592 124.137 49.332 124.257 49.116C124.385 48.892 124.549 48.712 124.749 48.576C124.949 48.432 125.177 48.328 125.433 48.264C125.689 48.192 125.953 48.156 126.225 48.156C126.633 48.156 127.025 48.236 127.401 48.396C127.785 48.556 128.081 48.788 128.289 49.092L127.509 49.752ZM130.909 54H129.781V48.312H130.909V54ZM131.101 46.26C131.101 46.468 131.025 46.64 130.873 46.776C130.729 46.912 130.553 46.98 130.345 46.98C130.137 46.98 129.961 46.912 129.817 46.776C129.673 46.632 129.601 46.46 129.601 46.26C129.601 46.052 129.673 45.88 129.817 45.744C129.961 45.6 130.137 45.528 130.345 45.528C130.553 45.528 130.729 45.6 130.873 45.744C131.025 45.88 131.101 46.052 131.101 46.26ZM138.634 51.144C138.634 51.584 138.554 51.988 138.394 52.356C138.242 52.724 138.026 53.044 137.746 53.316C137.474 53.58 137.15 53.788 136.774 53.94C136.398 54.084 135.994 54.156 135.562 54.156C135.13 54.156 134.726 54.084 134.35 53.94C133.974 53.788 133.65 53.58 133.378 53.316C133.106 53.044 132.89 52.724 132.73 52.356C132.578 51.988 132.502 51.584 132.502 51.144C132.502 50.704 132.578 50.304 132.73 49.944C132.89 49.576 133.106 49.26 133.378 48.996C133.65 48.732 133.974 48.528 134.35 48.384C134.726 48.232 135.13 48.156 135.562 48.156C135.994 48.156 136.398 48.232 136.774 48.384C137.15 48.528 137.474 48.732 137.746 48.996C138.026 49.26 138.242 49.576 138.394 49.944C138.554 50.304 138.634 50.704 138.634 51.144ZM137.458 51.144C137.458 50.872 137.414 50.612 137.326 50.364C137.246 50.116 137.126 49.9 136.966 49.716C136.806 49.524 136.606 49.372 136.366 49.26C136.134 49.148 135.866 49.092 135.562 49.092C135.258 49.092 134.986 49.148 134.746 49.26C134.514 49.372 134.318 49.524 134.158 49.716C133.998 49.9 133.874 50.116 133.786 50.364C133.706 50.612 133.666 50.872 133.666 51.144C133.666 51.416 133.706 51.676 133.786 51.924C133.874 52.172 133.998 52.392 134.158 52.584C134.318 52.776 134.514 52.928 134.746 53.04C134.986 53.152 135.258 53.208 135.562 53.208C135.866 53.208 136.134 53.152 136.366 53.04C136.606 52.928 136.806 52.776 136.966 52.584C137.126 52.392 137.246 52.172 137.326 51.924C137.414 51.676 137.458 51.416 137.458 51.144ZM141.219 48.312C141.235 48.456 141.247 48.62 141.255 48.804C141.263 48.98 141.267 49.128 141.267 49.248H141.303C141.375 49.096 141.471 48.956 141.591 48.828C141.719 48.692 141.863 48.576 142.023 48.48C142.183 48.376 142.359 48.296 142.551 48.24C142.743 48.184 142.943 48.156 143.151 48.156C143.519 48.156 143.835 48.22 144.099 48.348C144.363 48.468 144.583 48.632 144.759 48.84C144.935 49.048 145.063 49.292 145.143 49.572C145.231 49.852 145.275 50.152 145.275 50.472V54H144.147V50.844C144.147 50.612 144.127 50.392 144.087 50.184C144.055 49.976 143.991 49.792 143.895 49.632C143.799 49.472 143.667 49.344 143.499 49.248C143.331 49.152 143.115 49.104 142.851 49.104C142.403 49.104 142.035 49.276 141.747 49.62C141.467 49.956 141.327 50.408 141.327 50.976V54H140.199V49.536C140.199 49.384 140.195 49.188 140.187 48.948C140.179 48.708 140.167 48.496 140.151 48.312H141.219Z" fill="#B61616"/>
<path d="M44.852 257.464H44.888L47.444 250.504H48.728L45.392 259H44.288L40.976 250.504H42.296L44.852 257.464ZM52.7073 255.316C52.7073 254.892 52.5793 254.58 52.3233 254.38C52.0673 254.172 51.7273 254.068 51.3033 254.068C50.9833 254.068 50.6793 254.132 50.3913 254.26C50.1113 254.38 49.8753 254.536 49.6833 254.728L49.0833 254.008C49.3633 253.744 49.7033 253.536 50.1033 253.384C50.5113 253.232 50.9473 253.156 51.4113 253.156C51.8193 253.156 52.1713 253.216 52.4673 253.336C52.7713 253.448 53.0193 253.604 53.2113 253.804C53.4033 254.004 53.5473 254.24 53.6433 254.512C53.7393 254.784 53.7873 255.076 53.7873 255.388V257.872C53.7873 258.064 53.7913 258.268 53.7993 258.484C53.8153 258.692 53.8393 258.864 53.8713 259H52.8513C52.7873 258.728 52.7553 258.456 52.7553 258.184H52.7193C52.5113 258.488 52.2473 258.724 51.9273 258.892C51.6153 259.06 51.2433 259.144 50.8113 259.144C50.5873 259.144 50.3513 259.112 50.1033 259.048C49.8633 258.992 49.6433 258.896 49.4433 258.76C49.2433 258.624 49.0753 258.444 48.9393 258.22C48.8113 257.996 48.7473 257.72 48.7473 257.392C48.7473 256.96 48.8633 256.62 49.0953 256.372C49.3273 256.116 49.6313 255.924 50.0073 255.796C50.3833 255.66 50.8073 255.572 51.2793 255.532C51.7513 255.492 52.2273 255.472 52.7073 255.472V255.316ZM52.4313 256.288C52.1513 256.288 51.8593 256.3 51.5553 256.324C51.2593 256.348 50.9873 256.396 50.7393 256.468C50.4993 256.54 50.2993 256.648 50.1393 256.792C49.9793 256.936 49.8993 257.128 49.8993 257.368C49.8993 257.536 49.9313 257.676 49.9953 257.788C50.0673 257.9 50.1593 257.992 50.2713 258.064C50.3833 258.136 50.5073 258.188 50.6433 258.22C50.7793 258.244 50.9193 258.256 51.0633 258.256C51.5913 258.256 51.9953 258.1 52.2753 257.788C52.5633 257.468 52.7073 257.068 52.7073 256.588V256.288H52.4313ZM56.8232 259H55.6952V249.928H56.8232V259ZM62.7964 259C62.7804 258.856 62.7684 258.696 62.7604 258.52C62.7524 258.336 62.7484 258.184 62.7484 258.064H62.7244C62.5804 258.368 62.3364 258.628 61.9924 258.844C61.6564 259.052 61.2804 259.156 60.8644 259.156C60.4964 259.156 60.1764 259.096 59.9044 258.976C59.6404 258.856 59.4204 258.692 59.2444 258.484C59.0764 258.268 58.9484 258.02 58.8604 257.74C58.7804 257.46 58.7404 257.16 58.7404 256.84V253.312H59.8684V256.456C59.8684 256.688 59.8844 256.912 59.9164 257.128C59.9564 257.336 60.0244 257.52 60.1204 257.68C60.2164 257.84 60.3484 257.968 60.5164 258.064C60.6844 258.16 60.9004 258.208 61.1644 258.208C61.6204 258.208 61.9884 258.04 62.2684 257.704C62.5484 257.36 62.6884 256.904 62.6884 256.336V253.312H63.8164V257.776C63.8164 257.928 63.8204 258.124 63.8284 258.364C63.8364 258.604 63.8484 258.816 63.8644 259H62.7964ZM69.9368 255.652C69.9288 255.428 69.8888 255.22 69.8168 255.028C69.7528 254.828 69.6528 254.656 69.5168 254.512C69.3888 254.368 69.2248 254.256 69.0248 254.176C68.8328 254.088 68.6048 254.044 68.3408 254.044C68.1008 254.044 67.8728 254.088 67.6568 254.176C67.4488 254.256 67.2648 254.368 67.1048 254.512C66.9528 254.656 66.8248 254.828 66.7208 255.028C66.6248 255.22 66.5688 255.428 66.5528 255.652H69.9368ZM71.0768 256.108C71.0768 256.172 71.0768 256.236 71.0768 256.3C71.0768 256.364 71.0728 256.428 71.0648 256.492H66.5528C66.5608 256.732 66.6128 256.96 66.7088 257.176C66.8128 257.384 66.9488 257.568 67.1168 257.728C67.2848 257.88 67.4768 258 67.6928 258.088C67.9168 258.176 68.1528 258.22 68.4008 258.22C68.7848 258.22 69.1168 258.136 69.3968 257.968C69.6768 257.8 69.8968 257.596 70.0568 257.356L70.8488 257.992C70.5448 258.392 70.1848 258.688 69.7688 258.88C69.3608 259.064 68.9048 259.156 68.4008 259.156C67.9688 259.156 67.5688 259.084 67.2008 258.94C66.8328 258.796 66.5168 258.596 66.2528 258.34C65.9888 258.076 65.7808 257.76 65.6288 257.392C65.4768 257.024 65.4008 256.616 65.4008 256.168C65.4008 255.728 65.4728 255.324 65.6168 254.956C65.7688 254.58 65.9768 254.26 66.2408 253.996C66.5048 253.732 66.8168 253.528 67.1768 253.384C67.5368 253.232 67.9248 253.156 68.3408 253.156C68.7568 253.156 69.1328 253.224 69.4688 253.36C69.8128 253.496 70.1008 253.692 70.3328 253.948C70.5728 254.204 70.7568 254.516 70.8848 254.884C71.0128 255.244 71.0768 255.652 71.0768 256.108ZM75.7237 254.752C75.5957 254.544 75.4157 254.376 75.1837 254.248C74.9517 254.112 74.6917 254.044 74.4037 254.044C74.2757 254.044 74.1477 254.06 74.0197 254.092C73.8917 254.116 73.7757 254.16 73.6717 254.224C73.5757 254.28 73.4957 254.356 73.4317 254.452C73.3757 254.54 73.3477 254.652 73.3477 254.788C73.3477 255.028 73.4557 255.208 73.6717 255.328C73.8877 255.44 74.2117 255.544 74.6437 255.64C74.9157 255.704 75.1677 255.78 75.3997 255.868C75.6317 255.956 75.8317 256.068 75.9997 256.204C76.1757 256.332 76.3117 256.488 76.4077 256.672C76.5037 256.856 76.5517 257.072 76.5517 257.32C76.5517 257.656 76.4877 257.94 76.3597 258.172C76.2317 258.404 76.0597 258.596 75.8437 258.748C75.6357 258.892 75.3957 258.996 75.1237 259.06C74.8517 259.124 74.5717 259.156 74.2837 259.156C73.8517 259.156 73.4277 259.072 73.0117 258.904C72.6037 258.736 72.2637 258.48 71.9917 258.136L72.7957 257.452C72.9477 257.676 73.1557 257.864 73.4197 258.016C73.6917 258.168 73.9877 258.244 74.3077 258.244C74.4517 258.244 74.5877 258.232 74.7157 258.208C74.8517 258.176 74.9717 258.128 75.0757 258.064C75.1877 258 75.2757 257.916 75.3397 257.812C75.4037 257.708 75.4357 257.576 75.4357 257.416C75.4357 257.152 75.3077 256.956 75.0517 256.828C74.8037 256.7 74.4357 256.58 73.9477 256.468C73.7557 256.42 73.5597 256.364 73.3597 256.3C73.1677 256.228 72.9917 256.132 72.8317 256.012C72.6717 255.892 72.5397 255.744 72.4357 255.568C72.3397 255.384 72.2917 255.16 72.2917 254.896C72.2917 254.592 72.3517 254.332 72.4717 254.116C72.5997 253.892 72.7637 253.712 72.9637 253.576C73.1637 253.432 73.3917 253.328 73.6477 253.264C73.9037 253.192 74.1677 253.156 74.4397 253.156C74.8477 253.156 75.2397 253.236 75.6157 253.396C75.9997 253.556 76.2957 253.788 76.5037 254.092L75.7237 254.752Z" fill="#B61616"/>
<path d="M199.38 259H198.06L201.744 250.504H202.824L206.472 259H205.128L204.264 256.912H200.232L199.38 259ZM200.652 255.868H203.832L202.248 251.884L200.652 255.868ZM212.039 258.1C211.823 258.444 211.527 258.708 211.151 258.892C210.783 259.068 210.395 259.156 209.987 259.156C209.547 259.156 209.151 259.08 208.799 258.928C208.447 258.768 208.147 258.552 207.899 258.28C207.651 258.008 207.459 257.688 207.323 257.32C207.187 256.952 207.119 256.56 207.119 256.144C207.119 255.728 207.187 255.34 207.323 254.98C207.459 254.612 207.651 254.292 207.899 254.02C208.155 253.748 208.459 253.536 208.811 253.384C209.163 253.232 209.551 253.156 209.975 253.156C210.439 253.156 210.843 253.256 211.187 253.456C211.531 253.648 211.803 253.884 212.003 254.164H212.027V249.928H213.155V259H212.063V258.1H212.039ZM208.295 256.144C208.295 256.408 208.335 256.664 208.415 256.912C208.495 257.16 208.615 257.38 208.775 257.572C208.935 257.764 209.131 257.92 209.363 258.04C209.595 258.152 209.867 258.208 210.179 258.208C210.467 258.208 210.727 258.152 210.959 258.04C211.199 257.928 211.403 257.78 211.571 257.596C211.739 257.404 211.867 257.184 211.955 256.936C212.051 256.688 212.099 256.428 212.099 256.156C212.099 255.884 212.051 255.624 211.955 255.376C211.867 255.128 211.739 254.908 211.571 254.716C211.403 254.524 211.199 254.372 210.959 254.26C210.727 254.148 210.467 254.092 210.179 254.092C209.867 254.092 209.595 254.148 209.363 254.26C209.131 254.372 208.935 254.524 208.775 254.716C208.615 254.908 208.495 255.128 208.415 255.376C208.335 255.624 208.295 255.88 208.295 256.144ZM225.464 257.68C225.128 258.136 224.692 258.508 224.156 258.796C223.62 259.076 222.976 259.216 222.224 259.216C221.576 259.216 220.976 259.108 220.424 258.892C219.88 258.668 219.408 258.36 219.008 257.968C218.616 257.568 218.308 257.096 218.084 256.552C217.86 256 217.748 255.396 217.748 254.74C217.748 254.076 217.86 253.472 218.084 252.928C218.316 252.376 218.632 251.908 219.032 251.524C219.44 251.132 219.92 250.828 220.472 250.612C221.024 250.396 221.624 250.288 222.272 250.288C222.56 250.288 222.852 250.316 223.148 250.372C223.444 250.428 223.728 250.512 224 250.624C224.272 250.736 224.52 250.876 224.744 251.044C224.968 251.204 225.16 251.392 225.32 251.608L224.384 252.328C224.176 252.04 223.88 251.804 223.496 251.62C223.12 251.428 222.712 251.332 222.272 251.332C221.776 251.332 221.328 251.424 220.928 251.608C220.536 251.784 220.2 252.028 219.92 252.34C219.64 252.652 219.424 253.016 219.272 253.432C219.12 253.84 219.044 254.276 219.044 254.74C219.044 255.22 219.116 255.668 219.26 256.084C219.412 256.5 219.624 256.864 219.896 257.176C220.176 257.48 220.512 257.72 220.904 257.896C221.304 258.072 221.748 258.16 222.236 258.16C222.716 258.16 223.152 258.064 223.544 257.872C223.936 257.68 224.26 257.4 224.516 257.032L225.464 257.68ZM227.793 254.176C227.929 253.896 228.161 253.656 228.489 253.456C228.817 253.256 229.185 253.156 229.593 253.156C229.961 253.156 230.277 253.22 230.541 253.348C230.805 253.468 231.025 253.632 231.201 253.84C231.377 254.048 231.505 254.292 231.585 254.572C231.673 254.852 231.717 255.152 231.717 255.472V259H230.589V255.856C230.589 255.624 230.569 255.404 230.529 255.196C230.497 254.988 230.433 254.804 230.337 254.644C230.241 254.484 230.109 254.356 229.941 254.26C229.781 254.164 229.569 254.116 229.305 254.116C228.857 254.116 228.489 254.288 228.201 254.632C227.913 254.968 227.769 255.42 227.769 255.988V259H226.641V249.928H227.769V254.176H227.793ZM237.164 255.316C237.164 254.892 237.036 254.58 236.78 254.38C236.524 254.172 236.184 254.068 235.76 254.068C235.44 254.068 235.136 254.132 234.848 254.26C234.568 254.38 234.332 254.536 234.14 254.728L233.54 254.008C233.82 253.744 234.16 253.536 234.56 253.384C234.968 253.232 235.404 253.156 235.868 253.156C236.276 253.156 236.628 253.216 236.924 253.336C237.228 253.448 237.476 253.604 237.668 253.804C237.86 254.004 238.004 254.24 238.1 254.512C238.196 254.784 238.244 255.076 238.244 255.388V257.872C238.244 258.064 238.248 258.268 238.256 258.484C238.272 258.692 238.296 258.864 238.328 259H237.308C237.244 258.728 237.212 258.456 237.212 258.184H237.176C236.968 258.488 236.704 258.724 236.384 258.892C236.072 259.06 235.7 259.144 235.268 259.144C235.044 259.144 234.808 259.112 234.56 259.048C234.32 258.992 234.1 258.896 233.9 258.76C233.7 258.624 233.532 258.444 233.396 258.22C233.268 257.996 233.204 257.72 233.204 257.392C233.204 256.96 233.32 256.62 233.552 256.372C233.784 256.116 234.088 255.924 234.464 255.796C234.84 255.66 235.264 255.572 235.736 255.532C236.208 255.492 236.684 255.472 237.164 255.472V255.316ZM236.888 256.288C236.608 256.288 236.316 256.3 236.012 256.324C235.716 256.348 235.444 256.396 235.196 256.468C234.956 256.54 234.756 256.648 234.596 256.792C234.436 256.936 234.356 257.128 234.356 257.368C234.356 257.536 234.388 257.676 234.452 257.788C234.524 257.9 234.616 257.992 234.728 258.064C234.84 258.136 234.964 258.188 235.1 258.22C235.236 258.244 235.376 258.256 235.52 258.256C236.048 258.256 236.452 258.1 236.732 257.788C237.02 257.468 237.164 257.068 237.164 256.588V256.288H236.888ZM241.148 253.312C241.164 253.456 241.176 253.62 241.184 253.804C241.192 253.98 241.196 254.128 241.196 254.248H241.232C241.304 254.096 241.4 253.956 241.52 253.828C241.648 253.692 241.792 253.576 241.952 253.48C242.112 253.376 242.288 253.296 242.48 253.24C242.672 253.184 242.872 253.156 243.08 253.156C243.448 253.156 243.764 253.22 244.028 253.348C244.292 253.468 244.512 253.632 244.688 253.84C244.864 254.048 244.992 254.292 245.072 254.572C245.16 254.852 245.204 255.152 245.204 255.472V259H244.076V255.844C244.076 255.612 244.056 255.392 244.016 255.184C243.984 254.976 243.92 254.792 243.824 254.632C243.728 254.472 243.596 254.344 243.428 254.248C243.26 254.152 243.044 254.104 242.78 254.104C242.332 254.104 241.964 254.276 241.676 254.62C241.396 254.956 241.256 255.408 241.256 255.976V259H240.128V254.536C240.128 254.384 240.124 254.188 240.116 253.948C240.108 253.708 240.096 253.496 240.08 253.312H241.148ZM248.133 253.312C248.149 253.456 248.161 253.62 248.169 253.804C248.177 253.98 248.181 254.128 248.181 254.248H248.217C248.289 254.096 248.385 253.956 248.505 253.828C248.633 253.692 248.777 253.576 248.937 253.48C249.097 253.376 249.273 253.296 249.465 253.24C249.657 253.184 249.857 253.156 250.065 253.156C250.433 253.156 250.749 253.22 251.013 253.348C251.277 253.468 251.497 253.632 251.673 253.84C251.849 254.048 251.977 254.292 252.057 254.572C252.145 254.852 252.189 255.152 252.189 255.472V259H251.061V255.844C251.061 255.612 251.041 255.392 251.001 255.184C250.969 254.976 250.905 254.792 250.809 254.632C250.713 254.472 250.581 254.344 250.413 254.248C250.245 254.152 250.029 254.104 249.765 254.104C249.317 254.104 248.949 254.276 248.661 254.62C248.381 254.956 248.241 255.408 248.241 255.976V259H247.113V254.536C247.113 254.384 247.109 254.188 247.101 253.948C247.093 253.708 247.081 253.496 247.065 253.312H248.133ZM258.261 255.652C258.253 255.428 258.213 255.22 258.141 255.028C258.077 254.828 257.977 254.656 257.841 254.512C257.713 254.368 257.549 254.256 257.349 254.176C257.157 254.088 256.929 254.044 256.665 254.044C256.425 254.044 256.197 254.088 255.981 254.176C255.773 254.256 255.589 254.368 255.429 254.512C255.277 254.656 255.149 254.828 255.045 255.028C254.949 255.22 254.893 255.428 254.877 255.652H258.261ZM259.401 256.108C259.401 256.172 259.401 256.236 259.401 256.3C259.401 256.364 259.397 256.428 259.389 256.492H254.877C254.885 256.732 254.937 256.96 255.033 257.176C255.137 257.384 255.273 257.568 255.441 257.728C255.609 257.88 255.801 258 256.017 258.088C256.241 258.176 256.477 258.22 256.725 258.22C257.109 258.22 257.441 258.136 257.721 257.968C258.001 257.8 258.221 257.596 258.381 257.356L259.173 257.992C258.869 258.392 258.509 258.688 258.093 258.88C257.685 259.064 257.229 259.156 256.725 259.156C256.293 259.156 255.893 259.084 255.525 258.94C255.157 258.796 254.841 258.596 254.577 258.34C254.313 258.076 254.105 257.76 253.953 257.392C253.801 257.024 253.725 256.616 253.725 256.168C253.725 255.728 253.797 255.324 253.941 254.956C254.093 254.58 254.301 254.26 254.565 253.996C254.829 253.732 255.141 253.528 255.501 253.384C255.861 253.232 256.249 253.156 256.665 253.156C257.081 253.156 257.457 253.224 257.793 253.36C258.137 253.496 258.425 253.692 258.657 253.948C258.897 254.204 259.081 254.516 259.209 254.884C259.337 255.244 259.401 255.652 259.401 256.108ZM262.128 259H261V249.928H262.128V259ZM267.165 254.752C267.037 254.544 266.857 254.376 266.625 254.248C266.393 254.112 266.133 254.044 265.845 254.044C265.717 254.044 265.589 254.06 265.461 254.092C265.333 254.116 265.217 254.16 265.113 254.224C265.017 254.28 264.937 254.356 264.873 254.452C264.817 254.54 264.789 254.652 264.789 254.788C264.789 255.028 264.897 255.208 265.113 255.328C265.329 255.44 265.653 255.544 266.085 255.64C266.357 255.704 266.609 255.78 266.841 255.868C267.073 255.956 267.273 256.068 267.441 256.204C267.617 256.332 267.753 256.488 267.849 256.672C267.945 256.856 267.993 257.072 267.993 257.32C267.993 257.656 267.929 257.94 267.801 258.172C267.673 258.404 267.501 258.596 267.285 258.748C267.077 258.892 266.837 258.996 266.565 259.06C266.293 259.124 266.013 259.156 265.725 259.156C265.293 259.156 264.869 259.072 264.453 258.904C264.045 258.736 263.705 258.48 263.433 258.136L264.237 257.452C264.389 257.676 264.597 257.864 264.861 258.016C265.133 258.168 265.429 258.244 265.749 258.244C265.893 258.244 266.029 258.232 266.157 258.208C266.293 258.176 266.413 258.128 266.517 258.064C266.629 258 266.717 257.916 266.781 257.812C266.845 257.708 266.877 257.576 266.877 257.416C266.877 257.152 266.749 256.956 266.493 256.828C266.245 256.7 265.877 256.58 265.389 256.468C265.197 256.42 265.001 256.364 264.801 256.3C264.609 256.228 264.433 256.132 264.273 256.012C264.113 255.892 263.981 255.744 263.877 255.568C263.781 255.384 263.733 255.16 263.733 254.896C263.733 254.592 263.793 254.332 263.913 254.116C264.041 253.892 264.205 253.712 264.405 253.576C264.605 253.432 264.833 253.328 265.089 253.264C265.345 253.192 265.609 253.156 265.881 253.156C266.289 253.156 266.681 253.236 267.057 253.396C267.441 253.556 267.737 253.788 267.945 254.092L267.165 254.752Z" fill="#B61616"/>
<path d="M826.22 259H825.032V250.504H830.336V251.548H826.22V254.188H830.072V255.208H826.22V259ZM832.721 259H831.593V253.312H832.721V259ZM832.913 251.26C832.913 251.468 832.837 251.64 832.685 251.776C832.541 251.912 832.365 251.98 832.157 251.98C831.949 251.98 831.773 251.912 831.629 251.776C831.485 251.632 831.413 251.46 831.413 251.26C831.413 251.052 831.485 250.88 831.629 250.744C831.773 250.6 831.949 250.528 832.157 250.528C832.365 250.528 832.541 250.6 832.685 250.744C832.837 250.88 832.913 251.052 832.913 251.26ZM835.839 259H834.711V249.928H835.839V259ZM840.588 254.236H839.076V257.2C839.076 257.544 839.14 257.792 839.268 257.944C839.396 258.088 839.6 258.16 839.88 258.16C839.984 258.16 840.096 258.148 840.216 258.124C840.336 258.1 840.444 258.064 840.54 258.016L840.576 258.94C840.44 258.988 840.288 259.024 840.12 259.048C839.96 259.08 839.792 259.096 839.616 259.096C839.08 259.096 838.668 258.948 838.38 258.652C838.1 258.356 837.96 257.912 837.96 257.32V254.236H836.868V253.312H837.96V251.68H839.076V253.312H840.588V254.236ZM845.917 255.652C845.909 255.428 845.869 255.22 845.797 255.028C845.733 254.828 845.633 254.656 845.497 254.512C845.369 254.368 845.205 254.256 845.005 254.176C844.813 254.088 844.585 254.044 844.321 254.044C844.081 254.044 843.853 254.088 843.637 254.176C843.429 254.256 843.245 254.368 843.085 254.512C842.933 254.656 842.805 254.828 842.701 255.028C842.605 255.22 842.549 255.428 842.533 255.652H845.917ZM847.057 256.108C847.057 256.172 847.057 256.236 847.057 256.3C847.057 256.364 847.053 256.428 847.045 256.492H842.533C842.541 256.732 842.593 256.96 842.689 257.176C842.793 257.384 842.929 257.568 843.097 257.728C843.265 257.88 843.457 258 843.673 258.088C843.897 258.176 844.133 258.22 844.381 258.22C844.765 258.22 845.097 258.136 845.377 257.968C845.657 257.8 845.877 257.596 846.037 257.356L846.829 257.992C846.525 258.392 846.165 258.688 845.749 258.88C845.341 259.064 844.885 259.156 844.381 259.156C843.949 259.156 843.549 259.084 843.181 258.94C842.813 258.796 842.497 258.596 842.233 258.34C841.969 258.076 841.761 257.76 841.609 257.392C841.457 257.024 841.381 256.616 841.381 256.168C841.381 255.728 841.453 255.324 841.597 254.956C841.749 254.58 841.957 254.26 842.221 253.996C842.485 253.732 842.797 253.528 843.157 253.384C843.517 253.232 843.905 253.156 844.321 253.156C844.737 253.156 845.113 253.224 845.449 253.36C845.793 253.496 846.081 253.692 846.313 253.948C846.553 254.204 846.737 254.516 846.865 254.884C846.993 255.244 847.057 255.652 847.057 256.108ZM848.632 254.536C848.632 254.384 848.628 254.188 848.62 253.948C848.612 253.708 848.6 253.496 848.584 253.312H849.652C849.668 253.456 849.68 253.624 849.688 253.816C849.696 254 849.7 254.152 849.7 254.272H849.736C849.896 253.936 850.128 253.668 850.432 253.468C850.744 253.26 851.092 253.156 851.476 253.156C851.652 253.156 851.8 253.172 851.92 253.204L851.872 254.248C851.712 254.208 851.54 254.188 851.356 254.188C851.084 254.188 850.848 254.24 850.648 254.344C850.448 254.44 850.28 254.572 850.144 254.74C850.016 254.908 849.92 255.104 849.856 255.328C849.792 255.544 849.76 255.772 849.76 256.012V259H848.632V254.536ZM856.052 254.752C855.924 254.544 855.744 254.376 855.512 254.248C855.28 254.112 855.02 254.044 854.732 254.044C854.604 254.044 854.476 254.06 854.348 254.092C854.22 254.116 854.104 254.16 854 254.224C853.904 254.28 853.824 254.356 853.76 254.452C853.704 254.54 853.676 254.652 853.676 254.788C853.676 255.028 853.784 255.208 854 255.328C854.216 255.44 854.54 255.544 854.972 255.64C855.244 255.704 855.496 255.78 855.728 255.868C855.96 255.956 856.16 256.068 856.328 256.204C856.504 256.332 856.64 256.488 856.736 256.672C856.832 256.856 856.88 257.072 856.88 257.32C856.88 257.656 856.816 257.94 856.688 258.172C856.56 258.404 856.388 258.596 856.172 258.748C855.964 258.892 855.724 258.996 855.452 259.06C855.18 259.124 854.9 259.156 854.612 259.156C854.18 259.156 853.756 259.072 853.34 258.904C852.932 258.736 852.592 258.48 852.32 258.136L853.124 257.452C853.276 257.676 853.484 257.864 853.748 258.016C854.02 258.168 854.316 258.244 854.636 258.244C854.78 258.244 854.916 258.232 855.044 258.208C855.18 258.176 855.3 258.128 855.404 258.064C855.516 258 855.604 257.916 855.668 257.812C855.732 257.708 855.764 257.576 855.764 257.416C855.764 257.152 855.636 256.956 855.38 256.828C855.132 256.7 854.764 256.58 854.276 256.468C854.084 256.42 853.888 256.364 853.688 256.3C853.496 256.228 853.32 256.132 853.16 256.012C853 255.892 852.868 255.744 852.764 255.568C852.668 255.384 852.62 255.16 852.62 254.896C852.62 254.592 852.68 254.332 852.8 254.116C852.928 253.892 853.092 253.712 853.292 253.576C853.492 253.432 853.72 253.328 853.976 253.264C854.232 253.192 854.496 253.156 854.768 253.156C855.176 253.156 855.568 253.236 855.944 253.396C856.328 253.556 856.624 253.788 856.832 254.092L856.052 254.752Z" fill="#B61616"/>
<line opacity="0.4" x1="65" y1="100.5" x2="48" y2="100.5" stroke="#B61616"/>
<line opacity="0.4" x1="65" y1="136.5" x2="48" y2="136.5" stroke="#B61616"/>
<line opacity="0.4" x1="850" y1="136.5" x2="833" y2="136.5" stroke="#B61616"/>
<line opacity="0.4" x1="225" y1="136.5" x2="208" y2="136.5" stroke="#B61616"/>
<line opacity="0.4" x1="65" y1="172.5" x2="48" y2="172.5" stroke="#B61616"/>
<line opacity="0.4" x1="850" y1="172.5" x2="833" y2="172.5" stroke="#B61616"/>
<line opacity="0.4" x1="225" y1="172.5" x2="208" y2="172.5" stroke="#B61616"/>
<line opacity="0.4" x1="65" y1="208.5" x2="48" y2="208.5" stroke="#B61616"/>
<line opacity="0.4" x1="850" y1="208.5" x2="833" y2="208.5" stroke="#B61616"/>
<line opacity="0.4" x1="225" y1="208.5" x2="208" y2="208.5" stroke="#B61616"/>
<line opacity="0.4" x1="47.5" y1="101" x2="47.5" y2="60" stroke="#B61616"/>
<line opacity="0.4" x1="47.5" y1="244" x2="47.5" y2="136" stroke="#B61616"/>
<line opacity="0.4" x1="849.5" y1="244" x2="849.5" y2="136" stroke="#B61616"/>
<line opacity="0.4" x1="207.5" y1="244" x2="207.5" y2="136" stroke="#B61616"/>
<rect x="1" y="1" width="896" height="303" rx="4" stroke="#E5E5E5"/>
</svg>
