<svg width="602" height="146" viewBox="0 0 602 146" fill="none" xmlns="http://www.w3.org/2000/svg">
<rect x="241" y="37" width="180" height="36" stroke="#E5E5E5"/>
<rect x="241" y="1" width="180" height="36" fill="#FAFAFA" stroke="#E5E5E5"/>
<rect x="421" y="37" width="180" height="36" stroke="#E5E5E5"/>
<path d="M421 1H597C599.209 1 601 2.79086 601 5V37H421V1Z" fill="#FAFAFA" stroke="#E5E5E5"/>
<rect x="241" y="73" width="180" height="36" stroke="#E5E5E5"/>
<rect x="421" y="73" width="180" height="36" stroke="#E5E5E5"/>
<rect x="241" y="109" width="180" height="36" stroke="#E5E5E5"/>
<path d="M421 109H601V141C601 143.209 599.209 145 597 145H421V109Z" stroke="#E5E5E5"/>
<rect x="1" y="37" width="240" height="36" stroke="#E5E5E5"/>
<path d="M1 5C1 2.79086 2.79086 1 5 1H241V37H1V5Z" fill="#FAFAFA" stroke="#E5E5E5"/>
<rect x="1" y="73" width="240" height="36" stroke="#E5E5E5"/>
<path d="M1 109H241V145H5C2.79086 145 1 143.209 1 141V109Z" stroke="#E5E5E5"/>
<path d="M24.8253 53.0696H26.7045C26.3913 51.071 24.6612 49.679 22.4091 49.679C19.7443 49.679 17.7457 51.6378 17.7457 54.919C17.7457 58.1406 19.6548 60.1392 22.4638 60.1392C24.9844 60.1392 26.7891 58.5185 26.7891 55.8935V54.6705H22.6577V56.1122H25.0043C24.9744 57.5639 24.005 58.4837 22.4737 58.4837C20.7685 58.4837 19.6001 57.206 19.6001 54.8991C19.6001 52.6072 20.7884 51.3345 22.4339 51.3345C23.6619 51.3345 24.4972 51.9908 24.8253 53.0696ZM31.8738 60.1491C33.6536 60.1491 34.8766 59.2791 35.1948 57.9517L33.5144 57.7628C33.2708 58.4091 32.6742 58.7472 31.8986 58.7472C30.7353 58.7472 29.9647 57.9815 29.9498 56.674H35.2694V56.1222C35.2694 53.4425 33.6586 52.2642 31.7793 52.2642C29.5918 52.2642 28.165 53.87 28.165 56.2266C28.165 58.6229 29.5719 60.1491 31.8738 60.1491ZM29.9547 55.4609C30.0094 54.4865 30.7303 53.6662 31.8042 53.6662C32.8382 53.6662 33.5343 54.4219 33.5442 55.4609H29.9547ZM36.7919 60H38.5916V55.5107C38.5916 54.5412 39.3224 53.8551 40.3118 53.8551C40.6151 53.8551 40.9929 53.9098 41.147 53.9595V52.304C40.983 52.2741 40.6996 52.2543 40.5007 52.2543C39.6257 52.2543 38.8949 52.7514 38.6165 53.6364H38.5369V52.3636H36.7919V60ZM42.3427 60H44.1424V55.3565C44.1424 54.4169 44.7688 53.7805 45.5444 53.7805C46.305 53.7805 46.8271 54.2926 46.8271 55.0781V60H48.592V55.2372C48.592 54.3771 49.104 53.7805 49.9741 53.7805C50.6999 53.7805 51.2766 54.2081 51.2766 55.1527V60H53.0813V54.8743C53.0813 53.169 52.0969 52.2642 50.695 52.2642C49.5863 52.2642 48.7411 52.8111 48.4031 53.6612H48.3235C48.0302 52.7962 47.2894 52.2642 46.2603 52.2642C45.2362 52.2642 44.4705 52.7912 44.1523 53.6612H44.0629V52.3636H42.3427V60ZM57.1046 60.1541C58.3027 60.1541 59.0186 59.5923 59.3468 58.951H59.4064V60H61.1365V54.8892C61.1365 52.8707 59.4909 52.2642 58.0343 52.2642C56.4284 52.2642 55.1955 52.9801 54.7978 54.3722L56.4782 54.6108C56.6571 54.0888 57.1642 53.6413 58.0442 53.6413C58.8794 53.6413 59.3368 54.0689 59.3368 54.8196V54.8494C59.3368 55.3665 58.7949 55.3913 57.4476 55.5355C55.9661 55.6946 54.5492 56.1371 54.5492 57.8572C54.5492 59.3587 55.6479 60.1541 57.1046 60.1541ZM57.5719 58.8317C56.8212 58.8317 56.2843 58.4886 56.2843 57.8274C56.2843 57.1364 56.8858 56.848 57.6912 56.7337C58.1635 56.669 59.1081 56.5497 59.3418 56.3608V57.2607C59.3418 58.1108 58.6557 58.8317 57.5719 58.8317ZM64.7459 55.5256C64.7459 54.4219 65.4121 53.7855 66.3617 53.7855C67.2914 53.7855 67.8482 54.397 67.8482 55.4162V60H69.6479V55.1378C69.6529 53.3082 68.6088 52.2642 67.0328 52.2642C65.8894 52.2642 65.1039 52.8111 64.7559 53.6612H64.6664V52.3636H62.9462V60H64.7459V55.5256ZM72.258 62.973C73.65 62.973 74.5151 62.1974 74.9426 60.9943L78.025 52.3636H76.111L74.3461 58.1307H74.2665L72.5066 52.3636H70.5975L73.3667 60.1591L73.1877 60.6463C72.8496 61.4865 72.3276 61.5561 71.5421 61.3274L71.1245 62.7692C71.3283 62.8537 71.731 62.973 72.258 62.973Z" fill="#1A1A1A"/>
<path d="M26.7195 17.2536C26.4062 14.9915 24.6662 13.679 22.4091 13.679C19.7493 13.679 17.7457 15.6179 17.7457 18.9091C17.7457 22.1953 19.7244 24.1392 22.4091 24.1392C24.8303 24.1392 26.4361 22.5732 26.7195 20.6293L24.8601 20.6193C24.6264 21.8125 23.652 22.4837 22.4339 22.4837C20.7834 22.4837 19.6001 21.2457 19.6001 18.9091C19.6001 16.6122 20.7734 15.3345 22.4389 15.3345C23.6768 15.3345 24.6463 16.0355 24.8601 17.2536H26.7195ZM31.66 24.1491C33.8972 24.1491 35.3191 22.5732 35.3191 20.2116C35.3191 17.8452 33.8972 16.2642 31.66 16.2642C29.4228 16.2642 28.0009 17.8452 28.0009 20.2116C28.0009 22.5732 29.4228 24.1491 31.66 24.1491ZM31.6699 22.7074C30.432 22.7074 29.8255 21.6037 29.8255 20.2067C29.8255 18.8097 30.432 17.6911 31.6699 17.6911C32.888 17.6911 33.4945 18.8097 33.4945 20.2067C33.4945 21.6037 32.888 22.7074 31.6699 22.7074ZM41.7138 20.7884C41.7138 21.9517 40.8835 22.5284 40.0881 22.5284C39.223 22.5284 38.6463 21.9169 38.6463 20.9474V16.3636H36.8466V21.2259C36.8466 23.0604 37.8906 24.0994 39.392 24.0994C40.5355 24.0994 41.3409 23.4979 41.6889 22.6428H41.7685V24H43.5135V16.3636H41.7138V20.7884ZM47.1639 19.5256C47.1639 18.4219 47.8301 17.7855 48.7797 17.7855C49.7093 17.7855 50.2662 18.397 50.2662 19.4162V24H52.0659V19.1378C52.0708 17.3082 51.0268 16.2642 49.4508 16.2642C48.3074 16.2642 47.5218 16.8111 47.1738 17.6612H47.0843V16.3636H45.3642V24H47.1639V19.5256ZM57.7086 16.3636H56.2022V14.5341H54.4025V16.3636H53.3187V17.7557H54.4025V22.0014C54.3926 23.4382 55.4366 24.1442 56.7889 24.1044C57.301 24.0895 57.6539 23.9901 57.8478 23.9254L57.5446 22.5185C57.4451 22.5433 57.2413 22.5881 57.0176 22.5881C56.5652 22.5881 56.2022 22.429 56.2022 21.7031V17.7557H57.7086V16.3636ZM59.2138 24H61.0135V19.5107C61.0135 18.5412 61.7443 17.8551 62.7337 17.8551C63.0369 17.8551 63.4148 17.9098 63.5689 17.9595V16.304C63.4048 16.2741 63.1214 16.2543 62.9226 16.2543C62.0476 16.2543 61.3168 16.7514 61.0384 17.6364H60.9588V16.3636H59.2138V24ZM66.051 26.973C67.443 26.973 68.3081 26.1974 68.7356 24.9943L71.818 16.3636H69.9039L68.139 22.1307H68.0595L66.2995 16.3636H64.3904L67.1596 24.1591L66.9806 24.6463C66.6426 25.4865 66.1206 25.5561 65.335 25.3274L64.9174 26.7692C65.1213 26.8537 65.524 26.973 66.051 26.973ZM76.9835 18.9091C76.9835 21.3899 77.6447 23.4531 78.9522 25.223H80.6475C79.6383 23.9105 78.8578 21.2656 78.8578 18.9091C78.8578 16.5476 79.6383 13.9027 80.6475 12.5902H78.9522C77.6447 14.3601 76.9835 16.4283 76.9835 18.9091ZM85.5756 24C88.6779 24 90.5174 22.081 90.5174 18.8991C90.5174 15.7273 88.6779 13.8182 85.6452 13.8182H82.1254V24H85.5756ZM83.9698 22.4041V15.4141H85.5408C87.609 15.4141 88.6879 16.5675 88.6879 18.8991C88.6879 21.2408 87.609 22.4041 85.4862 22.4041H83.9698ZM92.1903 24H93.9901V16.3636H92.1903V24ZM93.0952 15.2798C93.6669 15.2798 94.1342 14.8423 94.1342 14.3054C94.1342 13.7635 93.6669 13.326 93.0952 13.326C92.5185 13.326 92.0511 13.7635 92.0511 14.3054C92.0511 14.8423 92.5185 15.2798 93.0952 15.2798ZM95.8407 24H97.6404V19.3565C97.6404 18.4169 98.2669 17.7805 99.0424 17.7805C99.8031 17.7805 100.325 18.2926 100.325 19.0781V24H102.09V19.2372C102.09 18.3771 102.602 17.7805 103.472 17.7805C104.198 17.7805 104.775 18.2081 104.775 19.1527V24H106.579V18.8743C106.579 17.169 105.595 16.2642 104.193 16.2642C103.084 16.2642 102.239 16.8111 101.901 17.6612H101.822C101.528 16.7962 100.787 16.2642 99.7583 16.2642C98.7342 16.2642 97.9686 16.7912 97.6504 17.6612H97.5609V16.3636H95.8407V24ZM111.786 24.1491C113.566 24.1491 114.789 23.2791 115.107 21.9517L113.426 21.7628C113.183 22.4091 112.586 22.7472 111.811 22.7472C110.647 22.7472 109.877 21.9815 109.862 20.674H115.181V20.1222C115.181 17.4425 113.571 16.2642 111.691 16.2642C109.504 16.2642 108.077 17.87 108.077 20.2266C108.077 22.6229 109.484 24.1491 111.786 24.1491ZM109.867 19.4609C109.922 18.4865 110.642 17.6662 111.716 17.6662C112.75 17.6662 113.446 18.4219 113.456 19.4609H109.867ZM118.504 19.5256C118.504 18.4219 119.17 17.7855 120.119 17.7855C121.049 17.7855 121.606 18.397 121.606 19.4162V24H123.406V19.1378C123.411 17.3082 122.367 16.2642 120.791 16.2642C119.647 16.2642 118.862 16.8111 118.514 17.6612H118.424V16.3636H116.704V24H118.504V19.5256ZM131.271 18.3821C131.022 17.0895 129.988 16.2642 128.198 16.2642C126.359 16.2642 125.106 17.169 125.111 18.581C125.106 19.6946 125.792 20.4304 127.259 20.7337L128.561 21.0071C129.262 21.1612 129.59 21.4446 129.59 21.8771C129.59 22.3991 129.024 22.7919 128.169 22.7919C127.343 22.7919 126.806 22.4339 126.652 21.7479L124.897 21.9169C125.121 23.3189 126.299 24.1491 128.173 24.1491C130.083 24.1491 131.43 23.1598 131.435 21.7131C131.43 20.6243 130.729 19.9581 129.287 19.6449L127.985 19.3665C127.209 19.1925 126.901 18.924 126.906 18.4815C126.901 17.9645 127.472 17.6065 128.223 17.6065C129.053 17.6065 129.491 18.0589 129.63 18.5611L131.271 18.3821ZM132.919 24H134.719V16.3636H132.919V24ZM133.824 15.2798C134.395 15.2798 134.863 14.8423 134.863 14.3054C134.863 13.7635 134.395 13.326 133.824 13.326C133.247 13.326 132.78 13.7635 132.78 14.3054C132.78 14.8423 133.247 15.2798 133.824 15.2798ZM139.9 24.1491C142.137 24.1491 143.559 22.5732 143.559 20.2116C143.559 17.8452 142.137 16.2642 139.9 16.2642C137.663 16.2642 136.241 17.8452 136.241 20.2116C136.241 22.5732 137.663 24.1491 139.9 24.1491ZM139.91 22.7074C138.672 22.7074 138.066 21.6037 138.066 20.2067C138.066 18.8097 138.672 17.6911 139.91 17.6911C141.128 17.6911 141.735 18.8097 141.735 20.2067C141.735 21.6037 141.128 22.7074 139.91 22.7074ZM146.887 19.5256C146.887 18.4219 147.553 17.7855 148.502 17.7855C149.432 17.7855 149.989 18.397 149.989 19.4162V24H151.789V19.1378C151.794 17.3082 150.749 16.2642 149.173 16.2642C148.03 16.2642 147.244 16.8111 146.896 17.6612H146.807V16.3636H145.087V24H146.887V19.5256ZM156.83 19.8487C156.83 17.3679 156.169 15.3047 154.861 13.5348H153.166C154.175 14.8473 154.955 17.4922 154.955 19.8487C154.955 22.2102 154.175 24.8551 153.166 26.1676H154.861C156.169 24.3977 156.83 22.3295 156.83 19.8487Z" fill="black"/>
<path d="M259.42 60.1392C261.538 60.1392 263.034 58.9361 263.044 57.2855C263.034 56.0028 262.134 54.924 260.996 54.7202V54.6605C261.985 54.4219 262.656 53.4922 262.666 52.3935C262.656 50.8374 261.284 49.679 259.42 49.679C257.536 49.679 256.163 50.8374 256.173 52.3935C256.163 53.4872 256.835 54.4219 257.844 54.6605V54.7202C256.685 54.924 255.786 56.0028 255.795 57.2855C255.786 58.9361 257.282 60.1392 259.42 60.1392ZM259.42 58.8814C258.147 58.8814 257.342 58.2053 257.352 57.1861C257.342 56.1271 258.217 55.3714 259.42 55.3714C260.603 55.3714 261.478 56.1271 261.488 57.1861C261.478 58.2053 260.678 58.8814 259.42 58.8814ZM259.42 54.1435C258.391 54.1435 257.66 53.4922 257.67 52.5227C257.66 51.5682 258.366 50.9368 259.42 50.9368C260.454 50.9368 261.16 51.5682 261.17 52.5227C261.16 53.4922 260.434 54.1435 259.42 54.1435ZM266.3 58.608H264.869L264.819 59.1648C264.705 60.5121 264.386 61.8693 264.252 62.4858H265.306C265.545 61.8345 266.072 60.343 266.226 59.1499L266.3 58.608ZM271.741 60.1392C273.789 60.1392 275.251 58.6925 275.246 56.7088C275.251 54.7401 273.878 53.3082 272.024 53.3082C271.268 53.3082 270.567 53.5966 270.17 53.9844H270.11L270.433 51.1357H274.753V49.8182H269.155L268.584 54.9489L269.991 55.1577C270.373 54.8146 271.059 54.581 271.676 54.581C272.884 54.5909 273.759 55.4957 273.759 56.7386C273.759 57.9616 272.909 58.8466 271.741 58.8466C270.756 58.8466 269.976 58.2202 269.896 57.3452H268.405C268.464 58.9659 269.871 60.1392 271.741 60.1392ZM277.061 60H283.763V58.6825H279.179V58.608L281.203 56.4901C283.067 54.6058 283.599 53.706 283.599 52.5675C283.599 50.9318 282.267 49.679 280.348 49.679C278.444 49.679 277.051 50.9119 277.051 52.7713H278.518C278.513 51.6776 279.219 50.9616 280.318 50.9616C281.352 50.9616 282.137 51.598 282.137 52.6122C282.137 53.5121 281.6 54.1584 280.507 55.3168L277.061 58.8864V60ZM289.033 49.6541C286.895 49.6392 285.498 51.1705 285.498 53.1193C285.498 55.0682 286.91 56.4702 288.675 56.4702C289.754 56.4702 290.679 55.9432 291.201 55.0881H291.28C291.275 57.4297 290.395 58.7969 288.904 58.7969C287.929 58.7969 287.303 58.2003 287.104 57.3303H285.588C285.811 58.9759 287.084 60.1392 288.904 60.1392C291.27 60.1392 292.747 58.1058 292.752 54.5412C292.747 50.7976 290.848 49.669 289.033 49.6541ZM289.038 50.9467C290.216 50.9467 291.086 51.946 291.086 53.0845C291.086 54.223 290.172 55.2173 289.008 55.2173C287.84 55.2173 286.99 54.2827 286.99 53.0994C286.99 51.8963 287.87 50.9467 289.038 50.9467Z" fill="#1A1A1A"/>
<path d="M257.849 13.8182H256.004V24H257.849V13.8182ZM263.58 16.3636H262.073V14.5341H260.274V16.3636H259.19V17.7557H260.274V22.0014C260.264 23.4382 261.308 24.1442 262.66 24.1044C263.172 24.0895 263.525 23.9901 263.719 23.9254L263.416 22.5185C263.316 22.5433 263.112 22.5881 262.889 22.5881C262.436 22.5881 262.073 22.429 262.073 21.7031V17.7557H263.58V16.3636ZM268.384 24.1491C270.163 24.1491 271.386 23.2791 271.705 21.9517L270.024 21.7628C269.781 22.4091 269.184 22.7472 268.408 22.7472C267.245 22.7472 266.474 21.9815 266.46 20.674H271.779V20.1222C271.779 17.4425 270.168 16.2642 268.289 16.2642C266.102 16.2642 264.675 17.87 264.675 20.2266C264.675 22.6229 266.082 24.1491 268.384 24.1491ZM266.464 19.4609C266.519 18.4865 267.24 17.6662 268.314 17.6662C269.348 17.6662 270.044 18.4219 270.054 19.4609H266.464ZM273.302 24H275.101V19.3565C275.101 18.4169 275.728 17.7805 276.503 17.7805C277.264 17.7805 277.786 18.2926 277.786 19.0781V24H279.551V19.2372C279.551 18.3771 280.063 17.7805 280.933 17.7805C281.659 17.7805 282.236 18.2081 282.236 19.1527V24H284.04V18.8743C284.04 17.169 283.056 16.2642 281.654 16.2642C280.545 16.2642 279.7 16.8111 279.362 17.6612H279.282C278.989 16.7962 278.248 16.2642 277.219 16.2642C276.195 16.2642 275.43 16.7912 275.111 17.6612H275.022V16.3636H273.302V24ZM291.902 18.3821C291.653 17.0895 290.619 16.2642 288.829 16.2642C286.99 16.2642 285.737 17.169 285.742 18.581C285.737 19.6946 286.423 20.4304 287.89 20.7337L289.192 21.0071C289.893 21.1612 290.221 21.4446 290.221 21.8771C290.221 22.3991 289.654 22.7919 288.799 22.7919C287.974 22.7919 287.437 22.4339 287.283 21.7479L285.528 21.9169C285.752 23.3189 286.93 24.1491 288.804 24.1491C290.713 24.1491 292.061 23.1598 292.066 21.7131C292.061 20.6243 291.36 19.9581 289.918 19.6449L288.615 19.3665C287.84 19.1925 287.532 18.924 287.537 18.4815C287.532 17.9645 288.103 17.6065 288.854 17.6065C289.684 17.6065 290.122 18.0589 290.261 18.5611L291.902 18.3821ZM303.058 18.3821C302.809 17.0895 301.775 16.2642 299.985 16.2642C298.146 16.2642 296.893 17.169 296.898 18.581C296.893 19.6946 297.579 20.4304 299.046 20.7337L300.348 21.0071C301.049 21.1612 301.377 21.4446 301.377 21.8771C301.377 22.3991 300.811 22.7919 299.956 22.7919C299.13 22.7919 298.593 22.4339 298.439 21.7479L296.684 21.9169C296.908 23.3189 298.086 24.1491 299.961 24.1491C301.87 24.1491 303.217 23.1598 303.222 21.7131C303.217 20.6243 302.516 19.9581 301.074 19.6449L299.772 19.3665C298.996 19.1925 298.688 18.924 298.693 18.4815C298.688 17.9645 299.26 17.6065 300.01 17.6065C300.841 17.6065 301.278 18.0589 301.417 18.5611L303.058 18.3821ZM308.037 24.1491C310.274 24.1491 311.696 22.5732 311.696 20.2116C311.696 17.8452 310.274 16.2642 308.037 16.2642C305.8 16.2642 304.378 17.8452 304.378 20.2116C304.378 22.5732 305.8 24.1491 308.037 24.1491ZM308.047 22.7074C306.809 22.7074 306.202 21.6037 306.202 20.2067C306.202 18.8097 306.809 17.6911 308.047 17.6911C309.265 17.6911 309.871 18.8097 309.871 20.2067C309.871 21.6037 309.265 22.7074 308.047 22.7074ZM315.023 13.8182H313.224V24H315.023V13.8182ZM319.708 24.1342C321.02 24.1342 321.612 23.3537 321.895 22.7969H322.005V24H323.775V13.8182H321.97V17.6264H321.895C321.622 17.0746 321.06 16.2642 319.713 16.2642C317.948 16.2642 316.561 17.6463 316.561 20.1918C316.561 22.7074 317.908 24.1342 319.708 24.1342ZM320.21 22.6577C319.022 22.6577 318.395 21.6136 318.395 20.1818C318.395 18.7599 319.012 17.7408 320.21 17.7408C321.368 17.7408 322.005 18.7003 322.005 20.1818C322.005 21.6634 321.358 22.6577 320.21 22.6577ZM329.612 18.9091C329.612 21.3899 330.274 23.4531 331.581 25.223H333.276C332.267 23.9105 331.487 21.2656 331.487 18.9091C331.487 16.5476 332.267 13.9027 333.276 12.5902H331.581C330.274 14.3601 329.612 16.4283 329.612 18.9091ZM334.754 13.8182V24H336.524V16.9901H336.619L339.433 23.9702H340.755L343.569 17.005H343.663V24H345.433V13.8182H343.176L340.153 21.196H340.034L337.011 13.8182H334.754ZM350.934 24.1491C352.714 24.1491 353.937 23.2791 354.255 21.9517L352.575 21.7628C352.331 22.4091 351.735 22.7472 350.959 22.7472C349.796 22.7472 349.025 21.9815 349.01 20.674H354.33V20.1222C354.33 17.4425 352.719 16.2642 350.84 16.2642C348.652 16.2642 347.225 17.87 347.225 20.2266C347.225 22.6229 348.632 24.1491 350.934 24.1491ZM349.015 19.4609C349.07 18.4865 349.791 17.6662 350.865 17.6662C351.899 17.6662 352.595 18.4219 352.605 19.4609H349.015ZM359.666 16.3636H358.159V14.5341H356.36V16.3636H355.276V17.7557H356.36V22.0014C356.35 23.4382 357.394 24.1442 358.746 24.1044C359.258 24.0895 359.611 23.9901 359.805 23.9254L359.502 22.5185C359.402 22.5433 359.198 22.5881 358.975 22.5881C358.522 22.5881 358.159 22.429 358.159 21.7031V17.7557H359.666V16.3636ZM361.171 24H362.971V19.5107C362.971 18.5412 363.701 17.8551 364.691 17.8551C364.994 17.8551 365.372 17.9098 365.526 17.9595V16.304C365.362 16.2741 365.078 16.2543 364.88 16.2543C364.005 16.2543 363.274 16.7514 362.995 17.6364H362.916V16.3636H361.171V24ZM366.722 24H368.521V16.3636H366.722V24ZM367.626 15.2798C368.198 15.2798 368.665 14.8423 368.665 14.3054C368.665 13.7635 368.198 13.326 367.626 13.326C367.05 13.326 366.582 13.7635 366.582 14.3054C366.582 14.8423 367.05 15.2798 367.626 15.2798ZM373.703 24.1491C375.622 24.1491 376.845 23.0107 376.974 21.3899H375.254C375.1 22.2102 374.508 22.6825 373.718 22.6825C372.594 22.6825 371.868 21.7429 371.868 20.1818C371.868 18.6406 372.609 17.7159 373.718 17.7159C374.583 17.7159 375.115 18.2727 375.254 19.0085H376.974C376.85 17.353 375.557 16.2642 373.693 16.2642C371.456 16.2642 370.044 17.88 370.044 20.2116C370.044 22.5234 371.421 24.1491 373.703 24.1491ZM381.664 19.8487C381.664 17.3679 381.002 15.3047 379.695 13.5348H378C379.009 14.8473 379.789 17.4922 379.789 19.8487C379.789 22.2102 379.009 24.8551 378 26.1676H379.695C381.002 24.3977 381.664 22.3295 381.664 19.8487Z" fill="#1A1A1A"/>
<path d="M439.047 61.2727H439.982L439.987 60.1541C442.089 60 443.293 58.7969 443.293 57.1861C443.293 55.3516 441.657 54.6406 440.364 54.3224L440.001 54.228L440.011 51.0362C440.941 51.1605 441.577 51.6776 441.672 52.4929H443.153C443.114 50.9766 441.861 49.843 440.016 49.6939L440.021 48.5455H439.087L439.082 49.7038C437.297 49.8828 435.989 50.9964 435.989 52.6023C435.989 54.0192 437.004 54.8494 438.639 55.2919L439.067 55.4062L439.057 58.7919C438.087 58.6726 437.337 58.1456 437.257 57.1861H435.716C435.81 58.9013 437.048 60.005 439.052 60.1541L439.047 61.2727ZM439.991 58.7919L440.001 55.6648C441.011 55.9432 441.771 56.3111 441.771 57.1712C441.771 58.0412 441.045 58.6527 439.991 58.7919ZM439.072 53.9794C438.331 53.7607 437.516 53.3679 437.521 52.5128C437.521 51.767 438.112 51.1854 439.077 51.0412L439.072 53.9794ZM448.48 58.0114H453.308V60H454.775V58.0114H456.122V56.7088H454.775V49.8182H452.88L448.48 56.7685V58.0114ZM453.318 56.7088H450.091V56.6293L453.238 51.6477H453.318V56.7088ZM461.297 49.8182H459.865C459.811 50.0966 459.035 51.3842 457.549 51.3842V52.647C458.702 52.647 459.502 52.1896 459.672 51.8913H459.756V60H461.297V49.8182ZM466.002 58.608H464.57L464.52 59.1648C464.406 60.5121 464.088 61.8693 463.953 62.4858H465.007C465.246 61.8345 465.773 60.343 465.927 59.1499L466.002 58.608ZM467.867 58.0114H472.695V60H474.161V58.0114H475.509V56.7088H474.161V49.8182H472.267L467.867 56.7685V58.0114ZM472.705 56.7088H469.478V56.6293L472.625 51.6477H472.705V56.7088ZM477.241 60H483.943V58.6825H479.359V58.608L481.382 56.4901C483.247 54.6058 483.779 53.706 483.779 52.5675C483.779 50.9318 482.446 49.679 480.527 49.679C478.623 49.679 477.231 50.9119 477.231 52.7713H478.698C478.693 51.6776 479.399 50.9616 480.498 50.9616C481.532 50.9616 482.317 51.598 482.317 52.6122C482.317 53.5121 481.78 54.1584 480.686 55.3168L477.241 58.8864V60ZM489.372 60.1392C491.45 60.1392 492.976 58.8963 492.971 57.206C492.976 55.9183 492.196 54.9936 490.843 54.7848V54.7053C491.907 54.4318 492.598 53.5966 492.593 52.4531C492.598 50.9567 491.37 49.679 489.412 49.679C487.542 49.679 486.041 50.8075 485.991 52.4631H487.478C487.512 51.5284 488.392 50.9616 489.392 50.9616C490.431 50.9616 491.112 51.593 491.107 52.5327C491.112 53.517 490.321 54.1634 489.193 54.1634H488.333V55.4162H489.193C490.605 55.4162 491.42 56.1321 491.42 57.1562C491.42 58.1456 490.56 58.8168 489.362 58.8168C488.258 58.8168 487.398 58.25 487.338 57.3452H485.777C485.842 59.0057 487.314 60.1392 489.372 60.1392ZM496.326 58.608H494.894L494.844 59.1648C494.73 60.5121 494.412 61.8693 494.278 62.4858H495.331C495.57 61.8345 496.097 60.343 496.251 59.1499L496.326 58.608ZM501.399 60.1392C503.527 60.1591 504.939 58.6278 504.934 56.674C504.939 54.7251 503.522 53.3281 501.757 53.3281C500.683 53.3281 499.754 53.8452 499.232 54.7053H499.157C499.162 52.3686 500.037 51.0014 501.529 51.0014C502.508 51.0014 503.124 51.593 503.333 52.4631H504.85C504.616 50.8274 503.348 49.6541 501.529 49.6541C499.162 49.6541 497.686 51.6875 497.686 55.2521C497.686 59.0007 499.59 60.1243 501.399 60.1392ZM501.394 58.8466C500.211 58.8466 499.346 57.8523 499.346 56.7088C499.351 55.5703 500.256 54.576 501.429 54.576C502.593 54.576 503.448 55.5156 503.443 56.6939C503.448 57.897 502.558 58.8466 501.394 58.8466ZM510.106 60.1392C512.154 60.1392 513.616 58.6925 513.611 56.7088C513.616 54.7401 512.244 53.3082 510.389 53.3082C509.634 53.3082 508.933 53.5966 508.535 53.9844H508.475L508.798 51.1357H513.119V49.8182H507.521L506.949 54.9489L508.356 55.1577C508.739 54.8146 509.425 54.581 510.041 54.581C511.249 54.5909 512.124 55.4957 512.124 56.7386C512.124 57.9616 511.274 58.8466 510.106 58.8466C509.121 58.8466 508.341 58.2202 508.261 57.3452H506.77C506.83 58.9659 508.237 60.1392 510.106 60.1392ZM515.213 58.0114H520.04V60H521.507V58.0114H522.854V56.7088H521.507V49.8182H519.613L515.213 56.7685V58.0114ZM520.05 56.7088H516.824V56.6293L519.971 51.6477H520.05V56.7088Z" fill="#1A1A1A"/>
<path d="M436.004 24H437.849V20.2713H439.728L441.727 24H443.785L441.582 19.9631C442.781 19.4808 443.412 18.4567 443.412 17.0746C443.412 15.1307 442.159 13.8182 439.822 13.8182H436.004V24ZM437.849 18.7401V15.3594H439.539C440.916 15.3594 441.533 15.9908 441.533 17.0746C441.533 18.1584 440.916 18.7401 439.549 18.7401H437.849ZM448.301 24.1491C450.081 24.1491 451.304 23.2791 451.623 21.9517L449.942 21.7628C449.699 22.4091 449.102 22.7472 448.326 22.7472C447.163 22.7472 446.392 21.9815 446.377 20.674H451.697V20.1222C451.697 17.4425 450.086 16.2642 448.207 16.2642C446.02 16.2642 444.593 17.87 444.593 20.2266C444.593 22.6229 446 24.1491 448.301 24.1491ZM446.382 19.4609C446.437 18.4865 447.158 17.6662 448.232 17.6662C449.266 17.6662 449.962 18.4219 449.972 19.4609H446.382ZM459.959 16.3636H458.045L456.285 22.0362H456.205L454.45 16.3636H452.531L455.251 24H457.239L459.959 16.3636ZM464.325 24.1491C466.105 24.1491 467.328 23.2791 467.646 21.9517L465.966 21.7628C465.722 22.4091 465.125 22.7472 464.35 22.7472C463.186 22.7472 462.416 21.9815 462.401 20.674H467.721V20.1222C467.721 17.4425 466.11 16.2642 464.23 16.2642C462.043 16.2642 460.616 17.87 460.616 20.2266C460.616 22.6229 462.023 24.1491 464.325 24.1491ZM462.406 19.4609C462.461 18.4865 463.181 17.6662 464.255 17.6662C465.289 17.6662 465.985 18.4219 465.995 19.4609H462.406ZM471.043 19.5256C471.043 18.4219 471.709 17.7855 472.659 17.7855C473.588 17.7855 474.145 18.397 474.145 19.4162V24H475.945V19.1378C475.95 17.3082 474.906 16.2642 473.33 16.2642C472.186 16.2642 471.401 16.8111 471.053 17.6612H470.963V16.3636H469.243V24H471.043V19.5256ZM482.642 20.7884C482.642 21.9517 481.811 22.5284 481.016 22.5284C480.151 22.5284 479.574 21.9169 479.574 20.9474V16.3636H477.774V21.2259C477.774 23.0604 478.818 24.0994 480.32 24.0994C481.463 24.0994 482.269 23.4979 482.617 22.6428H482.696V24H484.441V16.3636H482.642V20.7884ZM489.673 24.1491C491.452 24.1491 492.675 23.2791 492.994 21.9517L491.313 21.7628C491.07 22.4091 490.473 22.7472 489.697 22.7472C488.534 22.7472 487.763 21.9815 487.749 20.674H493.068V20.1222C493.068 17.4425 491.457 16.2642 489.578 16.2642C487.391 16.2642 485.964 17.87 485.964 20.2266C485.964 22.6229 487.371 24.1491 489.673 24.1491ZM487.754 19.4609C487.808 18.4865 488.529 17.6662 489.603 17.6662C490.637 17.6662 491.333 18.4219 491.343 19.4609H487.754ZM498.511 18.9091C498.511 21.3899 499.172 23.4531 500.48 25.223H502.175C501.166 23.9105 500.385 21.2656 500.385 18.9091C500.385 16.5476 501.166 13.9027 502.175 12.5902H500.48C499.172 14.3601 498.511 16.4283 498.511 18.9091ZM503.653 13.8182V24H505.423V16.9901H505.517L508.331 23.9702H509.653L512.467 17.005H512.562V24H514.332V13.8182H512.075L509.052 21.196H508.933L505.91 13.8182H503.653ZM519.833 24.1491C521.613 24.1491 522.836 23.2791 523.154 21.9517L521.473 21.7628C521.23 22.4091 520.633 22.7472 519.858 22.7472C518.694 22.7472 517.924 21.9815 517.909 20.674H523.228V20.1222C523.228 17.4425 521.618 16.2642 519.738 16.2642C517.551 16.2642 516.124 17.87 516.124 20.2266C516.124 22.6229 517.531 24.1491 519.833 24.1491ZM517.914 19.4609C517.968 18.4865 518.689 17.6662 519.763 17.6662C520.797 17.6662 521.493 18.4219 521.503 19.4609H517.914ZM528.564 16.3636H527.058V14.5341H525.258V16.3636H524.174V17.7557H525.258V22.0014C525.248 23.4382 526.292 24.1442 527.644 24.1044C528.156 24.0895 528.509 23.9901 528.703 23.9254L528.4 22.5185C528.301 22.5433 528.097 22.5881 527.873 22.5881C527.421 22.5881 527.058 22.429 527.058 21.7031V17.7557H528.564V16.3636ZM530.069 24H531.869V19.5107C531.869 18.5412 532.6 17.8551 533.589 17.8551C533.892 17.8551 534.27 17.9098 534.424 17.9595V16.304C534.26 16.2741 533.977 16.2543 533.778 16.2543C532.903 16.2543 532.172 16.7514 531.894 17.6364H531.814V16.3636H530.069V24ZM535.62 24H537.42V16.3636H535.62V24ZM536.525 15.2798C537.097 15.2798 537.564 14.8423 537.564 14.3054C537.564 13.7635 537.097 13.326 536.525 13.326C535.948 13.326 535.481 13.7635 535.481 14.3054C535.481 14.8423 535.948 15.2798 536.525 15.2798ZM542.601 24.1491C544.52 24.1491 545.743 23.0107 545.873 21.3899H544.153C543.998 22.2102 543.407 22.6825 542.616 22.6825C541.493 22.6825 540.767 21.7429 540.767 20.1818C540.767 18.6406 541.508 17.7159 542.616 17.7159C543.481 17.7159 544.013 18.2727 544.153 19.0085H545.873C545.748 17.353 544.456 16.2642 542.591 16.2642C540.354 16.2642 538.942 17.88 538.942 20.2116C538.942 22.5234 540.319 24.1491 542.601 24.1491ZM550.562 19.8487C550.562 17.3679 549.901 15.3047 548.593 13.5348H546.898C547.907 14.8473 548.688 17.4922 548.688 19.8487C548.688 22.2102 547.907 24.8551 546.898 26.1676H548.593C549.901 24.3977 550.562 22.3295 550.562 19.8487Z" fill="#1A1A1A"/>
<path d="M26.3714 85.8182H24.5369V92.7585H24.4474L19.6548 85.8182H18.0043V96H19.8487V89.0646H19.9332L24.7308 96H26.3714V85.8182ZM31.6326 96.1491C33.8699 96.1491 35.2917 94.5732 35.2917 92.2116C35.2917 89.8452 33.8699 88.2642 31.6326 88.2642C29.3954 88.2642 27.9735 89.8452 27.9735 92.2116C27.9735 94.5732 29.3954 96.1491 31.6326 96.1491ZM31.6426 94.7074C30.4047 94.7074 29.7981 93.6037 29.7981 92.2067C29.7981 90.8097 30.4047 89.6911 31.6426 89.6911C32.8606 89.6911 33.4672 90.8097 33.4672 92.2067C33.4672 93.6037 32.8606 94.7074 31.6426 94.7074ZM36.8192 96H38.619V91.5107C38.619 90.5412 39.3498 89.8551 40.3391 89.8551C40.6424 89.8551 41.0202 89.9098 41.1744 89.9595V88.304C41.0103 88.2741 40.7269 88.2543 40.5281 88.2543C39.6531 88.2543 38.9222 88.7514 38.6438 89.6364H38.5643V88.3636H36.8192V96ZM44.0691 96H45.9483L47.3801 90.8395H47.4846L48.9164 96H50.7907L52.9533 88.3636H51.1138L49.7914 93.7031H49.7168L48.3446 88.3636H46.53L45.1578 93.733H45.0882L43.7459 88.3636H41.9114L44.0691 96ZM56.4073 96.1541C57.6055 96.1541 58.3214 95.5923 58.6495 94.951H58.7092V96H60.4393V90.8892C60.4393 88.8707 58.7937 88.2642 57.337 88.2642C55.7312 88.2642 54.4982 88.9801 54.1005 90.3722L55.7809 90.6108C55.9599 90.0888 56.467 89.6413 57.3469 89.6413C58.1822 89.6413 58.6396 90.0689 58.6396 90.8196V90.8494C58.6396 91.3665 58.0977 91.3913 56.7504 91.5355C55.2688 91.6946 53.8519 92.1371 53.8519 93.8572C53.8519 95.3587 54.9506 96.1541 56.4073 96.1541ZM56.8746 94.8317C56.1239 94.8317 55.587 94.4886 55.587 93.8274C55.587 93.1364 56.1886 92.848 56.994 92.7337C57.4663 92.669 58.4109 92.5497 58.6445 92.3608V93.2607C58.6445 94.1108 57.9585 94.8317 56.8746 94.8317ZM63.0295 98.973C64.4215 98.973 65.2866 98.1974 65.7141 96.9943L68.7965 88.3636H66.8825L65.1175 94.1307H65.038L63.2781 88.3636H61.369L64.1381 96.1591L63.9592 96.6463C63.6211 97.4865 63.0991 97.5561 62.3136 97.3274L61.896 98.7692C62.0998 98.8537 62.5025 98.973 63.0295 98.973Z" fill="#1A1A1A"/>
<path d="M259.34 96.1392C261.388 96.1392 262.85 94.6925 262.845 92.7088C262.85 90.7401 261.478 89.3082 259.624 89.3082C258.868 89.3082 258.167 89.5966 257.769 89.9844H257.71L258.033 87.1357H262.353V85.8182H256.755L256.183 90.9489L257.59 91.1577C257.973 90.8146 258.659 90.581 259.276 90.581C260.484 90.5909 261.359 91.4957 261.359 92.7386C261.359 93.9616 260.509 94.8466 259.34 94.8466C258.356 94.8466 257.575 94.2202 257.496 93.3452H256.004C256.064 94.9659 257.471 96.1392 259.34 96.1392ZM266.136 94.608H264.705L264.655 95.1648C264.54 96.5121 264.222 97.8693 264.088 98.4858H265.142C265.381 97.8345 265.908 96.343 266.062 95.1499L266.136 94.608ZM271.282 96.1392C273.36 96.1392 274.886 94.8963 274.881 93.206C274.886 91.9183 274.106 90.9936 272.754 90.7848V90.7053C273.817 90.4318 274.509 89.5966 274.504 88.4531C274.509 86.9567 273.281 85.679 271.322 85.679C269.452 85.679 267.951 86.8075 267.901 88.4631H269.388C269.423 87.5284 270.303 86.9616 271.302 86.9616C272.341 86.9616 273.022 87.593 273.017 88.5327C273.022 89.517 272.232 90.1634 271.103 90.1634H270.243V91.4162H271.103C272.515 91.4162 273.33 92.1321 273.33 93.1562C273.33 94.1456 272.47 94.8168 271.272 94.8168C270.168 94.8168 269.308 94.25 269.249 93.3452H267.688C267.752 95.0057 269.224 96.1392 271.282 96.1392ZM276.547 94.0114H281.374V96H282.841V94.0114H284.188V92.7088H282.841V85.8182H280.947L276.547 92.7685V94.0114ZM281.384 92.7088H278.158V92.6293L281.305 87.6477H281.384V92.7088ZM285.921 96H292.623V94.6825H288.039V94.608L290.062 92.4901C291.926 90.6058 292.458 89.706 292.458 88.5675C292.458 86.9318 291.126 85.679 289.207 85.679C287.303 85.679 285.911 86.9119 285.911 88.7713H287.377C287.373 87.6776 288.078 86.9616 289.177 86.9616C290.211 86.9616 290.997 87.598 290.997 88.6122C290.997 89.5121 290.46 90.1584 289.366 91.3168L285.921 94.8864V96Z" fill="#1A1A1A"/>
<path d="M439.047 97.2727H439.982L439.987 96.1541C442.089 96 443.293 94.7969 443.293 93.1861C443.293 91.3516 441.657 90.6406 440.364 90.3224L440.001 90.228L440.011 87.0362C440.941 87.1605 441.577 87.6776 441.672 88.4929H443.153C443.114 86.9766 441.861 85.843 440.016 85.6939L440.021 84.5455H439.087L439.082 85.7038C437.297 85.8828 435.989 86.9964 435.989 88.6023C435.989 90.0192 437.004 90.8494 438.639 91.2919L439.067 91.4062L439.057 94.7919C438.087 94.6726 437.337 94.1456 437.257 93.1861H435.716C435.81 94.9013 437.048 96.005 439.052 96.1541L439.047 97.2727ZM439.991 94.7919L440.001 91.6648C441.011 91.9432 441.771 92.3111 441.771 93.1712C441.771 94.0412 441.045 94.6527 439.991 94.7919ZM439.072 89.9794C438.331 89.7607 437.516 89.3679 437.521 88.5128C437.521 87.767 438.112 87.1854 439.077 87.0412L439.072 89.9794ZM452.274 85.8182H450.842C450.787 86.0966 450.012 87.3842 448.525 87.3842V88.647C449.679 88.647 450.479 88.1896 450.648 87.8913H450.733V96H452.274V85.8182ZM458.41 85.6541C456.272 85.6392 454.875 87.1705 454.875 89.1193C454.875 91.0682 456.287 92.4702 458.052 92.4702C459.131 92.4702 460.056 91.9432 460.578 91.0881H460.657C460.652 93.4297 459.772 94.7969 458.281 94.7969C457.306 94.7969 456.68 94.2003 456.481 93.3303H454.965C455.188 94.9759 456.461 96.1392 458.281 96.1392C460.647 96.1392 462.124 94.1058 462.129 90.5412C462.124 86.7976 460.225 85.669 458.41 85.6541ZM458.415 86.9467C459.593 86.9467 460.463 87.946 460.463 89.0845C460.463 90.223 459.548 91.2173 458.385 91.2173C457.217 91.2173 456.367 90.2827 456.367 89.0994C456.367 87.8963 457.247 86.9467 458.415 86.9467ZM465.879 94.608H464.447L464.397 95.1648C464.283 96.5121 463.964 97.8693 463.83 98.4858H464.884C465.123 97.8345 465.65 96.343 465.804 95.1499L465.879 94.608ZM470.952 96.1392C473.08 96.1591 474.492 94.6278 474.487 92.674C474.492 90.7251 473.075 89.3281 471.31 89.3281C470.236 89.3281 469.306 89.8452 468.784 90.7053H468.71C468.715 88.3686 469.59 87.0014 471.081 87.0014C472.061 87.0014 472.677 87.593 472.886 88.4631H474.402C474.169 86.8274 472.901 85.6541 471.081 85.6541C468.715 85.6541 467.238 87.6875 467.238 91.2521C467.238 95.0007 469.142 96.1243 470.952 96.1392ZM470.947 94.8466C469.764 94.8466 468.899 93.8523 468.899 92.7088C468.904 91.5703 469.809 90.576 470.982 90.576C472.145 90.576 473 91.5156 472.995 92.6939C473 93.897 472.11 94.8466 470.947 94.8466ZM479.683 85.6541C477.546 85.6392 476.149 87.1705 476.149 89.1193C476.149 91.0682 477.561 92.4702 479.325 92.4702C480.404 92.4702 481.329 91.9432 481.851 91.0881H481.931C481.926 93.4297 481.046 94.7969 479.554 94.7969C478.58 94.7969 477.953 94.2003 477.754 93.3303H476.238C476.462 94.9759 477.735 96.1392 479.554 96.1392C481.921 96.1392 483.397 94.1058 483.402 90.5412C483.397 86.7976 481.498 85.669 479.683 85.6541ZM479.688 86.9467C480.867 86.9467 481.737 87.946 481.737 89.0845C481.737 90.223 480.822 91.2173 479.659 91.2173C478.49 91.2173 477.64 90.2827 477.64 89.0994C477.64 87.8963 478.52 86.9467 479.688 86.9467ZM484.984 94.0114H489.812V96H491.278V94.0114H492.626V92.7088H491.278V85.8182H489.384L484.984 92.7685V94.0114ZM489.822 92.7088H486.595V92.6293L489.742 87.6477H489.822V92.7088ZM495.834 94.608H494.402L494.352 95.1648C494.238 96.5121 493.92 97.8693 493.785 98.4858H494.839C495.078 97.8345 495.605 96.343 495.759 95.1499L495.834 94.608ZM500.385 85.8182H498.953C498.899 86.0966 498.123 87.3842 496.637 87.3842V88.647C497.79 88.647 498.59 88.1896 498.759 87.8913H498.844V96H500.385V85.8182ZM503.136 96H509.837V94.6825H505.254V94.608L507.277 92.4901C509.141 90.6058 509.673 89.706 509.673 88.5675C509.673 86.9318 508.341 85.679 506.422 85.679C504.518 85.679 503.126 86.9119 503.126 88.7713H504.592C504.587 87.6776 505.293 86.9616 506.392 86.9616C507.426 86.9616 508.212 87.598 508.212 88.6122C508.212 89.5121 507.675 90.1584 506.581 91.3168L503.136 94.8864V96ZM515.162 96.1392C517.28 96.1392 518.776 94.9361 518.786 93.2855C518.776 92.0028 517.876 90.924 516.738 90.7202V90.6605C517.727 90.4219 518.398 89.4922 518.408 88.3935C518.398 86.8374 517.026 85.679 515.162 85.679C513.278 85.679 511.906 86.8374 511.915 88.3935C511.906 89.4872 512.577 90.4219 513.586 90.6605V90.7202C512.428 90.924 511.528 92.0028 511.538 93.2855C511.528 94.9361 513.024 96.1392 515.162 96.1392ZM515.162 94.8814C513.889 94.8814 513.084 94.2053 513.094 93.1861C513.084 92.1271 513.959 91.3714 515.162 91.3714C516.345 91.3714 517.22 92.1271 517.23 93.1861C517.22 94.2053 516.42 94.8814 515.162 94.8814ZM515.162 90.1435C514.133 90.1435 513.402 89.4922 513.412 88.5227C513.402 87.5682 514.108 86.9368 515.162 86.9368C516.196 86.9368 516.902 87.5682 516.912 88.5227C516.902 89.4922 516.176 90.1435 515.162 90.1435Z" fill="#1A1A1A"/>
<path d="M18.0043 132H19.8487V128.56H21.7976C24.1491 128.56 25.4119 127.148 25.4119 125.189C25.4119 123.245 24.1641 121.818 21.8224 121.818H18.0043V132ZM19.8487 127.043V123.359H21.5391C22.9212 123.359 23.5327 124.105 23.5327 125.189C23.5327 126.273 22.9212 127.043 21.549 127.043H19.8487ZM30.1561 132.149C32.3933 132.149 33.8152 130.573 33.8152 128.212C33.8152 125.845 32.3933 124.264 30.1561 124.264C27.9189 124.264 26.497 125.845 26.497 128.212C26.497 130.573 27.9189 132.149 30.1561 132.149ZM30.166 130.707C28.9281 130.707 28.3216 129.604 28.3216 128.207C28.3216 126.81 28.9281 125.691 30.166 125.691C31.3841 125.691 31.9906 126.81 31.9906 128.207C31.9906 129.604 31.3841 130.707 30.166 130.707ZM35.3427 132H37.1424V127.511C37.1424 126.541 37.8732 125.855 38.8626 125.855C39.1658 125.855 39.5437 125.91 39.6978 125.96V124.304C39.5337 124.274 39.2504 124.254 39.0515 124.254C38.1765 124.254 37.4457 124.751 37.1673 125.636H37.0877V124.364H35.3427V132ZM45.1852 124.364H43.6788V122.534H41.8791V124.364H40.7953V125.756H41.8791V130.001C41.8691 131.438 42.9132 132.144 44.2654 132.104C44.7775 132.089 45.1305 131.99 45.3244 131.925L45.0211 130.518C44.9217 130.543 44.7179 130.588 44.4941 130.588C44.0417 130.588 43.6788 130.429 43.6788 129.703V125.756H45.1852V124.364ZM51.5575 128.788C51.5575 129.952 50.7273 130.528 49.9318 130.528C49.0668 130.528 48.4901 129.917 48.4901 128.947V124.364H46.6903V129.226C46.6903 131.06 47.7344 132.099 49.2358 132.099C50.3793 132.099 51.1847 131.498 51.5327 130.643H51.6122V132H53.3572V124.364H51.5575V128.788ZM58.5289 134.993C60.5922 134.993 62.1135 134.048 62.1135 132.124V124.364H60.3386V125.626H60.2392C59.9657 125.075 59.394 124.264 58.0467 124.264C56.2818 124.264 54.8947 125.646 54.8947 128.157C54.8947 130.648 56.2818 131.891 58.0417 131.891C59.3493 131.891 59.9608 131.19 60.2392 130.628H60.3287V132.075C60.3287 133.168 59.5829 133.631 58.5588 133.631C57.475 133.631 56.9977 133.119 56.7789 132.701L55.1582 133.094C55.4863 134.133 56.585 134.993 58.5289 134.993ZM58.5439 130.479C57.3556 130.479 56.7292 129.554 56.7292 128.147C56.7292 126.76 57.3457 125.741 58.5439 125.741C59.7022 125.741 60.3386 126.7 60.3386 128.147C60.3386 129.604 59.6923 130.479 58.5439 130.479ZM66.1554 132.154C67.3535 132.154 68.0694 131.592 68.3975 130.951H68.4572V132H70.1873V126.889C70.1873 124.871 68.5417 124.264 67.085 124.264C65.4792 124.264 64.2463 124.98 63.8485 126.372L65.5289 126.611C65.7079 126.089 66.215 125.641 67.095 125.641C67.9302 125.641 68.3876 126.069 68.3876 126.82V126.849C68.3876 127.366 67.8457 127.391 66.4984 127.536C65.0169 127.695 63.6 128.137 63.6 129.857C63.6 131.359 64.6987 132.154 66.1554 132.154ZM66.6227 130.832C65.872 130.832 65.335 130.489 65.335 129.827C65.335 129.136 65.9366 128.848 66.742 128.734C67.2143 128.669 68.1589 128.55 68.3926 128.361V129.261C68.3926 130.111 67.7065 130.832 66.6227 130.832ZM73.7967 121.818H71.997V132H73.7967V121.818Z" fill="#1A1A1A"/>
<path d="M259.524 132.139C261.602 132.139 263.129 130.896 263.124 129.206C263.129 127.918 262.348 126.994 260.996 126.785V126.705C262.06 126.432 262.751 125.597 262.746 124.453C262.751 122.957 261.523 121.679 259.564 121.679C257.695 121.679 256.193 122.808 256.143 124.463H257.63C257.665 123.528 258.545 122.962 259.544 122.962C260.583 122.962 261.264 123.593 261.259 124.533C261.264 125.517 260.474 126.163 259.345 126.163H258.485V127.416H259.345C260.757 127.416 261.572 128.132 261.572 129.156C261.572 130.146 260.712 130.817 259.514 130.817C258.411 130.817 257.55 130.25 257.491 129.345H255.93C255.994 131.006 257.466 132.139 259.524 132.139ZM266.478 130.608H265.046L264.997 131.165C264.882 132.512 264.564 133.869 264.43 134.486H265.484C265.722 133.835 266.249 132.343 266.404 131.15L266.478 130.608ZM271.519 132.139C273.637 132.139 275.134 130.936 275.144 129.286C275.134 128.003 274.234 126.924 273.095 126.72V126.661C274.085 126.422 274.756 125.492 274.766 124.393C274.756 122.837 273.384 121.679 271.519 121.679C269.635 121.679 268.263 122.837 268.273 124.393C268.263 125.487 268.934 126.422 269.943 126.661V126.72C268.785 126.924 267.885 128.003 267.895 129.286C267.885 130.936 269.382 132.139 271.519 132.139ZM271.519 130.881C270.247 130.881 269.441 130.205 269.451 129.186C269.441 128.127 270.316 127.371 271.519 127.371C272.703 127.371 273.578 128.127 273.588 129.186C273.578 130.205 272.777 130.881 271.519 130.881ZM271.519 126.143C270.49 126.143 269.759 125.492 269.769 124.523C269.759 123.568 270.465 122.937 271.519 122.937C272.553 122.937 273.259 123.568 273.269 124.523C273.259 125.492 272.534 126.143 271.519 126.143ZM280.469 132.139C282.548 132.139 284.074 130.896 284.069 129.206C284.074 127.918 283.293 126.994 281.941 126.785V126.705C283.005 126.432 283.696 125.597 283.691 124.453C283.696 122.957 282.468 121.679 280.509 121.679C278.64 121.679 277.138 122.808 277.089 124.463H278.575C278.61 123.528 279.49 122.962 280.489 122.962C281.528 122.962 282.21 123.593 282.205 124.533C282.21 125.517 281.419 126.163 280.29 126.163H279.43V127.416H280.29C281.702 127.416 282.518 128.132 282.518 129.156C282.518 130.146 281.658 130.817 280.46 130.817C279.356 130.817 278.496 130.25 278.436 129.345H276.875C276.94 131.006 278.411 132.139 280.469 132.139ZM289.334 121.654C287.196 121.639 285.799 123.17 285.799 125.119C285.799 127.068 287.211 128.47 288.976 128.47C290.055 128.47 290.979 127.943 291.501 127.088H291.581C291.576 129.43 290.696 130.797 289.205 130.797C288.23 130.797 287.604 130.2 287.405 129.33H285.888C286.112 130.976 287.385 132.139 289.205 132.139C291.571 132.139 293.048 130.106 293.053 126.541C293.048 122.798 291.148 121.669 289.334 121.654ZM289.339 122.947C290.517 122.947 291.387 123.946 291.387 125.085C291.387 126.223 290.472 127.217 289.309 127.217C288.141 127.217 287.29 126.283 287.29 125.099C287.29 123.896 288.17 122.947 289.339 122.947Z" fill="#1A1A1A"/>
<path d="M439.047 133.273H439.982L439.987 132.154C442.089 132 443.293 130.797 443.293 129.186C443.293 127.352 441.657 126.641 440.364 126.322L440.001 126.228L440.011 123.036C440.941 123.161 441.577 123.678 441.672 124.493H443.153C443.114 122.977 441.861 121.843 440.016 121.694L440.021 120.545H439.087L439.082 121.704C437.297 121.883 435.989 122.996 435.989 124.602C435.989 126.019 437.004 126.849 438.639 127.292L439.067 127.406L439.057 130.792C438.087 130.673 437.337 130.146 437.257 129.186H435.716C435.81 130.901 437.048 132.005 439.052 132.154L439.047 133.273ZM439.991 130.792L440.001 127.665C441.011 127.943 441.771 128.311 441.771 129.171C441.771 130.041 441.045 130.653 439.991 130.792ZM439.072 125.979C438.331 125.761 437.516 125.368 437.521 124.513C437.521 123.767 438.112 123.185 439.077 123.041L439.072 125.979ZM452.135 132.139C454.252 132.139 455.749 130.936 455.759 129.286C455.749 128.003 454.849 126.924 453.711 126.72V126.661C454.7 126.422 455.371 125.492 455.381 124.393C455.371 122.837 453.999 121.679 452.135 121.679C450.25 121.679 448.878 122.837 448.888 124.393C448.878 125.487 449.549 126.422 450.559 126.661V126.72C449.4 126.924 448.5 128.003 448.51 129.286C448.5 130.936 449.997 132.139 452.135 132.139ZM452.135 130.881C450.862 130.881 450.056 130.205 450.066 129.186C450.056 128.127 450.931 127.371 452.135 127.371C453.318 127.371 454.193 128.127 454.203 129.186C454.193 130.205 453.392 130.881 452.135 130.881ZM452.135 126.143C451.105 126.143 450.375 125.492 450.385 124.523C450.375 123.568 451.081 122.937 452.135 122.937C453.169 122.937 453.875 123.568 453.885 124.523C453.875 125.492 453.149 126.143 452.135 126.143ZM459.015 130.608H457.583L457.534 131.165C457.419 132.512 457.101 133.869 456.967 134.486H458.021C458.26 133.835 458.787 132.343 458.941 131.15L459.015 130.608ZM461.095 132H467.796V130.683H463.213V130.608L465.236 128.49C467.1 126.606 467.632 125.706 467.632 124.567C467.632 122.932 466.3 121.679 464.381 121.679C462.477 121.679 461.085 122.912 461.085 124.771H462.551C462.546 123.678 463.252 122.962 464.351 122.962C465.385 122.962 466.171 123.598 466.171 124.612C466.171 125.512 465.634 126.158 464.54 127.317L461.095 130.886V132ZM473.066 121.654C470.928 121.639 469.531 123.17 469.531 125.119C469.531 127.068 470.943 128.47 472.708 128.47C473.787 128.47 474.712 127.943 475.234 127.088H475.313C475.308 129.43 474.428 130.797 472.937 130.797C471.963 130.797 471.336 130.2 471.137 129.33H469.621C469.845 130.976 471.117 132.139 472.937 132.139C475.303 132.139 476.78 130.106 476.785 126.541C476.78 122.798 474.881 121.669 473.066 121.654ZM473.071 122.947C474.249 122.947 475.119 123.946 475.119 125.085C475.119 126.223 474.205 127.217 473.041 127.217C471.873 127.217 471.023 126.283 471.023 125.099C471.023 123.896 471.903 122.947 473.071 122.947ZM482.126 132.169C484.477 132.169 485.854 130.25 485.854 126.914C485.854 123.603 484.457 121.679 482.126 121.679C479.789 121.679 478.397 123.598 478.392 126.914C478.392 130.245 479.769 132.164 482.126 132.169ZM482.126 130.842C480.749 130.842 479.918 129.46 479.918 126.914C479.923 124.379 480.754 122.982 482.126 122.982C483.493 122.982 484.328 124.379 484.328 126.914C484.328 129.46 483.498 130.842 482.126 130.842ZM489.572 130.608H488.14L488.09 131.165C487.976 132.512 487.658 133.869 487.524 134.486H488.578C488.816 133.835 489.343 132.343 489.497 131.15L489.572 130.608ZM495.012 132.139C497.06 132.139 498.522 130.692 498.517 128.709C498.522 126.74 497.15 125.308 495.295 125.308C494.54 125.308 493.839 125.597 493.441 125.984H493.381L493.705 123.136H498.025V121.818H492.427L491.855 126.949L493.262 127.158C493.645 126.815 494.331 126.581 494.947 126.581C496.156 126.591 497.031 127.496 497.031 128.739C497.031 129.962 496.18 130.847 495.012 130.847C494.028 130.847 493.247 130.22 493.168 129.345H491.676C491.736 130.966 493.143 132.139 495.012 132.139ZM503.878 132.139C505.956 132.139 507.482 130.896 507.477 129.206C507.482 127.918 506.702 126.994 505.349 126.785V126.705C506.413 126.432 507.104 125.597 507.099 124.453C507.104 122.957 505.876 121.679 503.917 121.679C502.048 121.679 500.547 122.808 500.497 124.463H501.983C502.018 123.528 502.898 122.962 503.898 122.962C504.937 122.962 505.618 123.593 505.613 124.533C505.618 125.517 504.827 126.163 503.699 126.163H502.839V127.416H503.699C505.111 127.416 505.926 128.132 505.926 129.156C505.926 130.146 505.066 130.817 503.868 130.817C502.764 130.817 501.904 130.25 501.844 129.345H500.283C500.348 131.006 501.819 132.139 503.878 132.139ZM512.717 132.139C514.765 132.139 516.227 130.692 516.222 128.709C516.227 126.74 514.855 125.308 513.001 125.308C512.245 125.308 511.544 125.597 511.146 125.984H511.086L511.41 123.136H515.73V121.818H510.132L509.56 126.949L510.967 127.158C511.35 126.815 512.036 126.581 512.653 126.581C513.861 126.591 514.736 127.496 514.736 128.739C514.736 129.962 513.885 130.847 512.717 130.847C511.733 130.847 510.952 130.22 510.873 129.345H509.381C509.441 130.966 510.848 132.139 512.717 132.139Z" fill="#1A1A1A"/>
<rect x="0.5" y="0.5" width="601" height="145" rx="4.5" stroke="#E5E5E5"/>
</svg>
