<svg width="2200" height="1100" viewBox="0 0 2200 1100" fill="none" xmlns="http://www.w3.org/2000/svg">
<rect width="2200" height="1100" fill="white"/>
<rect x="4" y="4" width="392" height="292" fill="#FEE4E7" stroke="white" stroke-width="8"/>
<rect x="1104" y="4" width="392" height="292" fill="#EFC2CB" stroke="white" stroke-width="8"/>
<rect x="404" y="404" width="392" height="292" fill="#B6EBF0" stroke="white" stroke-width="8"/>
<rect x="1504" y="404" width="392" height="292" fill="#8FD8AE" stroke="white" stroke-width="8"/>
<rect x="804" y="804" width="292" height="292" fill="#9AE8BC" stroke="white" stroke-width="8"/>
<rect x="1904" y="804" width="292" height="292" fill="#44DDCF" stroke="white" stroke-width="8"/>
<rect x="4" y="704" width="392" height="392" fill="#EFD0C3" stroke="white" stroke-width="8"/>
<rect x="1104" y="704" width="392" height="392" fill="#D1C3DE" stroke="white" stroke-width="8"/>
<rect x="404" y="704" width="392" height="392" fill="#B5D0E5" stroke="white" stroke-width="8"/>
<rect x="1504" y="704" width="392" height="392" fill="#FFEAD7" stroke="white" stroke-width="8"/>
<rect x="404" y="4" width="292" height="392" fill="#DABEF2" stroke="white" stroke-width="8"/>
<rect x="1504" y="4" width="292" height="392" fill="#DBCFF6" stroke="white" stroke-width="8"/>
<rect x="804" y="404" width="292" height="392" fill="#F4F0E6" stroke="white" stroke-width="8"/>
<rect x="1904" y="404" width="292" height="392" fill="#B0BAE9" stroke="white" stroke-width="8"/>
<rect x="4" y="304" width="392" height="392" fill="#C7ECD6" stroke="white" stroke-width="8"/>
<rect x="1104" y="304" width="392" height="392" fill="#B4C4FD" stroke="white" stroke-width="8"/>
<rect x="704" y="4" width="392" height="392" fill="#E6D3CE" stroke="white" stroke-width="8"/>
<rect x="1804" y="4" width="392" height="392" fill="#FAE3D2" stroke="white" stroke-width="8"/>
</svg>
