<svg width="42" height="42" viewBox="0 0 42 42" fill="none" xmlns="http://www.w3.org/2000/svg">
<rect width="42" height="42" rx="4" fill="black" fill-opacity="0.05"/>
<path d="M29.9992 20.8484L30 29.7181C30 30.1638 29.9536 30.3255 29.8664 30.4884C29.7793 30.6514 29.6514 30.7793 29.4884 30.8664C29.3255 30.9536 29.1638 31 28.7181 31H24.2819C23.8362 31 23.6745 30.9536 23.5116 30.8664C23.3486 30.7793 23.2207 30.6514 23.1336 30.4884C23.0464 30.3255 23 30.1638 23 29.7181V25.2819C23 24.8362 22.9536 24.6745 22.8664 24.5116C22.7793 24.3486 22.6514 24.2207 22.4884 24.1336C22.3255 24.0464 22.1638 24 21.7181 24H20.2819C19.8362 24 19.6745 24.0464 19.5116 24.1336C19.3486 24.2207 19.2207 24.3486 19.1336 24.5116C19.0464 24.6745 19 24.8362 19 25.2819V29.7181C19 30.1638 18.9536 30.3255 18.8664 30.4884C18.7793 30.6514 18.6514 30.7793 18.4884 30.8664C18.3255 30.9536 18.1638 31 17.7181 31H13.2819C12.8362 31 12.6745 30.9536 12.5116 30.8664C12.3486 30.7793 12.2207 30.6514 12.1336 30.4884C12.0464 30.3255 12 30.1638 12 29.7181V21.0466C12 20.2101 12.0363 19.9164 12.121 19.5932C12.2058 19.2699 12.3391 18.9853 12.5332 18.7133L12.6329 18.5802C12.8069 18.3604 13.0367 18.1361 13.5722 17.6898L20.1575 12.2021C20.465 11.9458 20.5992 11.8796 20.7594 11.836C20.9195 11.7924 21.0805 11.7924 21.2406 11.836C21.4008 11.8796 21.535 11.9458 21.8425 12.2021L28.4278 17.6898C29.0704 18.2253 29.2728 18.4412 29.4668 18.7133C29.6609 18.9853 29.7942 19.2699 29.879 19.5932C29.9567 19.8895 29.9936 20.1609 29.9992 20.8484Z" fill="#333333"/>
</svg>
